<svg width="70" height="50" viewBox="0 10 80 20" fill="none" xmlns="http://www.w3.org/2000/svg">
<path d="M60.1764 5.29433V17.3948C60.1764 35.8452 44.5664 41.9664 41.4411 43.0062C40.7736 43.2332 40.0498 43.2332 39.3823 43.0062C36.2529 41.9664 20.647 35.8452 20.647 17.3948V5.29433C20.647 4.42062 20.994 3.5827 21.6118 2.96489C22.2296 2.34708 23.0674 2 23.9411 2H56.8823C57.7559 2 58.5938 2.34708 59.2116 2.96489C59.8293 3.5827 60.1764 4.42062 60.1764 5.29433Z" fill="url(#paint0_linear_37_1347)" stroke="white" stroke-width="3.29412"/>
<rect x="16.5293" y="13.5293" width="47.7647" height="11.2941" rx="3.29412" fill="white"/>
<path d="M23.5523 22.1763V17.0854H25.5907C25.9652 17.0854 26.2776 17.1409 26.5278 17.2519C26.7781 17.3629 26.9662 17.5171 27.0921 17.7143C27.2181 17.9098 27.281 18.1352 27.281 18.3904C27.281 18.5893 27.2413 18.7641 27.1617 18.9149C27.0822 19.0641 26.9728 19.1867 26.8336 19.2828C26.696 19.3773 26.5386 19.4444 26.3613 19.4842V19.5339C26.5552 19.5422 26.7366 19.5968 26.9057 19.6979C27.0764 19.799 27.2147 19.9407 27.3208 20.123C27.4269 20.3036 27.4799 20.5191 27.4799 20.7693C27.4799 21.0394 27.4128 21.2806 27.2785 21.4927C27.146 21.7031 26.9496 21.8697 26.6894 21.9923C26.4292 22.115 26.1086 22.1763 25.7274 22.1763H23.5523ZM24.6287 21.2963H25.5062C25.8061 21.2963 26.0249 21.2391 26.1624 21.1248C26.3 21.0088 26.3687 20.8547 26.3687 20.6624C26.3687 20.5216 26.3348 20.3973 26.2668 20.2896C26.1989 20.1818 26.1019 20.0973 25.976 20.036C25.8517 19.9747 25.7034 19.944 25.531 19.944H24.6287V21.2963ZM24.6287 19.2157H25.4266C25.5741 19.2157 25.705 19.19 25.8194 19.1386C25.9354 19.0856 26.0265 19.011 26.0928 18.9149C26.1608 18.8188 26.1947 18.7036 26.1947 18.5694C26.1947 18.3854 26.1293 18.2371 25.9984 18.1244C25.8691 18.0117 25.6851 17.9554 25.4465 17.9554H24.6287V19.2157ZM29.2492 22.2484C29.0055 22.2484 28.7885 22.2061 28.5979 22.1216C28.4073 22.0354 28.2565 21.9086 28.1455 21.7413C28.0361 21.5722 27.9814 21.3618 27.9814 21.1099C27.9814 20.8977 28.0203 20.7196 28.0982 20.5754C28.1761 20.4312 28.2822 20.3152 28.4164 20.2274C28.5506 20.1396 28.7031 20.0733 28.8738 20.0285C29.0461 19.9838 29.2268 19.9523 29.4157 19.9341C29.6378 19.9109 29.8167 19.8893 29.9526 19.8695C30.0885 19.8479 30.1871 19.8164 30.2484 19.775C30.3098 19.7336 30.3404 19.6722 30.3404 19.591V19.5761C30.3404 19.4187 30.2907 19.2969 30.1913 19.2107C30.0935 19.1245 29.9543 19.0815 29.7737 19.0815C29.5831 19.0815 29.4314 19.1237 29.3188 19.2082C29.2061 19.2911 29.1315 19.3955 29.095 19.5214L28.1156 19.4419C28.1653 19.2099 28.2631 19.0094 28.409 18.8403C28.5548 18.6696 28.7429 18.5387 28.9732 18.4476C29.2052 18.3548 29.4737 18.3084 29.7786 18.3084C29.9908 18.3084 30.1938 18.3332 30.3877 18.3829C30.5832 18.4327 30.7564 18.5097 30.9072 18.6141C31.0596 18.7185 31.1798 18.8528 31.2676 19.0168C31.3555 19.1792 31.3994 19.3739 31.3994 19.601V22.1763H30.3951V21.6468H30.3653C30.304 21.7661 30.2219 21.8713 30.1192 21.9625C30.0164 22.052 29.893 22.1224 29.7488 22.1738C29.6046 22.2235 29.4381 22.2484 29.2492 22.2484ZM29.5524 21.5175C29.7082 21.5175 29.8457 21.4869 29.9651 21.4256C30.0844 21.3626 30.178 21.2781 30.246 21.172C30.3139 21.0659 30.3479 20.9458 30.3479 20.8116V20.4064C30.3147 20.4279 30.2692 20.4478 30.2112 20.466C30.1548 20.4826 30.091 20.4984 30.0198 20.5133C29.9485 20.5265 29.8772 20.539 29.806 20.5506C29.7347 20.5605 29.6701 20.5696 29.6121 20.5779C29.4878 20.5961 29.3792 20.6251 29.2864 20.6649C29.1936 20.7047 29.1216 20.7585 29.0702 20.8265C29.0188 20.8928 28.9931 20.9756 28.9931 21.0751C28.9931 21.2192 29.0453 21.3294 29.1497 21.4057C29.2558 21.4802 29.39 21.5175 29.5524 21.5175ZM33.2799 19.9689V22.1763H32.2209V18.3581H33.2302V19.0317H33.2749C33.3594 18.8097 33.5011 18.634 33.7 18.5047C33.8988 18.3738 34.14 18.3084 34.4233 18.3084C34.6885 18.3084 34.9197 18.3664 35.1169 18.4824C35.3141 18.5984 35.4674 18.7641 35.5767 18.9795C35.6861 19.1933 35.7408 19.4485 35.7408 19.7452V22.1763H34.6819V19.9341C34.6835 19.7004 34.6239 19.5181 34.5029 19.3872C34.3819 19.2546 34.2154 19.1883 34.0032 19.1883C33.8607 19.1883 33.7348 19.219 33.6254 19.2803C33.5177 19.3416 33.4332 19.4311 33.3718 19.5488C33.3122 19.6648 33.2815 19.8048 33.2799 19.9689ZM38.2956 23.6876C37.9525 23.6876 37.6584 23.6404 37.4131 23.5459C37.1695 23.4531 36.9756 23.3264 36.8315 23.1656C36.6873 23.0049 36.5936 22.8242 36.5506 22.6237L37.53 22.492C37.5598 22.5682 37.607 22.6395 37.6717 22.7057C37.7363 22.772 37.8216 22.8251 37.9277 22.8648C38.0354 22.9063 38.1663 22.927 38.3204 22.927C38.5508 22.927 38.7405 22.8706 38.8897 22.7579C39.0405 22.6469 39.1159 22.4605 39.1159 22.1986V21.5001H39.0712C39.0248 21.6062 38.9552 21.7065 38.8623 21.8009C38.7695 21.8954 38.6502 21.9724 38.5044 22.0321C38.3586 22.0918 38.1846 22.1216 37.9824 22.1216C37.6957 22.1216 37.4347 22.0553 37.1994 21.9227C36.9657 21.7885 36.7793 21.5838 36.64 21.3087C36.5025 21.032 36.4337 20.6823 36.4337 20.2597C36.4337 19.8272 36.5042 19.4659 36.645 19.1759C36.7859 18.8859 36.9731 18.6688 37.2068 18.5246C37.4421 18.3805 37.6998 18.3084 37.9799 18.3084C38.1937 18.3084 38.3726 18.3448 38.5168 18.4177C38.661 18.489 38.777 18.5785 38.8648 18.6862C38.9543 18.7923 39.0231 18.8967 39.0712 18.9994H39.1109V18.3581H40.1624V22.2136C40.1624 22.5384 40.0829 22.8101 39.9238 23.0289C39.7647 23.2476 39.5443 23.4117 39.2626 23.5211C38.9825 23.6321 38.6602 23.6876 38.2956 23.6876ZM38.318 21.3261C38.4887 21.3261 38.6328 21.2839 38.7505 21.1994C38.8698 21.1132 38.961 20.9905 39.0239 20.8315C39.0886 20.6707 39.1209 20.4785 39.1209 20.2547C39.1209 20.031 39.0894 19.8371 39.0264 19.6731C38.9634 19.5074 38.8723 19.3789 38.753 19.2878C38.6337 19.1966 38.4887 19.1511 38.318 19.1511C38.144 19.1511 37.9973 19.1983 37.878 19.2927C37.7587 19.3855 37.6683 19.5148 37.607 19.6805C37.5457 19.8463 37.515 20.0377 37.515 20.2547C37.515 20.4752 37.5457 20.6657 37.607 20.8265C37.67 20.9856 37.7603 21.109 37.878 21.1969C37.9973 21.283 38.144 21.3261 38.318 21.3261ZM42.0939 22.2484C41.8503 22.2484 41.6332 22.2061 41.4426 22.1216C41.252 22.0354 41.1012 21.9086 40.9902 21.7413C40.8808 21.5722 40.8261 21.3618 40.8261 21.1099C40.8261 20.8977 40.8651 20.7196 40.943 20.5754C41.0208 20.4312 41.1269 20.3152 41.2611 20.2274C41.3954 20.1396 41.5478 20.0733 41.7185 20.0285C41.8909 19.9838 42.0715 19.9523 42.2604 19.9341C42.4825 19.9109 42.6615 19.8893 42.7974 19.8695C42.9333 19.8479 43.0319 19.8164 43.0932 19.775C43.1545 19.7336 43.1851 19.6722 43.1851 19.591V19.5761C43.1851 19.4187 43.1354 19.2969 43.036 19.2107C42.9382 19.1245 42.799 19.0815 42.6184 19.0815C42.4278 19.0815 42.2762 19.1237 42.1635 19.2082C42.0508 19.2911 41.9762 19.3955 41.9398 19.5214L40.9604 19.4419C41.0101 19.2099 41.1079 19.0094 41.2537 18.8403C41.3995 18.6696 41.5876 18.5387 41.818 18.4476C42.05 18.3548 42.3184 18.3084 42.6234 18.3084C42.8355 18.3084 43.0385 18.3332 43.2324 18.3829C43.4279 18.4327 43.6011 18.5097 43.7519 18.6141C43.9044 18.7185 44.0245 18.8528 44.1123 19.0168C44.2002 19.1792 44.2441 19.3739 44.2441 19.601V22.1763H43.2398V21.6468H43.21C43.1487 21.7661 43.0667 21.8713 42.9639 21.9625C42.8612 22.052 42.7377 22.1224 42.5935 22.1738C42.4494 22.2235 42.2828 22.2484 42.0939 22.2484ZM42.3972 21.5175C42.5529 21.5175 42.6905 21.4869 42.8098 21.4256C42.9291 21.3626 43.0227 21.2781 43.0907 21.172C43.1586 21.0659 43.1926 20.9458 43.1926 20.8116V20.4064C43.1595 20.4279 43.1139 20.4478 43.0559 20.466C42.9995 20.4826 42.9357 20.4984 42.8645 20.5133C42.7932 20.5265 42.722 20.539 42.6507 20.5506C42.5794 20.5605 42.5148 20.5696 42.4568 20.5779C42.3325 20.5961 42.224 20.6251 42.1312 20.6649C42.0384 20.7047 41.9663 20.7585 41.9149 20.8265C41.8635 20.8928 41.8378 20.9756 41.8378 21.0751C41.8378 21.2192 41.89 21.3294 41.9945 21.4057C42.1005 21.4802 42.2347 21.5175 42.3972 21.5175ZM46.1246 17.0854V22.1763H45.0657V17.0854H46.1246ZM48.698 22.2508C48.3119 22.2508 47.978 22.1688 47.6962 22.0047C47.4162 21.839 47.1999 21.6087 47.0475 21.3137C46.895 21.0171 46.8188 20.6732 46.8188 20.2821C46.8188 19.8877 46.895 19.543 47.0475 19.248C47.1999 18.9514 47.4162 18.721 47.6962 18.557C47.978 18.3912 48.3119 18.3084 48.698 18.3084C49.0841 18.3084 49.4172 18.3912 49.6973 18.557C49.979 18.721 50.1961 18.9514 50.3486 19.248C50.5011 19.543 50.5773 19.8877 50.5773 20.2821C50.5773 20.6732 50.5011 21.0171 50.3486 21.3137C50.1961 21.6087 49.979 21.839 49.6973 22.0047C49.4172 22.1688 49.0841 22.2508 48.698 22.2508ZM48.703 21.4305C48.8787 21.4305 49.0253 21.3808 49.143 21.2814C49.2606 21.1803 49.3493 21.0427 49.409 20.8687C49.4703 20.6947 49.5009 20.4967 49.5009 20.2746C49.5009 20.0526 49.4703 19.8545 49.409 19.6805C49.3493 19.5065 49.2606 19.369 49.143 19.2679C49.0253 19.1668 48.8787 19.1163 48.703 19.1163C48.5257 19.1163 48.3765 19.1668 48.2555 19.2679C48.1362 19.369 48.0459 19.5065 47.9846 19.6805C47.9249 19.8545 47.8951 20.0526 47.8951 20.2746C47.8951 20.4967 47.9249 20.6947 47.9846 20.8687C48.0459 21.0427 48.1362 21.1803 48.2555 21.2814C48.3765 21.3808 48.5257 21.4305 48.703 21.4305ZM51.2658 22.1763V18.3581H52.2925V19.0243H52.3323C52.4019 18.7873 52.5187 18.6083 52.6828 18.4873C52.8468 18.3647 53.0357 18.3034 53.2495 18.3034C53.3025 18.3034 53.3597 18.3067 53.421 18.3133C53.4823 18.32 53.5362 18.3291 53.5826 18.3407V19.2803C53.5329 19.2654 53.4641 19.2521 53.3763 19.2405C53.2885 19.2289 53.2081 19.2231 53.1352 19.2231C52.9794 19.2231 52.8402 19.2571 52.7176 19.3251C52.5966 19.3913 52.5005 19.4842 52.4292 19.6035C52.3596 19.7228 52.3248 19.8603 52.3248 20.0161V22.1763H51.2658ZM55.6924 22.2508C55.2997 22.2508 54.9616 22.1713 54.6782 22.0122C54.3965 21.8515 54.1794 21.6244 54.0269 21.3311C53.8745 21.0361 53.7983 20.6873 53.7983 20.2846C53.7983 19.8918 53.8745 19.5471 54.0269 19.2505C54.1794 18.9539 54.394 18.7227 54.6708 18.557C54.9492 18.3912 55.2756 18.3084 55.6502 18.3084C55.9021 18.3084 56.1366 18.349 56.3536 18.4302C56.5724 18.5097 56.763 18.6299 56.9254 18.7906C57.0894 18.9514 57.217 19.1535 57.3082 19.3972C57.3993 19.6391 57.4449 19.9225 57.4449 20.2473V20.5381H54.2208V19.8819H56.4481C56.4481 19.7294 56.415 19.5944 56.3487 19.4767C56.2824 19.359 56.1904 19.2671 56.0728 19.2008C55.9568 19.1328 55.8217 19.0989 55.6676 19.0989C55.5068 19.0989 55.3643 19.1361 55.24 19.2107C55.1174 19.2836 55.0213 19.3822 54.9517 19.5065C54.8821 19.6292 54.8464 19.7659 54.8448 19.9167V20.5406C54.8448 20.7295 54.8796 20.8928 54.9492 21.0303C55.0204 21.1679 55.1207 21.2739 55.25 21.3485C55.3792 21.4231 55.5325 21.4604 55.7098 21.4604C55.8275 21.4604 55.9352 21.4438 56.033 21.4106C56.1308 21.3775 56.2144 21.3278 56.284 21.2615C56.3536 21.1952 56.4067 21.114 56.4431 21.0179L57.4225 21.0825C57.3728 21.3178 57.2709 21.5233 57.1168 21.699C56.9643 21.873 56.7671 22.0089 56.5252 22.1067C56.2849 22.2028 56.0073 22.2508 55.6924 22.2508Z" fill="black"/>
<path d="M14.9058 57.7646V51.7753H17.3039C17.7445 51.7753 18.112 51.8407 18.4064 51.9713C18.7008 52.1019 18.9221 52.2832 19.0702 52.5152C19.2184 52.7453 19.2925 53.0104 19.2925 53.3107C19.2925 53.5446 19.2457 53.7503 19.1521 53.9277C19.0585 54.1032 18.9299 54.2475 18.7661 54.3606C18.6043 54.4717 18.4191 54.5507 18.2105 54.5975V54.6559C18.4386 54.6657 18.652 54.73 18.8509 54.849C19.0517 54.9679 19.2145 55.1346 19.3393 55.349C19.4641 55.5616 19.5265 55.815 19.5265 56.1094C19.5265 56.4272 19.4475 56.7109 19.2896 56.9604C19.1336 57.208 18.9026 57.404 18.5965 57.5482C18.2904 57.6925 17.9131 57.7646 17.4647 57.7646H14.9058ZM16.1721 56.7294H17.2044C17.5573 56.7294 17.8147 56.6621 17.9765 56.5276C18.1383 56.3911 18.2192 56.2098 18.2192 55.9836C18.2192 55.8179 18.1793 55.6717 18.0993 55.545C18.0194 55.4183 17.9053 55.3188 17.7572 55.2467C17.6109 55.1745 17.4364 55.1385 17.2337 55.1385H16.1721V56.7294ZM16.1721 54.2816H17.1109C17.2844 54.2816 17.4384 54.2514 17.5729 54.191C17.7094 54.1286 17.8166 54.0408 17.8946 53.9277C17.9745 53.8147 18.0145 53.6792 18.0145 53.5212C18.0145 53.3048 17.9375 53.1303 17.7835 52.9978C17.6314 52.8652 17.415 52.7989 17.1343 52.7989H16.1721V54.2816ZM21.3828 57.7646H20.0258L22.0934 51.7753H23.7253L25.7899 57.7646H24.433L22.9327 53.144H22.8859L21.3828 57.7646ZM21.298 55.4105H24.5032V56.3989H21.298V55.4105ZM31.5204 51.7753V57.7646H30.4267L27.821 53.995H27.7771V57.7646H26.5108V51.7753H27.6221L30.2073 55.5421H30.26V51.7753H31.5204ZM36.5381 53.7113C36.4971 53.569 36.4396 53.4433 36.3655 53.3341C36.2914 53.223 36.2008 53.1294 36.0936 53.0533C35.9883 52.9753 35.8674 52.9159 35.7309 52.8749C35.5964 52.834 35.4473 52.8135 35.2835 52.8135C34.9774 52.8135 34.7083 52.8896 34.4763 53.0416C34.2463 53.1937 34.0669 53.415 33.9382 53.7055C33.8096 53.994 33.7452 54.3469 33.7452 54.7641C33.7452 55.1814 33.8086 55.5362 33.9353 55.8287C34.062 56.1211 34.2414 56.3443 34.4734 56.4984C34.7054 56.6504 34.9793 56.7265 35.2952 56.7265C35.5818 56.7265 35.8265 56.6758 36.0292 56.5744C36.2339 56.4711 36.3899 56.3258 36.4971 56.1386C36.6063 55.9515 36.6609 55.7302 36.6609 55.4748L36.9183 55.5128H35.3741V54.5594H37.8804V55.3139C37.8804 55.8404 37.7693 56.2927 37.547 56.6709C37.3248 57.0472 37.0187 57.3377 36.6287 57.5424C36.2388 57.7452 35.7923 57.8465 35.2893 57.8465C34.7278 57.8465 34.2346 57.7227 33.8096 57.4751C33.3845 57.2256 33.0531 56.8717 32.8152 56.4135C32.5793 55.9534 32.4614 55.4075 32.4614 54.7758C32.4614 54.2904 32.5316 53.8576 32.6719 53.4774C32.8143 53.0953 33.0131 52.7716 33.2685 52.5065C33.5239 52.2413 33.8213 52.0395 34.1605 51.9011C34.4997 51.7627 34.8672 51.6935 35.263 51.6935C35.6023 51.6935 35.9181 51.7432 36.2105 51.8426C36.503 51.9401 36.7623 52.0785 36.9884 52.2579C37.2166 52.4372 37.4027 52.6507 37.547 52.8983C37.6913 53.144 37.7839 53.415 37.8248 53.7113H36.5381ZM39.679 57.7646H38.322L40.3896 51.7753H42.0215L44.0861 57.7646H42.7292L41.2289 53.144H41.1821L39.679 57.7646ZM39.5941 55.4105H42.7994V56.3989H39.5941V55.4105ZM44.807 57.7646V51.7753H46.0733V56.7206H48.641V57.7646H44.807ZM54.7502 54.77C54.7502 55.4231 54.6264 55.9788 54.3788 56.4369C54.1331 56.8951 53.7978 57.2451 53.3728 57.4868C52.9497 57.7266 52.474 57.8465 51.9456 57.8465C51.4134 57.8465 50.9357 57.7257 50.5126 57.4839C50.0896 57.2421 49.7552 56.8922 49.5095 56.434C49.2639 55.9759 49.1411 55.4212 49.1411 54.77C49.1411 54.1169 49.2639 53.5612 49.5095 53.1031C49.7552 52.6449 50.0896 52.2959 50.5126 52.0561C50.9357 51.8143 51.4134 51.6935 51.9456 51.6935C52.474 51.6935 52.9497 51.8143 53.3728 52.0561C53.7978 52.2959 54.1331 52.6449 54.3788 53.1031C54.6264 53.5612 54.7502 54.1169 54.7502 54.77ZM53.4663 54.77C53.4663 54.3469 53.403 53.9901 53.2763 53.6996C53.1515 53.4091 52.975 53.1888 52.7469 53.0387C52.5188 52.8886 52.2517 52.8135 51.9456 52.8135C51.6395 52.8135 51.3724 52.8886 51.1443 53.0387C50.9162 53.1888 50.7388 53.4091 50.6121 53.6996C50.4873 53.9901 50.4249 54.3469 50.4249 54.77C50.4249 55.1931 50.4873 55.5499 50.6121 55.8404C50.7388 56.1308 50.9162 56.3512 51.1443 56.5013C51.3724 56.6514 51.6395 56.7265 51.9456 56.7265C52.2517 56.7265 52.5188 56.6514 52.7469 56.5013C52.975 56.3512 53.1515 56.1308 53.2763 55.8404C53.403 55.5499 53.4663 55.1931 53.4663 54.77ZM55.6882 57.7646V51.7753H58.0512C58.5035 51.7753 58.8895 51.8563 59.2093 52.0181C59.531 52.1779 59.7756 52.4051 59.9433 52.6995C60.1129 52.9919 60.1977 53.336 60.1977 53.7318C60.1977 54.1295 60.1119 54.4717 59.9404 54.7583C59.7688 55.0429 59.5202 55.2613 59.1946 55.4134C58.871 55.5655 58.4791 55.6415 58.019 55.6415H56.4369V54.6238H57.8143C58.056 54.6238 58.2569 54.5906 58.4167 54.5243C58.5766 54.4581 58.6955 54.3586 58.7735 54.226C58.8535 54.0935 58.8934 53.9287 58.8934 53.7318C58.8934 53.5329 58.8535 53.3653 58.7735 53.2288C58.6955 53.0923 58.5756 52.989 58.4138 52.9188C58.2539 52.8467 58.0521 52.8106 57.8084 52.8106H56.9545V57.7646H55.6882ZM58.9227 55.039L60.4112 57.7646H59.0133L57.5569 55.039H58.9227ZM61.0926 57.7646V51.7753H65.1284V52.8194H62.3589V54.2465H64.9207V55.2906H62.3589V56.7206H65.1401V57.7646H61.0926Z" fill="white"/>
<defs>
<linearGradient id="paint0_linear_37_1347" x1="16.5293" y1="-9.94118" x2="63.0587" y2="35.7647" gradientUnits="userSpaceOnUse">
<stop offset="0.48" stop-color="#A00502"/>
<stop offset="1" stop-color="#D2AA40"/>
</linearGradient>
</defs>
</svg>
