<svg
          width="70"
          height="50"
          viewBox="-16 10 80 20"
          fill="none"
          xmlns="http://www.w3.org/2000/svg"
        >
          <path
            d="M44.1764 5.29433V17.3948C44.1764 35.8452 28.5664 41.9664 25.4411 43.0062C24.7736 43.2332 24.0498 43.2332 23.3823 43.0062C20.2529 41.9664 4.64697 35.8452 4.64697 17.3948V5.29433C4.64697 4.42062 4.99403 3.5827 5.6118 2.96489C6.22956 2.34708 7.06744 2 7.94109 2H40.8823C41.7559 2 42.5938 2.34708 43.2116 2.96489C43.8293 3.5827 44.1764 4.42062 44.1764 5.29433Z"
            fill="#747474"
            stroke="#C5C5C5"
            strokeWidth="3.29412"
          />
          <rect
            x="0.529297"
            y="13.5293"
            width="46.9412"
            height="15.6471"
            rx="3.29412"
            fill="#C5C5C5"
          />
          <path
            d="M25.1357 22.958H23.3926C23.3971 22.5479 23.429 22.1947 23.4883 21.8984C23.5521 21.5977 23.6592 21.3265 23.8096 21.085C23.9645 20.8434 24.1696 20.6042 24.4248 20.3672C24.639 20.1758 24.8258 19.9935 24.9854 19.8203C25.1449 19.6471 25.2702 19.4694 25.3613 19.2871C25.4525 19.1003 25.498 18.8929 25.498 18.665C25.498 18.4007 25.457 18.182 25.375 18.0088C25.2975 17.8311 25.179 17.6966 25.0195 17.6055C24.8646 17.5143 24.6686 17.4688 24.4316 17.4688C24.2357 17.4688 24.0534 17.512 23.8848 17.5986C23.7161 17.6807 23.5771 17.8083 23.4678 17.9814C23.363 18.1546 23.3083 18.3825 23.3037 18.665H21.3213C21.335 18.0407 21.4785 17.5257 21.752 17.1201C22.0299 16.71 22.4014 16.4069 22.8662 16.2109C23.3311 16.0104 23.8529 15.9102 24.4316 15.9102C25.0697 15.9102 25.6165 16.015 26.0723 16.2246C26.528 16.4297 26.8766 16.7327 27.1182 17.1338C27.3597 17.5303 27.4805 18.0133 27.4805 18.583C27.4805 18.9795 27.403 19.3327 27.248 19.6426C27.0931 19.9479 26.8903 20.2327 26.6396 20.4971C26.389 20.7614 26.1133 21.0348 25.8125 21.3174C25.5527 21.5498 25.375 21.7936 25.2793 22.0488C25.1882 22.304 25.1403 22.6071 25.1357 22.958ZM23.1875 25.0703C23.1875 24.7786 23.2878 24.5371 23.4883 24.3457C23.6888 24.1497 23.9577 24.0518 24.2949 24.0518C24.6276 24.0518 24.8942 24.1497 25.0947 24.3457C25.2998 24.5371 25.4023 24.7786 25.4023 25.0703C25.4023 25.3529 25.2998 25.5921 25.0947 25.7881C24.8942 25.984 24.6276 26.082 24.2949 26.082C23.9577 26.082 23.6888 25.984 23.4883 25.7881C23.2878 25.5921 23.1875 25.3529 23.1875 25.0703Z"
            fill="#747474"
          />
        </svg>