<svg width="70" height="50" viewBox="0 10 80 20" fill="none" xmlns="http://www.w3.org/2000/svg">
<path d="M60.1764 5.29433V17.3948C60.1764 35.8452 44.5664 41.9664 41.4411 43.0062C40.7736 43.2332 40.0498 43.2332 39.3823 43.0062C36.2529 41.9664 20.647 35.8452 20.647 17.3948V5.29433C20.647 4.42062 20.994 3.5827 21.6118 2.96489C22.2296 2.34708 23.0674 2 23.9411 2H56.8823C57.7559 2 58.5938 2.34708 59.2116 2.96489C59.8293 3.5827 60.1764 4.42062 60.1764 5.29433Z" fill="url(#paint0_linear_37_1351)" stroke="white" stroke-width="3.29412"/>
<rect x="16.647" y="12" width="47.7647" height="11.2941" rx="3.29412" fill="white"/>
<path d="M31.2175 17.3384H30.1287C30.1088 17.1975 30.0682 17.0724 30.0069 16.963C29.9456 16.852 29.8669 16.7575 29.7708 16.6796C29.6747 16.6018 29.5636 16.5421 29.4377 16.5007C29.3134 16.4592 29.1783 16.4385 29.0325 16.4385C28.769 16.4385 28.5395 16.504 28.3439 16.6349C28.1484 16.7642 27.9967 16.9531 27.889 17.2017C27.7813 17.4486 27.7275 17.7485 27.7275 18.1015C27.7275 18.4644 27.7813 18.7694 27.889 19.0163C27.9984 19.2632 28.1509 19.4496 28.3464 19.5756C28.542 19.7015 28.7682 19.7645 29.025 19.7645C29.1692 19.7645 29.3026 19.7455 29.4252 19.7073C29.5495 19.6692 29.6597 19.6137 29.7559 19.5408C29.852 19.4662 29.9315 19.3759 29.9945 19.2698C30.0591 19.1638 30.1039 19.0428 30.1287 18.9069L31.2175 18.9119C31.1893 19.1456 31.1189 19.3709 31.0062 19.588C30.8952 19.8035 30.7452 19.9965 30.5563 20.1672C30.369 20.3362 30.1453 20.4705 29.8851 20.5699C29.6266 20.6677 29.3341 20.7166 29.0076 20.7166C28.5536 20.7166 28.1475 20.6138 27.7896 20.4083C27.4333 20.2028 27.1516 19.9054 26.9444 19.5159C26.7389 19.1265 26.6362 18.655 26.6362 18.1015C26.6362 17.5464 26.7406 17.0741 26.9494 16.6846C27.1582 16.2952 27.4416 15.9985 27.7995 15.7947C28.1575 15.5892 28.5602 15.4865 29.0076 15.4865C29.3026 15.4865 29.5761 15.5279 29.8279 15.6108C30.0815 15.6936 30.306 15.8146 30.5016 15.9737C30.6971 16.1311 30.8562 16.3242 30.9789 16.5529C31.1032 16.7816 31.1827 17.0434 31.2175 17.3384ZM33.0284 18.4396V20.647H31.9695V15.5561H32.9986V17.5024H33.0433C33.1295 17.2771 33.2687 17.1006 33.4609 16.973C33.6532 16.8437 33.8943 16.7791 34.1843 16.7791C34.4495 16.7791 34.6806 16.8371 34.8778 16.9531C35.0767 17.0674 35.2308 17.2323 35.3402 17.4478C35.4512 17.6615 35.5059 17.9176 35.5043 18.2159V20.647H34.4453V18.4048C34.447 18.1695 34.3873 17.9863 34.2663 17.8554C34.147 17.7245 33.9796 17.659 33.7642 17.659C33.62 17.659 33.4924 17.6897 33.3814 17.751C33.272 17.8123 33.1858 17.9018 33.1229 18.0195C33.0616 18.1355 33.0301 18.2755 33.0284 18.4396ZM38.0777 20.7215C37.6849 20.7215 37.3469 20.642 37.0635 20.4829C36.7818 20.3222 36.5647 20.0951 36.4122 19.8018C36.2597 19.5068 36.1835 19.158 36.1835 18.7553C36.1835 18.3625 36.2597 18.0178 36.4122 17.7212C36.5647 17.4246 36.7793 17.1934 37.056 17.0277C37.3344 16.8619 37.6609 16.7791 38.0354 16.7791C38.2873 16.7791 38.5218 16.8197 38.7389 16.9009C38.9577 16.9804 39.1482 17.1006 39.3106 17.2613C39.4747 17.4221 39.6023 17.6242 39.6934 17.8679C39.7846 18.1098 39.8302 18.3932 39.8302 18.718V19.0088H36.6061V18.3526H38.8334C38.8334 18.2001 38.8002 18.0651 38.7339 17.9474C38.6676 17.8297 38.5757 17.7378 38.458 17.6715C38.342 17.6035 38.2069 17.5696 38.0528 17.5696C37.8921 17.5696 37.7496 17.6068 37.6253 17.6814C37.5026 17.7543 37.4065 17.8529 37.3369 17.9772C37.2673 18.0999 37.2317 18.2366 37.23 18.3874V19.0113C37.23 19.2002 37.2648 19.3635 37.3344 19.501C37.4057 19.6386 37.5059 19.7446 37.6352 19.8192C37.7645 19.8938 37.9178 19.9311 38.0951 19.9311C38.2127 19.9311 38.3205 19.9145 38.4182 19.8813C38.516 19.8482 38.5997 19.7985 38.6693 19.7322C38.7389 19.6659 38.7919 19.5847 38.8284 19.4886L39.8078 19.5532C39.7581 19.7885 39.6562 19.994 39.502 20.1697C39.3496 20.3437 39.1524 20.4796 38.9104 20.5774C38.6701 20.6735 38.3925 20.7215 38.0777 20.7215ZM41.5802 18.4396V20.647H40.5212V16.8288H41.5305V17.5024H41.5752C41.6597 17.2804 41.8014 17.1047 42.0003 16.9755C42.1991 16.8445 42.4403 16.7791 42.7236 16.7791C42.9888 16.7791 43.22 16.8371 43.4172 16.9531C43.6144 17.0691 43.7677 17.2348 43.877 17.4502C43.9864 17.664 44.0411 17.9192 44.0411 18.2159V20.647H42.9822V18.4048C42.9838 18.1711 42.9242 17.9888 42.8032 17.8579C42.6822 17.7253 42.5157 17.659 42.3035 17.659C42.161 17.659 42.0351 17.6897 41.9257 17.751C41.818 17.8123 41.7335 17.9018 41.6721 18.0195C41.6125 18.1355 41.5818 18.2755 41.5802 18.4396ZM45.9347 18.4396V20.647H44.8757V16.8288H45.8849V17.5024H45.9297C46.0142 17.2804 46.1559 17.1047 46.3548 16.9755C46.5536 16.8445 46.7947 16.7791 47.0781 16.7791C47.3433 16.7791 47.5745 16.8371 47.7717 16.9531C47.9689 17.0691 48.1222 17.2348 48.2315 17.4502C48.3409 17.664 48.3956 17.9192 48.3956 18.2159V20.647H47.3366V18.4048C47.3383 18.1711 47.2786 17.9888 47.1577 17.8579C47.0367 17.7253 46.8701 17.659 46.658 17.659C46.5155 17.659 46.3896 17.6897 46.2802 17.751C46.1725 17.8123 46.0879 17.9018 46.0266 18.0195C45.967 18.1355 45.9363 18.2755 45.9347 18.4396ZM50.319 20.7191C50.0754 20.7191 49.8583 20.6768 49.6677 20.5923C49.4771 20.5061 49.3263 20.3793 49.2153 20.212C49.1059 20.0429 49.0512 19.8325 49.0512 19.5806C49.0512 19.3684 49.0902 19.1903 49.1681 19.0461C49.2459 18.9019 49.352 18.7859 49.4862 18.6981C49.6205 18.6103 49.7729 18.544 49.9436 18.4992C50.116 18.4545 50.2966 18.423 50.4855 18.4048C50.7076 18.3816 50.8866 18.36 51.0225 18.3402C51.1584 18.3186 51.257 18.2871 51.3183 18.2457C51.3796 18.2043 51.4102 18.1429 51.4102 18.0617V18.0468C51.4102 17.8894 51.3605 17.7676 51.2611 17.6814C51.1633 17.5952 51.0241 17.5522 50.8435 17.5522C50.6529 17.5522 50.5013 17.5944 50.3886 17.6789C50.2759 17.7618 50.2013 17.8662 50.1649 17.9921L49.1855 17.9126C49.2352 17.6806 49.3329 17.4801 49.4788 17.311C49.6246 17.1403 49.8127 17.0094 50.0431 16.9183C50.2751 16.8255 50.5435 16.7791 50.8485 16.7791C51.0606 16.7791 51.2636 16.8039 51.4575 16.8536C51.653 16.9034 51.8262 16.9804 51.977 17.0848C52.1295 17.1892 52.2496 17.3235 52.3374 17.4875C52.4253 17.6499 52.4692 17.8447 52.4692 18.0717V20.647H51.4649V20.1175H51.4351C51.3738 20.2368 51.2918 20.342 51.189 20.4332C51.0863 20.5227 50.9628 20.5931 50.8186 20.6445C50.6744 20.6942 50.5079 20.7191 50.319 20.7191ZM50.6222 19.9882C50.778 19.9882 50.9156 19.9576 51.0349 19.8963C51.1542 19.8333 51.2478 19.7488 51.3158 19.6427C51.3837 19.5367 51.4177 19.4165 51.4177 19.2823V18.8771C51.3846 18.8986 51.339 18.9185 51.281 18.9367C51.2246 18.9533 51.1608 18.9691 51.0896 18.984C51.0183 18.9972 50.9471 19.0097 50.8758 19.0213C50.8045 19.0312 50.7399 19.0403 50.6819 19.0486C50.5576 19.0668 50.4491 19.0958 50.3563 19.1356C50.2635 19.1754 50.1914 19.2292 50.14 19.2972C50.0886 19.3635 50.0629 19.4463 50.0629 19.5458C50.0629 19.6899 50.1151 19.8001 50.2195 19.8764C50.3256 19.9509 50.4598 19.9882 50.6222 19.9882ZM53.2907 20.647V16.8288H54.3497V20.647H53.2907ZM53.8227 16.3366C53.6653 16.3366 53.5302 16.2844 53.4175 16.18C53.3065 16.0739 53.251 15.9472 53.251 15.7997C53.251 15.6538 53.3065 15.5287 53.4175 15.4243C53.5302 15.3183 53.6653 15.2652 53.8227 15.2652C53.9801 15.2652 54.1144 15.3183 54.2254 15.4243C54.3381 15.5287 54.3944 15.6538 54.3944 15.7997C54.3944 15.9472 54.3381 16.0739 54.2254 16.18C54.1144 16.2844 53.9801 16.3366 53.8227 16.3366Z" fill="black"/>
<path d="M26.8252 53.8722H25.5443C25.5209 53.7065 25.4731 53.5593 25.401 53.4306C25.3288 53.3 25.2362 53.1888 25.1232 53.0972C25.0101 53.0056 24.8795 52.9354 24.7313 52.8866C24.5851 52.8379 24.4262 52.8135 24.2546 52.8135C23.9446 52.8135 23.6746 52.8905 23.4445 53.0446C23.2145 53.1966 23.0361 53.4189 22.9093 53.7113C22.7826 54.0018 22.7192 54.3547 22.7192 54.77C22.7192 55.197 22.7826 55.5557 22.9093 55.8462C23.038 56.1367 23.2174 56.356 23.4474 56.5042C23.6775 56.6524 23.9436 56.7265 24.2458 56.7265C24.4154 56.7265 24.5724 56.704 24.7167 56.6592C24.8629 56.6144 24.9925 56.549 25.1056 56.4633C25.2187 56.3755 25.3123 56.2693 25.3864 56.1445C25.4624 56.0197 25.515 55.8774 25.5443 55.7175L26.8252 55.7234C26.7921 55.9983 26.7092 56.2634 26.5766 56.5188C26.446 56.7723 26.2695 56.9994 26.0473 57.2002C25.827 57.3991 25.5638 57.557 25.2577 57.674C24.9535 57.789 24.6094 57.8465 24.2253 57.8465C23.6911 57.8465 23.2135 57.7257 22.7924 57.4839C22.3732 57.2421 22.0417 56.8922 21.798 56.434C21.5563 55.9759 21.4354 55.4212 21.4354 54.77C21.4354 54.1169 21.5582 53.5612 21.8039 53.1031C22.0495 52.6449 22.3829 52.2959 22.8041 52.0561C23.2252 51.8143 23.6989 51.6935 24.2253 51.6935C24.5724 51.6935 24.8941 51.7422 25.1904 51.8397C25.4887 51.9372 25.7529 52.0795 25.983 52.2667C26.213 52.4519 26.4002 52.679 26.5444 52.9481C26.6907 53.2171 26.7843 53.5251 26.8252 53.8722ZM27.7332 57.7646V51.7753H28.9995V54.2465H31.5701V51.7753H32.8335V57.7646H31.5701V55.2906H28.9995V57.7646H27.7332ZM33.8775 57.7646V51.7753H37.9133V52.8194H35.1438V54.2465H37.7057V55.2906H35.1438V56.7206H37.925V57.7646H33.8775ZM43.9297 51.7753V57.7646H42.8359L40.2302 53.995H40.1863V57.7646H38.9201V51.7753H40.0314L42.6166 55.5421H42.6692V51.7753H43.9297ZM49.9855 51.7753V57.7646H48.8918L46.2861 53.995H46.2422V57.7646H44.9759V51.7753H46.0872L48.6724 55.5421H48.7251V51.7753H49.9855ZM52.0641 57.7646H50.7071L52.7747 51.7753H54.4066L56.4712 57.7646H55.1143L53.614 53.144H53.5672L52.0641 57.7646ZM51.9793 55.4105H55.1845V56.3989H51.9793V55.4105ZM58.4584 51.7753V57.7646H57.1921V51.7753H58.4584Z" fill="white"/>
<defs>
<linearGradient id="paint0_linear_37_1351" x1="16.5293" y1="-9.94118" x2="63.0587" y2="35.7647" gradientUnits="userSpaceOnUse">
<stop offset="0.524614" stop-color="#FED405"/>
<stop offset="0.880817" stop-color="#5F99F2"/>
</linearGradient>
</defs>
</svg>
