<svg width="70" height="50" viewBox="0 10 80 20" fill="none" xmlns="http://www.w3.org/2000/svg">
<path d="M60.1764 5.29433V17.3948C60.1764 35.8452 44.5664 41.9664 41.4411 43.0062C40.7736 43.2332 40.0498 43.2332 39.3823 43.0062C36.2529 41.9664 20.647 35.8452 20.647 17.3948V5.29433C20.647 4.42062 20.994 3.5827 21.6118 2.96489C22.2296 2.34708 23.0674 2 23.9411 2H56.8823C57.7559 2 58.5938 2.34708 59.2116 2.96489C59.8293 3.5827 60.1764 4.42062 60.1764 5.29433Z" fill="url(#paint0_linear_12_11642)" stroke="white" stroke-width="3.29412"/>
<rect x="16.5293" y="13.5293" width="47.7647" height="11.2941" rx="3.29412" fill="white"/>
<path d="M33.9293 22.1763H32.1246V17.0854H33.9442C34.4563 17.0854 34.8971 17.1873 35.2666 17.3911C35.6362 17.5933 35.9204 17.8841 36.1193 18.2636C36.3198 18.6431 36.4201 19.0972 36.4201 19.6258C36.4201 20.1561 36.3198 20.6119 36.1193 20.993C35.9204 21.3742 35.6345 21.6667 35.2617 21.8705C34.8905 22.0744 34.4463 22.1763 33.9293 22.1763ZM33.2009 21.254H33.8845C34.2027 21.254 34.4704 21.1977 34.6875 21.085C34.9062 20.9707 35.0703 20.7942 35.1796 20.5555C35.2907 20.3152 35.3462 20.0053 35.3462 19.6258C35.3462 19.2497 35.2907 18.9422 35.1796 18.7036C35.0703 18.465 34.907 18.2893 34.6899 18.1766C34.4728 18.0639 34.2052 18.0076 33.887 18.0076H33.2009V21.254ZM38.9375 22.2508C38.5448 22.2508 38.2067 22.1713 37.9233 22.0122C37.6416 21.8515 37.4245 21.6244 37.2721 21.3311C37.1196 21.0361 37.0434 20.6873 37.0434 20.2846C37.0434 19.8918 37.1196 19.5471 37.2721 19.2505C37.4245 18.9539 37.6391 18.7227 37.9159 18.557C38.1943 18.3912 38.5208 18.3084 38.8953 18.3084C39.1472 18.3084 39.3817 18.349 39.5988 18.4302C39.8175 18.5097 40.0081 18.6299 40.1705 18.7906C40.3346 18.9514 40.4622 19.1535 40.5533 19.3972C40.6445 19.6391 40.69 19.9225 40.69 20.2473V20.5381H37.466V19.8819H39.6932C39.6932 19.7294 39.6601 19.5944 39.5938 19.4767C39.5275 19.359 39.4355 19.2671 39.3179 19.2008C39.2019 19.1328 39.0668 19.0989 38.9127 19.0989C38.7519 19.0989 38.6094 19.1361 38.4851 19.2107C38.3625 19.2836 38.2664 19.3822 38.1968 19.5065C38.1272 19.6292 38.0915 19.7659 38.0899 19.9167V20.5406C38.0899 20.7295 38.1247 20.8928 38.1943 21.0303C38.2656 21.1679 38.3658 21.2739 38.4951 21.3485C38.6243 21.4231 38.7776 21.4604 38.9549 21.4604C39.0726 21.4604 39.1803 21.4438 39.2781 21.4106C39.3759 21.3775 39.4596 21.3278 39.5292 21.2615C39.5988 21.1952 39.6518 21.114 39.6883 21.0179L40.6677 21.0825C40.6179 21.3178 40.516 21.5233 40.3619 21.699C40.2094 21.873 40.0122 22.0089 39.7703 22.1067C39.53 22.2028 39.2524 22.2508 38.9375 22.2508ZM42.44 17.0854V22.1763H41.3811V17.0854H42.44ZM44.3473 19.9689V22.1763H43.2883V17.0854H44.3174V19.0317H44.3622C44.4483 18.8064 44.5876 18.6299 44.7798 18.5023C44.972 18.373 45.2131 18.3084 45.5032 18.3084C45.7683 18.3084 45.9995 18.3664 46.1967 18.4824C46.3956 18.5967 46.5497 18.7616 46.659 18.9771C46.7701 19.1908 46.8248 19.4469 46.8231 19.7452V22.1763H45.7642V19.9341C45.7658 19.6988 45.7062 19.5156 45.5852 19.3847C45.4659 19.2538 45.2985 19.1883 45.0831 19.1883C44.9389 19.1883 44.8113 19.219 44.7002 19.2803C44.5909 19.3416 44.5047 19.4311 44.4417 19.5488C44.3804 19.6648 44.3489 19.8048 44.3473 19.9689ZM47.6565 22.1763V18.3581H48.7154V22.1763H47.6565ZM48.1884 17.8659C48.031 17.8659 47.8959 17.8137 47.7832 17.7093C47.6722 17.6032 47.6167 17.4765 47.6167 17.329C47.6167 17.1831 47.6722 17.058 47.7832 16.9536C47.8959 16.8476 48.031 16.7945 48.1884 16.7945C48.3459 16.7945 48.4801 16.8476 48.5911 16.9536C48.7038 17.058 48.7602 17.1831 48.7602 17.329C48.7602 17.4765 48.7038 17.6032 48.5911 17.7093C48.4801 17.8137 48.3459 17.8659 48.1884 17.8659Z" fill="black"/>
<path d="M30.5641 57.7646H28.441V51.7753H30.5817C31.1841 51.7753 31.7027 51.8952 32.1375 52.1351C32.5723 52.3729 32.9066 52.7151 33.1406 53.1615C33.3765 53.608 33.4944 54.1422 33.4944 54.7641C33.4944 55.388 33.3765 55.9242 33.1406 56.3726C32.9066 56.821 32.5703 57.1651 32.1316 57.4049C31.6949 57.6447 31.1724 57.7646 30.5641 57.7646ZM29.7073 56.6797H30.5115C30.8858 56.6797 31.2007 56.6134 31.4561 56.4808C31.7134 56.3463 31.9065 56.1386 32.0351 55.8579C32.1658 55.5752 32.2311 55.2106 32.2311 54.7641C32.2311 54.3216 32.1658 53.9599 32.0351 53.6792C31.9065 53.3984 31.7144 53.1918 31.459 53.0592C31.2036 52.9266 30.8887 52.8603 30.5144 52.8603H29.7073V56.6797ZM34.4325 57.7646V51.7753H38.4682V52.8194H35.6988V54.2465H38.2606V55.2906H35.6988V56.7206H38.4799V57.7646H34.4325ZM39.475 57.7646V51.7753H40.7413V56.7206H43.3089V57.7646H39.475ZM44.1475 57.7646V51.7753H45.4138V54.2465H47.9844V51.7753H49.2478V57.7646H47.9844V55.2906H45.4138V57.7646H44.1475ZM51.5581 51.7753V57.7646H50.2918V51.7753H51.5581Z" fill="white"/>
<defs>
<linearGradient id="paint0_linear_12_11642" x1="16.5293" y1="-9.94118" x2="63.0587" y2="35.7647" gradientUnits="userSpaceOnUse">
<stop offset="0.600473" stop-color="#215DB3"/>
<stop offset="0.901093" stop-color="#282769"/>
</linearGradient>
</defs>
</svg>
