<svg width="70" height="50" viewBox="0 10 80 20" fill="none" xmlns="http://www.w3.org/2000/svg">
<path d="M60.1764 5.29433V17.3948C60.1764 35.8452 44.5664 41.9664 41.4411 43.0062C40.7736 43.2332 40.0498 43.2332 39.3823 43.0062C36.2529 41.9664 20.647 35.8452 20.647 17.3948V5.29433C20.647 4.42062 20.994 3.5827 21.6118 2.96489C22.2296 2.34708 23.0674 2 23.9411 2H56.8823C57.7559 2 58.5938 2.34708 59.2116 2.96489C59.8293 3.5827 60.1764 4.42062 60.1764 5.29433Z" fill="url(#paint0_linear_37_1350)" stroke="white" stroke-width="3.29412"/>
<rect x="16.647" y="12" width="47.7647" height="11.2941" rx="3.29412" fill="white"/>
<path d="M31.7557 17.2017C31.7209 17.0807 31.672 16.9738 31.609 16.881C31.546 16.7865 31.469 16.707 31.3778 16.6424C31.2884 16.5761 31.1856 16.5255 31.0696 16.4907C30.9553 16.4559 30.8285 16.4385 30.6893 16.4385C30.4291 16.4385 30.2004 16.5032 30.0032 16.6324C29.8076 16.7617 29.6552 16.9498 29.5458 17.1967C29.4364 17.442 29.3817 17.7419 29.3817 18.0965C29.3817 18.4512 29.4356 18.7528 29.5433 19.0014C29.651 19.25 29.8035 19.4397 30.0007 19.5706C30.1979 19.6999 30.4308 19.7645 30.6992 19.7645C30.9428 19.7645 31.1508 19.7214 31.3232 19.6353C31.4972 19.5474 31.6297 19.424 31.7209 19.2649C31.8137 19.1058 31.8601 18.9177 31.8601 18.7006L32.0788 18.7329H30.7663V17.9225H32.8967V18.5639C32.8967 19.0113 32.8022 19.3958 32.6133 19.7173C32.4244 20.0371 32.1642 20.284 31.8327 20.4581C31.5013 20.6304 31.1218 20.7166 30.6942 20.7166C30.217 20.7166 29.7977 20.6113 29.4364 20.4009C29.0752 20.1888 28.7934 19.888 28.5913 19.4985C28.3907 19.1074 28.2905 18.6434 28.2905 18.1065C28.2905 17.6938 28.3501 17.3259 28.4695 17.0028C28.5904 16.678 28.7595 16.4029 28.9766 16.1775C29.1937 15.9521 29.4464 15.7806 29.7347 15.663C30.0231 15.5453 30.3355 15.4865 30.6719 15.4865C30.9602 15.4865 31.2287 15.5287 31.4773 15.6132C31.7259 15.6961 31.9463 15.8138 32.1385 15.9662C32.3324 16.1187 32.4906 16.3001 32.6133 16.5106C32.7359 16.7194 32.8146 16.9498 32.8494 17.2017H31.7557ZM36.1338 19.0213V16.8288H37.1927V20.647H36.176V19.9534H36.1363C36.0501 20.1772 35.9068 20.357 35.7062 20.4929C35.5074 20.6287 35.2646 20.6967 34.9779 20.6967C34.7227 20.6967 34.4981 20.6387 34.3042 20.5227C34.1104 20.4067 33.9587 20.2418 33.8493 20.028C33.7416 19.8142 33.6869 19.5582 33.6853 19.2599V16.8288H34.7442V19.071C34.7459 19.2964 34.8064 19.4745 34.9257 19.6054C35.045 19.7363 35.2049 19.8018 35.4055 19.8018C35.5331 19.8018 35.6524 19.7728 35.7634 19.7148C35.8744 19.6551 35.9639 19.5673 36.0319 19.4513C36.1015 19.3353 36.1354 19.192 36.1338 19.0213ZM38.0398 16.8288H39.0987V20.8359C39.0987 21.1309 39.0407 21.3695 38.9247 21.5518C38.8087 21.7341 38.6422 21.8675 38.4251 21.952C38.2096 22.0365 37.9519 22.0788 37.652 22.0788C37.6155 22.0788 37.5807 22.078 37.5476 22.0763C37.5128 22.0763 37.4763 22.0755 37.4382 22.0738V21.246C37.4664 21.2477 37.4912 21.2485 37.5128 21.2485C37.5327 21.2502 37.5542 21.251 37.5774 21.251C37.7481 21.251 37.8674 21.2146 37.9354 21.1416C38.005 21.0704 38.0398 20.9627 38.0398 20.8185V16.8288ZM38.5668 16.3366C38.411 16.3366 38.2768 16.2844 38.1641 16.18C38.0514 16.0739 37.995 15.9472 37.995 15.7997C37.995 15.6538 38.0514 15.5287 38.1641 15.4243C38.2768 15.3183 38.411 15.2652 38.5668 15.2652C38.7259 15.2652 38.8609 15.3183 38.9719 15.4243C39.0846 15.5287 39.141 15.6538 39.141 15.7997C39.141 15.9472 39.0846 16.0739 38.9719 16.18C38.8609 16.2844 38.7259 16.3366 38.5668 16.3366ZM41.0358 20.7191C40.7922 20.7191 40.5751 20.6768 40.3845 20.5923C40.1939 20.5061 40.0431 20.3793 39.9321 20.212C39.8227 20.0429 39.768 19.8325 39.768 19.5806C39.768 19.3684 39.807 19.1903 39.8849 19.0461C39.9627 18.9019 40.0688 18.7859 40.203 18.6981C40.3373 18.6103 40.4897 18.544 40.6604 18.4992C40.8328 18.4545 41.0134 18.423 41.2023 18.4048C41.4244 18.3816 41.6034 18.36 41.7393 18.3402C41.8751 18.3186 41.9738 18.2871 42.0351 18.2457C42.0964 18.2043 42.127 18.1429 42.127 18.0617V18.0468C42.127 17.8894 42.0773 17.7676 41.9779 17.6814C41.8801 17.5952 41.7409 17.5522 41.5603 17.5522C41.3697 17.5522 41.2181 17.5944 41.1054 17.6789C40.9927 17.7618 40.9181 17.8662 40.8817 17.9921L39.9023 17.9126C39.952 17.6806 40.0497 17.4801 40.1956 17.311C40.3414 17.1403 40.5295 17.0094 40.7599 16.9183C40.9919 16.8255 41.2603 16.7791 41.5653 16.7791C41.7774 16.7791 41.9804 16.8039 42.1743 16.8536C42.3698 16.9034 42.543 16.9804 42.6938 17.0848C42.8463 17.1892 42.9664 17.3235 43.0542 17.4875C43.1421 17.6499 43.186 17.8447 43.186 18.0717V20.647H42.1817V20.1175H42.1519C42.0906 20.2368 42.0086 20.342 41.9058 20.4332C41.8031 20.5227 41.6796 20.5931 41.5354 20.6445C41.3912 20.6942 41.2247 20.7191 41.0358 20.7191ZM41.339 19.9882C41.4948 19.9882 41.6324 19.9576 41.7517 19.8963C41.871 19.8333 41.9646 19.7488 42.0326 19.6427C42.1005 19.5367 42.1345 19.4165 42.1345 19.2823V18.8771C42.1014 18.8986 42.0558 18.9185 41.9978 18.9367C41.9414 18.9533 41.8776 18.9691 41.8064 18.984C41.7351 18.9972 41.6639 19.0097 41.5926 19.0213C41.5213 19.0312 41.4567 19.0403 41.3987 19.0486C41.2744 19.0668 41.1659 19.0958 41.0731 19.1356C40.9803 19.1754 40.9082 19.2292 40.8568 19.2972C40.8054 19.3635 40.7797 19.4463 40.7797 19.5458C40.7797 19.6899 40.8319 19.8001 40.9363 19.8764C41.0424 19.9509 41.1766 19.9882 41.339 19.9882ZM44.0075 20.647V16.8288H45.0342V17.495H45.074C45.1436 17.258 45.2604 17.079 45.4244 16.9581C45.5885 16.8354 45.7774 16.7741 45.9912 16.7741C46.0442 16.7741 46.1014 16.7774 46.1627 16.784C46.224 16.7907 46.2779 16.7998 46.3243 16.8114V17.751C46.2746 17.7361 46.2058 17.7228 46.118 17.7112C46.0302 17.6996 45.9498 17.6938 45.8769 17.6938C45.7211 17.6938 45.5819 17.7278 45.4593 17.7958C45.3383 17.8621 45.2422 17.9549 45.1709 18.0742C45.1013 18.1935 45.0665 18.331 45.0665 18.4868V20.647H44.0075ZM47.8512 20.7191C47.6076 20.7191 47.3905 20.6768 47.1999 20.5923C47.0094 20.5061 46.8585 20.3793 46.7475 20.212C46.6381 20.0429 46.5835 19.8325 46.5835 19.5806C46.5835 19.3684 46.6224 19.1903 46.7003 19.0461C46.7782 18.9019 46.8842 18.7859 47.0185 18.6981C47.1527 18.6103 47.3052 18.544 47.4759 18.4992C47.6482 18.4545 47.8288 18.423 48.0178 18.4048C48.2398 18.3816 48.4188 18.36 48.5547 18.3402C48.6906 18.3186 48.7892 18.2871 48.8505 18.2457C48.9118 18.2043 48.9425 18.1429 48.9425 18.0617V18.0468C48.9425 17.8894 48.8928 17.7676 48.7933 17.6814C48.6955 17.5952 48.5563 17.5522 48.3757 17.5522C48.1851 17.5522 48.0335 17.5944 47.9208 17.6789C47.8081 17.7618 47.7335 17.8662 47.6971 17.9921L46.7177 17.9126C46.7674 17.6806 46.8652 17.4801 47.011 17.311C47.1568 17.1403 47.3449 17.0094 47.5753 16.9183C47.8073 16.8255 48.0758 16.7791 48.3807 16.7791C48.5928 16.7791 48.7958 16.8039 48.9897 16.8536C49.1853 16.9034 49.3584 16.9804 49.5092 17.0848C49.6617 17.1892 49.7818 17.3235 49.8697 17.4875C49.9575 17.6499 50.0014 17.8447 50.0014 18.0717V20.647H48.9972V20.1175H48.9673C48.906 20.2368 48.824 20.342 48.7212 20.4332C48.6185 20.5227 48.495 20.5931 48.3509 20.6445C48.2067 20.6942 48.0401 20.7191 47.8512 20.7191ZM48.1545 19.9882C48.3103 19.9882 48.4478 19.9576 48.5671 19.8963C48.6864 19.8333 48.7801 19.7488 48.848 19.6427C48.916 19.5367 48.9499 19.4165 48.9499 19.2823V18.8771C48.9168 18.8986 48.8712 18.9185 48.8132 18.9367C48.7569 18.9533 48.6931 18.9691 48.6218 18.984C48.5505 18.9972 48.4793 19.0097 48.408 19.0213C48.3368 19.0312 48.2721 19.0403 48.2141 19.0486C48.0898 19.0668 47.9813 19.0958 47.8885 19.1356C47.7957 19.1754 47.7236 19.2292 47.6722 19.2972C47.6209 19.3635 47.5952 19.4463 47.5952 19.5458C47.5952 19.6899 47.6474 19.8001 47.7518 19.8764C47.8578 19.9509 47.9921 19.9882 48.1545 19.9882ZM52.8539 16.8288V17.6242H50.5545V16.8288H52.8539ZM51.0765 15.914H52.1355V19.4737C52.1355 19.5715 52.1504 19.6477 52.1802 19.7024C52.21 19.7554 52.2515 19.7927 52.3045 19.8142C52.3592 19.8358 52.4222 19.8465 52.4934 19.8465C52.5431 19.8465 52.5929 19.8424 52.6426 19.8341C52.6923 19.8242 52.7304 19.8167 52.7569 19.8117L52.9235 20.5997C52.8704 20.6163 52.7959 20.6354 52.6998 20.6569C52.6036 20.6801 52.4868 20.6942 52.3493 20.6992C52.094 20.7091 51.8703 20.6751 51.6781 20.5973C51.4875 20.5194 51.3392 20.3984 51.2331 20.2343C51.1271 20.0703 51.0749 19.8631 51.0765 19.6129V15.914Z" fill="black"/>
<path d="M24.7602 53.7113C24.7192 53.569 24.6617 53.4433 24.5876 53.3341C24.5135 53.223 24.4229 53.1294 24.3156 53.0533C24.2104 52.9753 24.0895 52.9159 23.953 52.8749C23.8185 52.834 23.6693 52.8135 23.5056 52.8135C23.1995 52.8135 22.9304 52.8896 22.6984 53.0416C22.4684 53.1937 22.289 53.415 22.1603 53.7055C22.0316 53.994 21.9673 54.3469 21.9673 54.7641C21.9673 55.1814 22.0307 55.5362 22.1574 55.8287C22.2841 56.1211 22.4635 56.3443 22.6955 56.4984C22.9275 56.6504 23.2014 56.7265 23.5173 56.7265C23.8039 56.7265 24.0485 56.6758 24.2513 56.5744C24.456 56.4711 24.612 56.3258 24.7192 56.1386C24.8284 55.9515 24.883 55.7302 24.883 55.4748L25.1403 55.5128H23.5962V54.5594H26.1025V55.3139C26.1025 55.8404 25.9914 56.2927 25.7691 56.6709C25.5468 57.0472 25.2407 57.3377 24.8508 57.5424C24.4609 57.7452 24.0144 57.8465 23.5114 57.8465C22.9499 57.8465 22.4567 57.7227 22.0316 57.4751C21.6066 57.2256 21.2752 56.8717 21.0373 56.4135C20.8014 55.9534 20.6835 55.4075 20.6835 54.7758C20.6835 54.2904 20.7536 53.8576 20.894 53.4774C21.0363 53.0953 21.2352 52.7716 21.4906 52.5065C21.746 52.2413 22.0433 52.0395 22.3826 51.9011C22.7218 51.7627 23.0893 51.6935 23.4851 51.6935C23.8243 51.6935 24.1402 51.7432 24.4326 51.8426C24.7251 51.9401 24.9844 52.0785 25.2105 52.2579C25.4386 52.4372 25.6248 52.6507 25.7691 52.8983C25.9134 53.144 26.006 53.415 26.0469 53.7113H24.7602ZM30.7531 51.7753H32.0194V55.6649C32.0194 56.1016 31.9151 56.4837 31.7065 56.8113C31.4998 57.1388 31.2103 57.3942 30.8379 57.5775C30.4655 57.7588 30.0318 57.8495 29.5365 57.8495C29.0394 57.8495 28.6046 57.7588 28.2322 57.5775C27.8598 57.3942 27.5703 57.1388 27.3637 56.8113C27.157 56.4837 27.0537 56.1016 27.0537 55.6649V51.7753H28.32V55.5567C28.32 55.7848 28.3697 55.9875 28.4691 56.165C28.5705 56.3424 28.7128 56.4818 28.8961 56.5832C29.0794 56.6845 29.2928 56.7352 29.5365 56.7352C29.7822 56.7352 29.9957 56.6845 30.177 56.5832C30.3603 56.4818 30.5016 56.3424 30.601 56.165C30.7024 55.9875 30.7531 55.7848 30.7531 55.5567V51.7753ZM35.4593 51.7753H36.711V55.9515C36.711 56.3375 36.6242 56.6728 36.4507 56.9575C36.2791 57.2421 36.0403 57.4615 35.7342 57.6155C35.4281 57.7695 35.0723 57.8465 34.6668 57.8465C34.3061 57.8465 33.9786 57.7832 33.6842 57.6564C33.3917 57.5278 33.1597 57.3328 32.9881 57.0716C32.8166 56.8083 32.7318 56.4779 32.7337 56.0802H33.9942C33.9981 56.2381 34.0302 56.3736 34.0907 56.4867C34.1531 56.5978 34.2379 56.6836 34.3451 56.744C34.4543 56.8025 34.583 56.8317 34.7311 56.8317C34.8871 56.8317 35.0187 56.7986 35.1259 56.7323C35.2351 56.6641 35.318 56.5646 35.3745 56.434C35.431 56.3034 35.4593 56.1425 35.4593 55.9515V51.7753ZM38.7903 57.7646H37.4333L39.5009 51.7753H41.1328L43.1975 57.7646H41.8405L40.3402 53.144H40.2935L38.7903 57.7646ZM38.7055 55.4105H41.9107V56.3989H38.7055V55.4105ZM43.9183 57.7646V51.7753H46.2813C46.7336 51.7753 47.1196 51.8563 47.4394 52.0181C47.7611 52.1779 48.0058 52.4051 48.1734 52.6995C48.343 52.9919 48.4279 53.336 48.4279 53.7318C48.4279 54.1295 48.3421 54.4717 48.1705 54.7583C47.9989 55.0429 47.7504 55.2613 47.4248 55.4134C47.1011 55.5655 46.7092 55.6415 46.2491 55.6415H44.667V54.6238H46.0444C46.2862 54.6238 46.487 54.5906 46.6469 54.5243C46.8067 54.4581 46.9257 54.3586 47.0036 54.226C47.0836 54.0935 47.1235 53.9287 47.1235 53.7318C47.1235 53.5329 47.0836 53.3653 47.0036 53.2288C46.9257 53.0923 46.8058 52.989 46.6439 52.9188C46.4841 52.8467 46.2823 52.8106 46.0386 52.8106H45.1846V57.7646H43.9183ZM47.1528 55.039L48.6413 57.7646H47.2434L45.7871 55.039H47.1528ZM50.3551 57.7646H48.9981L51.0657 51.7753H52.6976L54.7622 57.7646H53.4053L51.905 53.144H51.8583L50.3551 57.7646ZM50.2703 55.4105H53.4755V56.3989H50.2703V55.4105ZM54.5232 52.8194V51.7753H59.4421V52.8194H57.6085V57.7646H56.3568V52.8194H54.5232Z" fill="white"/>
<defs>
<linearGradient id="paint0_linear_37_1350" x1="16.5293" y1="-9.94118" x2="63.0587" y2="35.7647" gradientUnits="userSpaceOnUse">
<stop offset="0.5" stop-color="#1B2033"/>
<stop offset="1" stop-color="#F1DB86"/>
</linearGradient>
</defs>
</svg>
