<svg width="70" height="50" viewBox="0 10 80 20" fill="none" xmlns="http://www.w3.org/2000/svg">
<path d="M60.1764 5.29433V17.3948C60.1764 35.8452 44.5664 41.9664 41.4411 43.0062C40.7736 43.2332 40.0498 43.2332 39.3823 43.0062C36.2529 41.9664 20.647 35.8452 20.647 17.3948V5.29433C20.647 4.42062 20.994 3.5827 21.6118 2.96489C22.2296 2.34708 23.0674 2 23.9411 2H56.8823C57.7559 2 58.5938 2.34708 59.2116 2.96489C59.8293 3.5827 60.1764 4.42062 60.1764 5.29433Z" fill="url(#paint0_linear_36_1302)" stroke="white" stroke-width="3.29412"/>
<rect x="16.5293" y="13.5293" width="47.7647" height="11.2941" rx="3.29412" fill="white"/>
<path d="M22.0484 22.1763V17.0854H23.1248V19.1859H25.3098V17.0854H26.3837V22.1763H25.3098V20.0733H23.1248V22.1763H22.0484ZM27.905 23.6081C27.7707 23.6081 27.6448 23.5973 27.5271 23.5758C27.4111 23.5559 27.315 23.5302 27.2388 23.4987L27.4774 22.7082C27.6017 22.7463 27.7136 22.7671 27.813 22.7704C27.9141 22.7737 28.0011 22.7505 28.074 22.7008C28.1486 22.6511 28.2091 22.5665 28.2555 22.4472L28.3176 22.2856L26.9479 18.3581H28.0616L28.8521 21.1621H28.8918L29.6898 18.3581H30.8109L29.3268 22.5889C29.2556 22.7944 29.1586 22.9734 29.036 23.1258C28.915 23.28 28.7617 23.3985 28.5761 23.4813C28.3905 23.5658 28.1668 23.6081 27.905 23.6081ZM32.6367 22.2384C32.3467 22.2384 32.084 22.1638 31.8487 22.0147C31.615 21.8639 31.4294 21.6427 31.2919 21.351C31.156 21.0577 31.088 20.698 31.088 20.2722C31.088 19.8347 31.1585 19.4709 31.2993 19.1809C31.4402 18.8892 31.6274 18.6713 31.8611 18.5271C32.0964 18.3813 32.3541 18.3084 32.6342 18.3084C32.848 18.3084 33.0261 18.3448 33.1686 18.4177C33.3128 18.489 33.4288 18.5785 33.5166 18.6862C33.6061 18.7923 33.6741 18.8967 33.7205 18.9994H33.7528V17.0854H34.8093V22.1763H33.7652V21.5648H33.7205C33.6708 21.6708 33.6003 21.7761 33.5092 21.8805C33.4197 21.9832 33.3029 22.0686 33.1587 22.1365C33.0162 22.2044 32.8422 22.2384 32.6367 22.2384ZM32.9723 21.3957C33.1429 21.3957 33.2871 21.3493 33.4048 21.2565C33.5241 21.1621 33.6152 21.0303 33.6782 20.8613C33.7429 20.6922 33.7752 20.4942 33.7752 20.2672C33.7752 20.0401 33.7437 19.8429 33.6807 19.6756C33.6177 19.5082 33.5266 19.3789 33.4073 19.2878C33.288 19.1966 33.1429 19.1511 32.9723 19.1511C32.7983 19.1511 32.6516 19.1983 32.5323 19.2927C32.413 19.3872 32.3226 19.5181 32.2613 19.6855C32.2 19.8529 32.1693 20.0468 32.1693 20.2672C32.1693 20.4892 32.2 20.6856 32.2613 20.8563C32.3243 21.0253 32.4146 21.1579 32.5323 21.254C32.6516 21.3485 32.7983 21.3957 32.9723 21.3957ZM37.42 22.2508C37.0272 22.2508 36.6891 22.1713 36.4058 22.0122C36.124 21.8515 35.9069 21.6244 35.7545 21.3311C35.602 21.0361 35.5258 20.6873 35.5258 20.2846C35.5258 19.8918 35.602 19.5471 35.7545 19.2505C35.9069 18.9539 36.1216 18.7227 36.3983 18.557C36.6767 18.3912 37.0032 18.3084 37.3777 18.3084C37.6296 18.3084 37.8641 18.349 38.0812 18.4302C38.2999 18.5097 38.4905 18.6299 38.6529 18.7906C38.817 18.9514 38.9446 19.1535 39.0357 19.3972C39.1269 19.6391 39.1725 19.9225 39.1725 20.2473V20.5381H35.9484V19.8819H38.1756C38.1756 19.7294 38.1425 19.5944 38.0762 19.4767C38.0099 19.359 37.918 19.2671 37.8003 19.2008C37.6843 19.1328 37.5492 19.0989 37.3951 19.0989C37.2344 19.0989 37.0918 19.1361 36.9676 19.2107C36.8449 19.2836 36.7488 19.3822 36.6792 19.5065C36.6096 19.6292 36.574 19.7659 36.5723 19.9167V20.5406C36.5723 20.7295 36.6071 20.8928 36.6767 21.0303C36.748 21.1679 36.8482 21.2739 36.9775 21.3485C37.1068 21.4231 37.26 21.4604 37.4374 21.4604C37.555 21.4604 37.6627 21.4438 37.7605 21.4106C37.8583 21.3775 37.942 21.3278 38.0116 21.2615C38.0812 21.1952 38.1342 21.114 38.1707 21.0179L39.1501 21.0825C39.1004 21.3178 38.9984 21.5233 38.8443 21.699C38.6919 21.873 38.4947 22.0089 38.2527 22.1067C38.0124 22.2028 37.7348 22.2508 37.42 22.2508ZM39.8635 22.1763V18.3581H40.8901V19.0243H40.9299C40.9995 18.7873 41.1163 18.6083 41.2804 18.4873C41.4445 18.3647 41.6334 18.3034 41.8472 18.3034C41.9002 18.3034 41.9574 18.3067 42.0187 18.3133C42.08 18.32 42.1339 18.3291 42.1803 18.3407V19.2803C42.1305 19.2654 42.0618 19.2521 41.9739 19.2405C41.8861 19.2289 41.8057 19.2231 41.7328 19.2231C41.577 19.2231 41.4378 19.2571 41.3152 19.3251C41.1942 19.3913 41.0981 19.4842 41.0269 19.6035C40.9573 19.7228 40.9225 19.8603 40.9225 20.0161V22.1763H39.8635ZM43.7072 22.2484C43.4636 22.2484 43.2465 22.2061 43.0559 22.1216C42.8653 22.0354 42.7145 21.9086 42.6035 21.7413C42.4941 21.5722 42.4394 21.3618 42.4394 21.1099C42.4394 20.8977 42.4784 20.7196 42.5562 20.5754C42.6341 20.4312 42.7402 20.3152 42.8744 20.2274C43.0087 20.1396 43.1611 20.0733 43.3318 20.0285C43.5042 19.9838 43.6848 19.9523 43.8737 19.9341C44.0958 19.9109 44.2748 19.8893 44.4106 19.8695C44.5465 19.8479 44.6451 19.8164 44.7065 19.775C44.7678 19.7336 44.7984 19.6722 44.7984 19.591V19.5761C44.7984 19.4187 44.7487 19.2969 44.6493 19.2107C44.5515 19.1245 44.4123 19.0815 44.2317 19.0815C44.0411 19.0815 43.8895 19.1237 43.7768 19.2082C43.6641 19.2911 43.5895 19.3955 43.553 19.5214L42.5736 19.4419C42.6234 19.2099 42.7211 19.0094 42.867 18.8403C43.0128 18.6696 43.2009 18.5387 43.4312 18.4476C43.6632 18.3548 43.9317 18.3084 44.2366 18.3084C44.4488 18.3084 44.6518 18.3332 44.8457 18.3829C45.0412 18.4327 45.2144 18.5097 45.3652 18.6141C45.5177 18.7185 45.6378 18.8528 45.7256 19.0168C45.8135 19.1792 45.8574 19.3739 45.8574 19.601V22.1763H44.8531V21.6468H44.8233C44.762 21.7661 44.6799 21.8713 44.5772 21.9625C44.4744 22.052 44.351 22.1224 44.2068 22.1738C44.0626 22.2235 43.8961 22.2484 43.7072 22.2484ZM44.0104 21.5175C44.1662 21.5175 44.3038 21.4869 44.4231 21.4256C44.5424 21.3626 44.636 21.2781 44.704 21.172C44.7719 21.0659 44.8059 20.9458 44.8059 20.8116V20.4064C44.7727 20.4279 44.7272 20.4478 44.6692 20.466C44.6128 20.4826 44.549 20.4984 44.4778 20.5133C44.4065 20.5265 44.3352 20.539 44.264 20.5506C44.1927 20.5605 44.1281 20.5696 44.0701 20.5779C43.9458 20.5961 43.8373 20.6251 43.7445 20.6649C43.6516 20.7047 43.5796 20.7585 43.5282 20.8265C43.4768 20.8928 43.4511 20.9756 43.4511 21.0751C43.4511 21.2192 43.5033 21.3294 43.6077 21.4057C43.7138 21.4802 43.848 21.5175 44.0104 21.5175ZM46.6988 22.1763V17.0854H47.7578V18.9994H47.7901C47.8365 18.8967 47.9036 18.7923 47.9914 18.6862C48.0809 18.5785 48.1969 18.489 48.3394 18.4177C48.4836 18.3448 48.6626 18.3084 48.8764 18.3084C49.1548 18.3084 49.4117 18.3813 49.647 18.5271C49.8823 18.6713 50.0704 18.8892 50.2112 19.1809C50.3521 19.4709 50.4225 19.8347 50.4225 20.2722C50.4225 20.698 50.3538 21.0577 50.2162 21.351C50.0803 21.6427 49.8947 21.8639 49.6594 22.0147C49.4257 22.1638 49.1639 22.2384 48.8739 22.2384C48.6684 22.2384 48.4936 22.2044 48.3494 22.1365C48.2069 22.0686 48.09 21.9832 47.9989 21.8805C47.9077 21.7761 47.8381 21.6708 47.7901 21.5648H47.7429V22.1763H46.6988ZM47.7354 20.2672C47.7354 20.4942 47.7669 20.6922 47.8299 20.8613C47.8928 21.0303 47.984 21.1621 48.1033 21.2565C48.2226 21.3493 48.3676 21.3957 48.5383 21.3957C48.7107 21.3957 48.8565 21.3485 48.9758 21.254C49.0951 21.1579 49.1854 21.0253 49.2468 20.8563C49.3097 20.6856 49.3412 20.4892 49.3412 20.2672C49.3412 20.0468 49.3106 19.8529 49.2492 19.6855C49.1879 19.5181 49.0976 19.3872 48.9783 19.2927C48.859 19.1983 48.7123 19.1511 48.5383 19.1511C48.366 19.1511 48.2201 19.1966 48.1008 19.2878C47.9831 19.3789 47.8928 19.5082 47.8299 19.6756C47.7669 19.8429 47.7354 20.0401 47.7354 20.2672ZM52.2179 22.2484C51.9743 22.2484 51.7572 22.2061 51.5666 22.1216C51.3761 22.0354 51.2252 21.9086 51.1142 21.7413C51.0048 21.5722 50.9502 21.3618 50.9502 21.1099C50.9502 20.8977 50.9891 20.7196 51.067 20.5754C51.1449 20.4312 51.2509 20.3152 51.3852 20.2274C51.5194 20.1396 51.6719 20.0733 51.8426 20.0285C52.0149 19.9838 52.1955 19.9523 52.3845 19.9341C52.6065 19.9109 52.7855 19.8893 52.9214 19.8695C53.0573 19.8479 53.1559 19.8164 53.2172 19.775C53.2785 19.7336 53.3092 19.6722 53.3092 19.591V19.5761C53.3092 19.4187 53.2595 19.2969 53.16 19.2107C53.0622 19.1245 52.923 19.0815 52.7424 19.0815C52.5518 19.0815 52.4002 19.1237 52.2875 19.2082C52.1748 19.2911 52.1002 19.3955 52.0638 19.5214L51.0844 19.4419C51.1341 19.2099 51.2319 19.0094 51.3777 18.8403C51.5235 18.6696 51.7116 18.5387 51.942 18.4476C52.174 18.3548 52.4425 18.3084 52.7474 18.3084C52.9595 18.3084 53.1625 18.3332 53.3564 18.3829C53.552 18.4327 53.7251 18.5097 53.8759 18.6141C54.0284 18.7185 54.1485 18.8528 54.2364 19.0168C54.3242 19.1792 54.3681 19.3739 54.3681 19.601V22.1763H53.3639V21.6468H53.334C53.2727 21.7661 53.1907 21.8713 53.0879 21.9625C52.9852 22.052 52.8617 22.1224 52.7176 22.1738C52.5734 22.2235 52.4068 22.2484 52.2179 22.2484ZM52.5212 21.5175C52.677 21.5175 52.8145 21.4869 52.9338 21.4256C53.0531 21.3626 53.1468 21.2781 53.2147 21.172C53.2827 21.0659 53.3166 20.9458 53.3166 20.8116V20.4064C53.2835 20.4279 53.2379 20.4478 53.1799 20.466C53.1236 20.4826 53.0598 20.4984 52.9885 20.5133C52.9172 20.5265 52.846 20.539 52.7747 20.5506C52.7035 20.5605 52.6388 20.5696 52.5808 20.5779C52.4565 20.5961 52.348 20.6251 52.2552 20.6649C52.1624 20.7047 52.0903 20.7585 52.0389 20.8265C51.9876 20.8928 51.9619 20.9756 51.9619 21.0751C51.9619 21.2192 52.0141 21.3294 52.1185 21.4057C52.2245 21.4802 52.3588 21.5175 52.5212 21.5175ZM56.5966 22.2384C56.3066 22.2384 56.044 22.1638 55.8086 22.0147C55.575 21.8639 55.3894 21.6427 55.2518 21.351C55.1159 21.0577 55.048 20.698 55.048 20.2722C55.048 19.8347 55.1184 19.4709 55.2593 19.1809C55.4001 18.8892 55.5874 18.6713 55.8211 18.5271C56.0564 18.3813 56.3141 18.3084 56.5941 18.3084C56.8079 18.3084 56.9861 18.3448 57.1286 18.4177C57.2728 18.489 57.3888 18.5785 57.4766 18.6862C57.5661 18.7923 57.634 18.8967 57.6804 18.9994H57.7128V17.0854H58.7692V22.1763H57.7252V21.5648H57.6804C57.6307 21.6708 57.5603 21.7761 57.4691 21.8805C57.3797 21.9832 57.2628 22.0686 57.1187 22.1365C56.9761 22.2044 56.8021 22.2384 56.5966 22.2384ZM56.9322 21.3957C57.1029 21.3957 57.2471 21.3493 57.3647 21.2565C57.4841 21.1621 57.5752 21.0303 57.6382 20.8613C57.7028 20.6922 57.7351 20.4942 57.7351 20.2672C57.7351 20.0401 57.7036 19.8429 57.6407 19.6756C57.5777 19.5082 57.4866 19.3789 57.3672 19.2878C57.2479 19.1966 57.1029 19.1511 56.9322 19.1511C56.7582 19.1511 56.6116 19.1983 56.4922 19.2927C56.3729 19.3872 56.2826 19.5181 56.2213 19.6855C56.16 19.8529 56.1293 20.0468 56.1293 20.2672C56.1293 20.4892 56.16 20.6856 56.2213 20.8563C56.2843 21.0253 56.3746 21.1579 56.4922 21.254C56.6116 21.3485 56.7582 21.3957 56.9322 21.3957Z" fill="black"/>
<defs>
<linearGradient id="paint0_linear_36_1302" x1="16.5293" y1="-9.94118" x2="63.0587" y2="35.7647" gradientUnits="userSpaceOnUse">
<stop offset="0.600473" stop-color="#E55F0A"/>
<stop offset="0.772153" stop-color="#FBAE27"/>
</linearGradient>
</defs>
</svg>
