<svg width="70" height="50" viewBox="0 10 80 20" fill="none" xmlns="http://www.w3.org/2000/svg">
<path d="M60.1764 5.29433V17.3948C60.1764 35.8452 44.5664 41.9664 41.4411 43.0062C40.7736 43.2332 40.0498 43.2332 39.3823 43.0062C36.2529 41.9664 20.647 35.8452 20.647 17.3948V5.29433C20.647 4.42062 20.994 3.5827 21.6118 2.96489C22.2296 2.34708 23.0674 2 23.9411 2H56.8823C57.7559 2 58.5938 2.34708 59.2116 2.96489C59.8293 3.5827 60.1764 4.42062 60.1764 5.29433Z" fill="url(#paint0_linear_37_1349)" stroke="white" stroke-width="3.29412"/>
<rect x="16.647" y="12" width="47.7647" height="11.2941" rx="3.29412" fill="white"/>
<path d="M28.1407 20.647V15.5561H29.2171V17.8007H29.2842L31.1162 15.5561H32.4063L30.5171 17.8355L32.4287 20.647H31.1411L29.7465 18.5539L29.2171 19.2002V20.647H28.1407ZM34.3919 20.7215C34.0057 20.7215 33.6718 20.6395 33.3901 20.4755C33.11 20.3097 32.8938 20.0794 32.7413 19.7844C32.5888 19.4878 32.5126 19.1439 32.5126 18.7528C32.5126 18.3584 32.5888 18.0137 32.7413 17.7187C32.8938 17.4221 33.11 17.1917 33.3901 17.0277C33.6718 16.8619 34.0057 16.7791 34.3919 16.7791C34.778 16.7791 35.1111 16.8619 35.3912 17.0277C35.6729 17.1917 35.89 17.4221 36.0424 17.7187C36.1949 18.0137 36.2711 18.3584 36.2711 18.7528C36.2711 19.1439 36.1949 19.4878 36.0424 19.7844C35.89 20.0794 35.6729 20.3097 35.3912 20.4755C35.1111 20.6395 34.778 20.7215 34.3919 20.7215ZM34.3968 19.9012C34.5725 19.9012 34.7192 19.8515 34.8368 19.7521C34.9545 19.651 35.0431 19.5134 35.1028 19.3394C35.1641 19.1654 35.1948 18.9674 35.1948 18.7453C35.1948 18.5233 35.1641 18.3252 35.1028 18.1512C35.0431 17.9772 34.9545 17.8397 34.8368 17.7386C34.7192 17.6375 34.5725 17.587 34.3968 17.587C34.2195 17.587 34.0704 17.6375 33.9494 17.7386C33.8301 17.8397 33.7398 17.9772 33.6784 18.1512C33.6188 18.3252 33.589 18.5233 33.589 18.7453C33.589 18.9674 33.6188 19.1654 33.6784 19.3394C33.7398 19.5134 33.8301 19.651 33.9494 19.7521C34.0704 19.8515 34.2195 19.9012 34.3968 19.9012ZM38.0186 15.5561V20.647H36.9597V15.5561H38.0186ZM39.8264 19.5483L39.8289 18.278H39.983L41.2061 16.8288H42.4216L40.7785 18.7478H40.5274L39.8264 19.5483ZM38.8669 20.647V15.5561H39.9259V20.647H38.8669ZM41.2533 20.647L40.1297 18.984L40.8357 18.2358L42.4937 20.647H41.2533ZM44.0299 20.7191C43.7863 20.7191 43.5692 20.6768 43.3786 20.5923C43.1881 20.5061 43.0373 20.3793 42.9262 20.212C42.8169 20.0429 42.7622 19.8325 42.7622 19.5806C42.7622 19.3684 42.8011 19.1903 42.879 19.0461C42.9569 18.9019 43.0629 18.7859 43.1972 18.6981C43.3314 18.6103 43.4839 18.544 43.6546 18.4992C43.8269 18.4545 44.0075 18.423 44.1965 18.4048C44.4185 18.3816 44.5975 18.36 44.7334 18.3402C44.8693 18.3186 44.9679 18.2871 45.0292 18.2457C45.0905 18.2043 45.1212 18.1429 45.1212 18.0617V18.0468C45.1212 17.8894 45.0715 17.7676 44.972 17.6814C44.8743 17.5952 44.7351 17.5522 44.5544 17.5522C44.3638 17.5522 44.2122 17.5944 44.0995 17.6789C43.9868 17.7618 43.9123 17.8662 43.8758 17.9921L42.8964 17.9126C42.9461 17.6806 43.0439 17.4801 43.1897 17.311C43.3356 17.1403 43.5236 17.0094 43.754 16.9183C43.986 16.8255 44.2545 16.7791 44.5594 16.7791C44.7715 16.7791 44.9745 16.8039 45.1684 16.8536C45.364 16.9034 45.5371 16.9804 45.6879 17.0848C45.8404 17.1892 45.9606 17.3235 46.0484 17.4875C46.1362 17.6499 46.1801 17.8447 46.1801 18.0717V20.647H45.1759V20.1175H45.146C45.0847 20.2368 45.0027 20.342 44.8999 20.4332C44.7972 20.5227 44.6737 20.5931 44.5296 20.6445C44.3854 20.6942 44.2188 20.7191 44.0299 20.7191ZM44.3332 19.9882C44.489 19.9882 44.6265 19.9576 44.7458 19.8963C44.8651 19.8333 44.9588 19.7488 45.0267 19.6427C45.0947 19.5367 45.1286 19.4165 45.1286 19.2823V18.8771C45.0955 18.8986 45.0499 18.9185 44.9919 18.9367C44.9356 18.9533 44.8718 18.9691 44.8005 18.984C44.7293 18.9972 44.658 19.0097 44.5867 19.0213C44.5155 19.0312 44.4508 19.0403 44.3928 19.0486C44.2686 19.0668 44.16 19.0958 44.0672 19.1356C43.9744 19.1754 43.9023 19.2292 43.8509 19.2972C43.7996 19.3635 43.7739 19.4463 43.7739 19.5458C43.7739 19.6899 43.8261 19.8001 43.9305 19.8764C44.0365 19.9509 44.1708 19.9882 44.3332 19.9882ZM49.0326 16.8288V17.6242H46.7332V16.8288H49.0326ZM47.2552 15.914H48.3142V19.4737C48.3142 19.5715 48.3291 19.6477 48.3589 19.7024C48.3888 19.7554 48.4302 19.7927 48.4832 19.8142C48.5379 19.8358 48.6009 19.8465 48.6721 19.8465C48.7219 19.8465 48.7716 19.8424 48.8213 19.8341C48.871 19.8242 48.9091 19.8167 48.9356 19.8117L49.1022 20.5997C49.0492 20.6163 48.9746 20.6354 48.8785 20.6569C48.7823 20.6801 48.6655 20.6942 48.528 20.6992C48.2728 20.7091 48.049 20.6751 47.8568 20.5973C47.6662 20.5194 47.5179 20.3984 47.4118 20.2343C47.3058 20.0703 47.2536 19.8631 47.2552 19.6129V15.914ZM50.8112 20.7191C50.5676 20.7191 50.3505 20.6768 50.1599 20.5923C49.9693 20.5061 49.8185 20.3793 49.7075 20.212C49.5981 20.0429 49.5434 19.8325 49.5434 19.5806C49.5434 19.3684 49.5824 19.1903 49.6602 19.0461C49.7381 18.9019 49.8442 18.7859 49.9784 18.6981C50.1127 18.6103 50.2651 18.544 50.4358 18.4992C50.6082 18.4545 50.7888 18.423 50.9777 18.4048C51.1998 18.3816 51.3788 18.36 51.5146 18.3402C51.6505 18.3186 51.7491 18.2871 51.8105 18.2457C51.8718 18.2043 51.9024 18.1429 51.9024 18.0617V18.0468C51.9024 17.8894 51.8527 17.7676 51.7533 17.6814C51.6555 17.5952 51.5163 17.5522 51.3357 17.5522C51.1451 17.5522 50.9935 17.5944 50.8808 17.6789C50.7681 17.7618 50.6935 17.8662 50.657 17.9921L49.6776 17.9126C49.7274 17.6806 49.8251 17.4801 49.971 17.311C50.1168 17.1403 50.3049 17.0094 50.5352 16.9183C50.7673 16.8255 51.0357 16.7791 51.3406 16.7791C51.5528 16.7791 51.7558 16.8039 51.9497 16.8536C52.1452 16.9034 52.3184 16.9804 52.4692 17.0848C52.6217 17.1892 52.7418 17.3235 52.8296 17.4875C52.9175 17.6499 52.9614 17.8447 52.9614 18.0717V20.647H51.9571V20.1175H51.9273C51.866 20.2368 51.7839 20.342 51.6812 20.4332C51.5785 20.5227 51.455 20.5931 51.3108 20.6445C51.1666 20.6942 51.0001 20.7191 50.8112 20.7191ZM51.1144 19.9882C51.2702 19.9882 51.4078 19.9576 51.5271 19.8963C51.6464 19.8333 51.74 19.7488 51.808 19.6427C51.8759 19.5367 51.9099 19.4165 51.9099 19.2823V18.8771C51.8767 18.8986 51.8312 18.9185 51.7732 18.9367C51.7168 18.9533 51.653 18.9691 51.5818 18.984C51.5105 18.9972 51.4392 19.0097 51.368 19.0213C51.2967 19.0312 51.2321 19.0403 51.1741 19.0486C51.0498 19.0668 50.9413 19.0958 50.8485 19.1356C50.7557 19.1754 50.6836 19.2292 50.6322 19.2972C50.5808 19.3635 50.5551 19.4463 50.5551 19.5458C50.5551 19.6899 50.6073 19.8001 50.7117 19.8764C50.8178 19.9509 50.952 19.9882 51.1144 19.9882Z" fill="black"/>
<path d="M21.2753 57.7646V51.7753H22.5416V54.4161H22.6205L24.7759 51.7753H26.2937L24.0711 54.4571L26.32 57.7646H24.8051L23.1645 55.3022L22.5416 56.0626V57.7646H21.2753ZM32.1192 54.77C32.1192 55.4231 31.9954 55.9788 31.7478 56.4369C31.5021 56.8951 31.1668 57.2451 30.7418 57.4868C30.3187 57.7266 29.843 57.8465 29.3146 57.8465C28.7824 57.8465 28.3047 57.7257 27.8817 57.4839C27.4586 57.2421 27.1242 56.8922 26.8786 56.434C26.6329 55.9759 26.5101 55.4212 26.5101 54.77C26.5101 54.1169 26.6329 53.5612 26.8786 53.1031C27.1242 52.6449 27.4586 52.2959 27.8817 52.0561C28.3047 51.8143 28.7824 51.6935 29.3146 51.6935C29.843 51.6935 30.3187 51.8143 30.7418 52.0561C31.1668 52.2959 31.5021 52.6449 31.7478 53.1031C31.9954 53.5612 32.1192 54.1169 32.1192 54.77ZM30.8354 54.77C30.8354 54.3469 30.772 53.9901 30.6453 53.6996C30.5205 53.4091 30.3441 53.1888 30.116 53.0387C29.8878 52.8886 29.6207 52.8135 29.3146 52.8135C29.0086 52.8135 28.7415 52.8886 28.5133 53.0387C28.2852 53.1888 28.1078 53.4091 27.9811 53.6996C27.8563 53.9901 27.7939 54.3469 27.7939 54.77C27.7939 55.1931 27.8563 55.5499 27.9811 55.8404C28.1078 56.1308 28.2852 56.3512 28.5133 56.5013C28.7415 56.6514 29.0086 56.7265 29.3146 56.7265C29.6207 56.7265 29.8878 56.6514 30.116 56.5013C30.3441 56.3512 30.5205 56.1308 30.6453 55.8404C30.772 55.5499 30.8354 55.1931 30.8354 54.77ZM33.0572 57.7646V51.7753H34.3235V56.7206H36.8912V57.7646H33.0572ZM37.7298 57.7646V51.7753H38.9961V54.4161H39.0751L41.2304 51.7753H42.7482L40.5256 54.4571L42.7745 57.7646H41.2596L39.619 55.3022L38.9961 56.0626V57.7646H37.7298ZM44.44 57.7646H43.083L45.1506 51.7753H46.7825L48.8472 57.7646H47.4902L45.99 53.144H45.9432L44.44 57.7646ZM44.3552 55.4105H47.5604V56.3989H44.3552V55.4105ZM48.6081 52.8194V51.7753H53.527V52.8194H51.6934V57.7646H50.4417V52.8194H48.6081ZM54.6376 57.7646H53.2806L55.3482 51.7753H56.9801L59.0448 57.7646H57.6878L56.1876 53.144H56.1408L54.6376 57.7646ZM54.5528 55.4105H57.758V56.3989H54.5528V55.4105Z" fill="white"/>
<defs>
<linearGradient id="paint0_linear_37_1349" x1="16.5293" y1="-9.94118" x2="63.0587" y2="35.7647" gradientUnits="userSpaceOnUse">
<stop offset="0.65069" stop-color="#38235E"/>
<stop offset="1" stop-color="#F2BA31"/>
</linearGradient>
</defs>
</svg>
