<svg width="70" height="50" viewBox="0 10 80 20" fill="none" xmlns="http://www.w3.org/2000/svg">
<path d="M60.1764 5.29433V17.3948C60.1764 35.8452 44.5664 41.9664 41.4411 43.0062C40.7736 43.2332 40.0498 43.2332 39.3823 43.0062C36.2529 41.9664 20.647 35.8452 20.647 17.3948V5.29433C20.647 4.42062 20.994 3.5827 21.6118 2.96489C22.2296 2.34708 23.0674 2 23.9411 2H56.8823C57.7559 2 58.5938 2.34708 59.2116 2.96489C59.8293 3.5827 60.1764 4.42062 60.1764 5.29433Z" fill="url(#paint0_linear_54_6934)" stroke="white" stroke-width="3.29412"/>
<rect x="16.647" y="12" width="47.7647" height="11.2941" rx="3.29412" fill="white"/>
<path d="M25.4644 20.647V15.5561H26.5408V19.7595H28.7233V20.647H25.4644ZM31.8647 19.0213V16.8288H32.9237V20.647H31.907V19.9534H31.8672C31.7811 20.1772 31.6377 20.357 31.4372 20.4929C31.2383 20.6287 30.9955 20.6967 30.7089 20.6967C30.4536 20.6967 30.2291 20.6387 30.0352 20.5227C29.8413 20.4067 29.6897 20.2418 29.5803 20.028C29.4726 19.8142 29.4179 19.5582 29.4162 19.2599V16.8288H30.4752V19.071C30.4768 19.2964 30.5373 19.4745 30.6566 19.6054C30.776 19.7363 30.9359 19.8018 31.1364 19.8018C31.264 19.8018 31.3833 19.7728 31.4944 19.7148C31.6054 19.6551 31.6949 19.5673 31.7628 19.4513C31.8324 19.3353 31.8664 19.192 31.8647 19.0213ZM35.4959 20.7215C35.1048 20.7215 34.7684 20.6387 34.4866 20.473C34.2066 20.3056 33.9911 20.0736 33.8403 19.7769C33.6912 19.4803 33.6166 19.1389 33.6166 18.7528C33.6166 18.3617 33.692 18.0187 33.8428 17.7237C33.9953 17.427 34.2115 17.1959 34.4916 17.0301C34.7717 16.8628 35.1048 16.7791 35.4909 16.7791C35.824 16.7791 36.1157 16.8396 36.3659 16.9605C36.6161 17.0815 36.8142 17.2514 36.96 17.4701C37.1058 17.6889 37.1862 17.9457 37.2011 18.2407H36.2018C36.1737 18.0501 36.0991 17.8969 35.9781 17.7809C35.8588 17.6632 35.7022 17.6044 35.5083 17.6044C35.3442 17.6044 35.2009 17.6491 35.0783 17.7386C34.9573 17.8264 34.8628 17.9549 34.7949 18.1239C34.7269 18.2929 34.693 18.4976 34.693 18.7379C34.693 18.9815 34.7261 19.1886 34.7924 19.3593C34.8603 19.53 34.9556 19.6601 35.0783 19.7496C35.2009 19.8391 35.3442 19.8838 35.5083 19.8838C35.6293 19.8838 35.7378 19.859 35.8339 19.8093C35.9317 19.7595 36.0121 19.6875 36.0751 19.593C36.1397 19.4969 36.182 19.3817 36.2018 19.2475H37.2011C37.1846 19.5391 37.105 19.796 36.9625 20.0181C36.8216 20.2385 36.6269 20.4108 36.3783 20.5351C36.1297 20.6594 35.8356 20.7215 35.4959 20.7215ZM38.8386 19.5483L38.8411 18.278H38.9953L40.2183 16.8288H41.4338L39.7907 18.7478H39.5396L38.8386 19.5483ZM37.8791 20.647V15.5561H38.9381V20.647H37.8791ZM40.2655 20.647L39.1419 18.984L39.8479 18.2358L41.5059 20.647H40.2655ZM43.0123 18.4396V20.647H41.9533V16.8288H42.9626V17.5024H43.0073C43.0918 17.2804 43.2335 17.1047 43.4324 16.9755C43.6313 16.8445 43.8724 16.7791 44.1558 16.7791C44.4209 16.7791 44.6521 16.8371 44.8493 16.9531C45.0465 17.0691 45.1998 17.2348 45.3092 17.4502C45.4185 17.664 45.4732 17.9192 45.4732 18.2159V20.647H44.4143V18.4048C44.4159 18.1711 44.3563 17.9888 44.2353 17.8579C44.1143 17.7253 43.9478 17.659 43.7357 17.659C43.5931 17.659 43.4672 17.6897 43.3578 17.751C43.2501 17.8123 43.1656 17.9018 43.1043 18.0195C43.0446 18.1355 43.014 18.2755 43.0123 18.4396ZM48.033 20.7215C47.6469 20.7215 47.3129 20.6395 47.0312 20.4755C46.7511 20.3097 46.5349 20.0794 46.3824 19.7844C46.23 19.4878 46.1537 19.1439 46.1537 18.7528C46.1537 18.3584 46.23 18.0137 46.3824 17.7187C46.5349 17.4221 46.7511 17.1917 47.0312 17.0277C47.3129 16.8619 47.6469 16.7791 48.033 16.7791C48.4191 16.7791 48.7522 16.8619 49.0323 17.0277C49.314 17.1917 49.5311 17.4221 49.6835 17.7187C49.836 18.0137 49.9122 18.3584 49.9122 18.7528C49.9122 19.1439 49.836 19.4878 49.6835 19.7844C49.5311 20.0794 49.314 20.3097 49.0323 20.4755C48.7522 20.6395 48.4191 20.7215 48.033 20.7215ZM48.038 19.9012C48.2136 19.9012 48.3603 19.8515 48.4779 19.7521C48.5956 19.651 48.6843 19.5134 48.7439 19.3394C48.8052 19.1654 48.8359 18.9674 48.8359 18.7453C48.8359 18.5233 48.8052 18.3252 48.7439 18.1512C48.6843 17.9772 48.5956 17.8397 48.4779 17.7386C48.3603 17.6375 48.2136 17.587 48.038 17.587C47.8606 17.587 47.7115 17.6375 47.5905 17.7386C47.4712 17.8397 47.3809 17.9772 47.3196 18.1512C47.2599 18.3252 47.2301 18.5233 47.2301 18.7453C47.2301 18.9674 47.2599 19.1654 47.3196 19.3394C47.3809 19.5134 47.4712 19.651 47.5905 19.7521C47.7115 19.8515 47.8606 19.9012 48.038 19.9012ZM51.2583 20.647L50.2192 16.8288H51.2906L51.8822 19.3941H51.917L52.5335 16.8288H53.585L54.2114 19.3792H54.2437L54.8254 16.8288H55.8943L54.8577 20.647H53.7366L53.0804 18.2457H53.0332L52.3769 20.647H51.2583Z" fill="black"/>
<defs>
<linearGradient id="paint0_linear_54_6934" x1="16.5293" y1="-9.94118" x2="63.0587" y2="35.7647" gradientUnits="userSpaceOnUse">
<stop offset="0.434545" stop-color="#02C8B8"/>
<stop offset="1" stop-color="#C3E0C4"/>
</linearGradient>
</defs>
</svg>
