<svg width="70" height="50" viewBox="0 10 80 20" fill="none" xmlns="http://www.w3.org/2000/svg">
<path d="M60.1764 5.29433V17.3948C60.1764 35.8452 44.5664 41.9664 41.4411 43.0062C40.7736 43.2332 40.0498 43.2332 39.3823 43.0062C36.2529 41.9664 20.647 35.8452 20.647 17.3948V5.29433C20.647 4.42062 20.994 3.5827 21.6118 2.96489C22.2296 2.34708 23.0674 2 23.9411 2H56.8823C57.7559 2 58.5938 2.34708 59.2116 2.96489C59.8293 3.5827 60.1764 4.42062 60.1764 5.29433Z" fill="url(#paint0_linear_54_6949)" stroke="white" stroke-width="3.29412"/>
<rect x="16.647" y="12" width="47.7647" height="11.2941" rx="3.29412" fill="white"/>
<path d="M27.1905 15.5561H28.5179L29.9199 18.9765H29.9796L31.3816 15.5561H32.709V20.647H31.665V17.3334H31.6227L30.3052 20.6221H29.5943L28.2768 17.321H28.2346V20.647H27.1905V15.5561ZM36.0244 19.0213V16.8288H37.0834V20.647H36.0667V19.9534H36.0269C35.9407 20.1772 35.7974 20.357 35.5969 20.4929C35.398 20.6287 35.1552 20.6967 34.8685 20.6967C34.6133 20.6967 34.3888 20.6387 34.1949 20.5227C34.001 20.4067 33.8493 20.2418 33.74 20.028C33.6323 19.8142 33.5776 19.5582 33.5759 19.2599V16.8288H34.6349V19.071C34.6365 19.2964 34.697 19.4745 34.8163 19.6054C34.9356 19.7363 35.0956 19.8018 35.2961 19.8018C35.4237 19.8018 35.543 19.7728 35.654 19.7148C35.7651 19.6551 35.8546 19.5673 35.9225 19.4513C35.9921 19.3353 36.0261 19.192 36.0244 19.0213ZM37.9304 20.647V16.8288H38.9396V17.5024H38.9844C39.0639 17.2787 39.1965 17.1022 39.3821 16.973C39.5677 16.8437 39.7898 16.7791 40.0483 16.7791C40.3101 16.7791 40.533 16.8445 40.717 16.9755C40.9009 17.1047 41.0236 17.2804 41.0849 17.5024H41.1246C41.2025 17.2837 41.3434 17.1089 41.5472 16.9779C41.7527 16.8454 41.9955 16.7791 42.2756 16.7791C42.6319 16.7791 42.921 16.8926 43.1431 17.1196C43.3668 17.345 43.4787 17.6648 43.4787 18.0791V20.647H42.4222V18.288C42.4222 18.0758 42.3659 17.9167 42.2532 17.8107C42.1405 17.7046 41.9996 17.6516 41.8306 17.6516C41.6384 17.6516 41.4884 17.7129 41.3807 17.8355C41.273 17.9565 41.2191 18.1164 41.2191 18.3153V20.647H40.1925V18.2656C40.1925 18.0783 40.1386 17.9292 40.0309 17.8181C39.9248 17.7071 39.7848 17.6516 39.6108 17.6516C39.4931 17.6516 39.3871 17.6814 39.2926 17.7411C39.1998 17.7991 39.1261 17.8811 39.0714 17.9872C39.0167 18.0916 38.9893 18.2142 38.9893 18.3551V20.647H37.9304ZM44.335 20.647V15.5561H45.394V17.4701H45.4263C45.4727 17.3674 45.5398 17.263 45.6277 17.1569C45.7172 17.0492 45.8332 16.9597 45.9757 16.8884C46.1199 16.8155 46.2988 16.7791 46.5126 16.7791C46.791 16.7791 47.0479 16.852 47.2832 16.9978C47.5185 17.142 47.7066 17.3599 47.8475 17.6516C47.9883 17.9416 48.0588 18.3054 48.0588 18.7429C48.0588 19.1688 47.99 19.5284 47.8525 19.8217C47.7166 20.1134 47.531 20.3346 47.2956 20.4854C47.062 20.6345 46.8001 20.7091 46.5101 20.7091C46.3046 20.7091 46.1298 20.6751 45.9856 20.6072C45.8431 20.5393 45.7263 20.4539 45.6351 20.3512C45.544 20.2468 45.4744 20.1415 45.4263 20.0355H45.3791V20.647H44.335ZM45.3716 18.7379C45.3716 18.9649 45.4031 19.163 45.4661 19.332C45.5291 19.501 45.6202 19.6328 45.7395 19.7272C45.8588 19.82 46.0038 19.8664 46.1745 19.8664C46.3469 19.8664 46.4927 19.8192 46.612 19.7247C46.7314 19.6286 46.8217 19.496 46.883 19.327C46.946 19.1563 46.9775 18.9599 46.9775 18.7379C46.9775 18.5175 46.9468 18.3236 46.8855 18.1562C46.8242 17.9888 46.7338 17.8579 46.6145 17.7634C46.4952 17.669 46.3485 17.6218 46.1745 17.6218C46.0022 17.6218 45.8564 17.6673 45.737 17.7585C45.6194 17.8496 45.5291 17.9789 45.4661 18.1463C45.4031 18.3136 45.3716 18.5108 45.3716 18.7379ZM49.8541 20.7191C49.6105 20.7191 49.3934 20.6768 49.2029 20.5923C49.0123 20.5061 48.8615 20.3793 48.7504 20.212C48.6411 20.0429 48.5864 19.8325 48.5864 19.5806C48.5864 19.3684 48.6253 19.1903 48.7032 19.0461C48.7811 18.9019 48.8872 18.7859 49.0214 18.6981C49.1556 18.6103 49.3081 18.544 49.4788 18.4992C49.6511 18.4545 49.8318 18.423 50.0207 18.4048C50.2427 18.3816 50.4217 18.36 50.5576 18.3402C50.6935 18.3186 50.7921 18.2871 50.8534 18.2457C50.9147 18.2043 50.9454 18.1429 50.9454 18.0617V18.0468C50.9454 17.8894 50.8957 17.7676 50.7963 17.6814C50.6985 17.5952 50.5593 17.5522 50.3786 17.5522C50.1881 17.5522 50.0364 17.5944 49.9237 17.6789C49.811 17.7618 49.7365 17.8662 49.7 17.9921L48.7206 17.9126C48.7703 17.6806 48.8681 17.4801 49.0139 17.311C49.1598 17.1403 49.3479 17.0094 49.5782 16.9183C49.8102 16.8255 50.0787 16.7791 50.3836 16.7791C50.5957 16.7791 50.7987 16.8039 50.9926 16.8536C51.1882 16.9034 51.3614 16.9804 51.5122 17.0848C51.6646 17.1892 51.7848 17.3235 51.8726 17.4875C51.9604 17.6499 52.0044 17.8447 52.0044 18.0717V20.647H51.0001V20.1175H50.9703C50.9089 20.2368 50.8269 20.342 50.7242 20.4332C50.6214 20.5227 50.498 20.5931 50.3538 20.6445C50.2096 20.6942 50.0431 20.7191 49.8541 20.7191ZM50.1574 19.9882C50.3132 19.9882 50.4507 19.9576 50.57 19.8963C50.6894 19.8333 50.783 19.7488 50.8509 19.6427C50.9189 19.5367 50.9529 19.4165 50.9529 19.2823V18.8771C50.9197 18.8986 50.8741 18.9185 50.8161 18.9367C50.7598 18.9533 50.696 18.9691 50.6247 18.984C50.5535 18.9972 50.4822 19.0097 50.411 19.0213C50.3397 19.0312 50.2751 19.0403 50.2171 19.0486C50.0928 19.0668 49.9842 19.0958 49.8914 19.1356C49.7986 19.1754 49.7265 19.2292 49.6752 19.2972C49.6238 19.3635 49.5981 19.4463 49.5981 19.5458C49.5981 19.6899 49.6503 19.8001 49.7547 19.8764C49.8608 19.9509 49.995 19.9882 50.1574 19.9882ZM52.8259 20.647V16.8288H53.8849V20.647H52.8259ZM53.3579 16.3366C53.2004 16.3366 53.0654 16.2844 52.9527 16.18C52.8416 16.0739 52.7861 15.9472 52.7861 15.7997C52.7861 15.6538 52.8416 15.5287 52.9527 15.4243C53.0654 15.3183 53.2004 15.2652 53.3579 15.2652C53.5153 15.2652 53.6495 15.3183 53.7606 15.4243C53.8733 15.5287 53.9296 15.6538 53.9296 15.7997C53.9296 15.9472 53.8733 16.0739 53.7606 16.18C53.6495 16.2844 53.5153 16.3366 53.3579 16.3366Z" fill="black"/>
<path d="M23.0245 51.7753H24.5862L26.2356 55.7994H26.3057L27.9551 51.7753H29.5168V57.7646H28.2885V53.8663H28.2388L26.6888 57.7354H25.8524L24.3025 53.8517H24.2528V57.7646H23.0245V51.7753ZM34.2596 51.7753H35.5258V55.6649C35.5258 56.1016 35.4215 56.4837 35.2129 56.8113C35.0063 57.1388 34.7167 57.3942 34.3444 57.5775C33.972 57.7588 33.5382 57.8495 33.043 57.8495C32.5458 57.8495 32.111 57.7588 31.7387 57.5775C31.3663 57.3942 31.0768 57.1388 30.8701 56.8113C30.6634 56.4837 30.5601 56.1016 30.5601 55.6649V51.7753H31.8264V55.5567C31.8264 55.7848 31.8761 55.9875 31.9755 56.165C32.0769 56.3424 32.2193 56.4818 32.4025 56.5832C32.5858 56.6845 32.7993 56.7352 33.043 56.7352C33.2886 56.7352 33.5021 56.6845 33.6834 56.5832C33.8667 56.4818 34.0081 56.3424 34.1075 56.165C34.2089 55.9875 34.2596 55.7848 34.2596 55.5567V51.7753ZM36.5677 51.7753H38.1294L39.7788 55.7994H39.8489L41.4983 51.7753H43.06V57.7646H41.8317V53.8663H41.782L40.232 57.7354H39.3956L37.8457 53.8517H37.796V57.7646H36.5677V51.7753ZM44.1033 57.7646V51.7753H46.5014C46.942 51.7753 47.3095 51.8407 47.6039 51.9713C47.8983 52.1019 48.1196 52.2832 48.2677 52.5152C48.4159 52.7453 48.49 53.0104 48.49 53.3107C48.49 53.5446 48.4432 53.7503 48.3496 53.9277C48.256 54.1032 48.1274 54.2475 47.9636 54.3606C47.8018 54.4717 47.6166 54.5507 47.408 54.5975V54.6559C47.6361 54.6657 47.8495 54.73 48.0484 54.849C48.2492 54.9679 48.412 55.1346 48.5368 55.349C48.6616 55.5616 48.724 55.815 48.724 56.1094C48.724 56.4272 48.645 56.7109 48.4871 56.9604C48.3311 57.208 48.1001 57.404 47.794 57.5482C47.4879 57.6925 47.1106 57.7646 46.6622 57.7646H44.1033ZM45.3696 56.7294H46.4019C46.7548 56.7294 47.0122 56.6621 47.174 56.5276C47.3358 56.3911 47.4167 56.2098 47.4167 55.9836C47.4167 55.8179 47.3768 55.6717 47.2968 55.545C47.2169 55.4183 47.1028 55.3188 46.9547 55.2467C46.8084 55.1745 46.6339 55.1385 46.4312 55.1385H45.3696V56.7294ZM45.3696 54.2816H46.3084C46.4819 54.2816 46.6359 54.2514 46.7704 54.191C46.9069 54.1286 47.0141 54.0408 47.0921 53.9277C47.172 53.8147 47.212 53.6792 47.212 53.5212C47.212 53.3048 47.135 53.1303 46.981 52.9978C46.8289 52.8652 46.6125 52.7989 46.3317 52.7989H45.3696V54.2816ZM50.5803 57.7646H49.2233L51.2909 51.7753H52.9228L54.9874 57.7646H53.6305L52.1302 53.144H52.0834L50.5803 57.7646ZM50.4955 55.4105H53.7007V56.3989H50.4955V55.4105ZM56.9746 51.7753V57.7646H55.7083V51.7753H56.9746Z" fill="white"/>
<defs>
<linearGradient id="paint0_linear_54_6949" x1="16.5293" y1="-9.94118" x2="63.0587" y2="35.7647" gradientUnits="userSpaceOnUse">
<stop offset="0.434545" stop-color="#0762EB"/>
<stop offset="1" stop-color="#F8D32C"/>
</linearGradient>
</defs>
</svg>
