<svg width="70" height="50" viewBox="0 10 80 20" fill="none" xmlns="http://www.w3.org/2000/svg">
<path d="M60.1764 5.29433V17.3948C60.1764 35.8452 44.5664 41.9664 41.4411 43.0062C40.7736 43.2332 40.0498 43.2332 39.3823 43.0062C36.2529 41.9664 20.647 35.8452 20.647 17.3948V5.29433C20.647 4.42062 20.994 3.5827 21.6118 2.96489C22.2296 2.34708 23.0674 2 23.9411 2H56.8823C57.7559 2 58.5938 2.34708 59.2116 2.96489C59.8293 3.5827 60.1764 4.42062 60.1764 5.29433Z" fill="url(#paint0_linear_37_1348)" stroke="white" stroke-width="3.29412"/>
<rect x="16.5293" y="13.5293" width="47.7647" height="11.2941" rx="3.29412" fill="white"/>
<path d="M29.0245 22.1763V17.0854H31.033C31.4192 17.0854 31.7481 17.1591 32.0199 17.3066C32.2917 17.4524 32.4988 17.6554 32.6413 17.9156C32.7855 18.1741 32.8576 18.4724 32.8576 18.8105C32.8576 19.1486 32.7847 19.4469 32.6388 19.7054C32.493 19.9639 32.2817 20.1653 32.005 20.3094C31.7299 20.4536 31.3968 20.5257 31.0057 20.5257H29.7255V19.6631H30.8317C31.0388 19.6631 31.2095 19.6275 31.3438 19.5562C31.4796 19.4833 31.5807 19.3831 31.647 19.2555C31.715 19.1262 31.7489 18.9779 31.7489 18.8105C31.7489 18.6415 31.715 18.494 31.647 18.368C31.5807 18.2404 31.4796 18.1418 31.3438 18.0722C31.2079 18.001 31.0355 17.9653 30.8267 17.9653H30.1009V22.1763H29.0245ZM35.9854 20.5506V18.3581H37.0443V22.1763H36.0276V21.4827H35.9878C35.9017 21.7065 35.7583 21.8863 35.5578 22.0222C35.3589 22.158 35.1162 22.226 34.8295 22.226C34.5742 22.226 34.3497 22.168 34.1558 22.052C33.9619 21.936 33.8103 21.7711 33.7009 21.5573C33.5932 21.3435 33.5385 21.0875 33.5368 20.7892V18.3581H34.5958V20.6003C34.5974 20.8257 34.6579 21.0038 34.7773 21.1347C34.8966 21.2656 35.0565 21.3311 35.257 21.3311C35.3846 21.3311 35.5039 21.3021 35.615 21.2441C35.726 21.1844 35.8155 21.0966 35.8834 20.9806C35.953 20.8646 35.987 20.7213 35.9854 20.5506ZM38.9503 19.9689V22.1763H37.8913V18.3581H38.9006V19.0317H38.9453C39.0298 18.8097 39.1715 18.634 39.3704 18.5047C39.5692 18.3738 39.8104 18.3084 40.0938 18.3084C40.3589 18.3084 40.5901 18.3664 40.7873 18.4824C40.9845 18.5984 41.1378 18.7641 41.2472 18.9795C41.3565 19.1933 41.4112 19.4485 41.4112 19.7452V22.1763H40.3523V19.9341C40.3539 19.7004 40.2943 19.5181 40.1733 19.3872C40.0523 19.2546 39.8858 19.1883 39.6737 19.1883C39.5311 19.1883 39.4052 19.219 39.2958 19.2803C39.1881 19.3416 39.1036 19.4311 39.0423 19.5488C38.9826 19.6648 38.9519 19.8048 38.9503 19.9689ZM42.2458 18.3581H43.3048V22.3652C43.3048 22.6602 43.2468 22.8988 43.1308 23.0811C43.0148 23.2634 42.8482 23.3968 42.6311 23.4813C42.4157 23.5658 42.158 23.6081 41.858 23.6081C41.8216 23.6081 41.7868 23.6073 41.7536 23.6056C41.7188 23.6056 41.6824 23.6048 41.6443 23.6031V22.7753C41.6724 22.777 41.6973 22.7778 41.7188 22.7778C41.7387 22.7795 41.7603 22.7803 41.7835 22.7803C41.9542 22.7803 42.0735 22.7439 42.1414 22.6709C42.211 22.5997 42.2458 22.492 42.2458 22.3478V18.3581ZM42.7728 17.8659C42.617 17.8659 42.4828 17.8137 42.3701 17.7093C42.2574 17.6032 42.2011 17.4765 42.2011 17.329C42.2011 17.1831 42.2574 17.058 42.3701 16.9536C42.4828 16.8476 42.617 16.7945 42.7728 16.7945C42.9319 16.7945 43.067 16.8476 43.178 16.9536C43.2907 17.058 43.347 17.1831 43.347 17.329C43.347 17.4765 43.2907 17.6032 43.178 17.7093C43.067 17.8137 42.9319 17.8659 42.7728 17.8659ZM45.2418 22.2484C44.9982 22.2484 44.7811 22.2061 44.5906 22.1216C44.4 22.0354 44.2492 21.9086 44.1381 21.7413C44.0288 21.5722 43.9741 21.3618 43.9741 21.1099C43.9741 20.8977 44.013 20.7196 44.0909 20.5754C44.1688 20.4312 44.2749 20.3152 44.4091 20.2274C44.5433 20.1396 44.6958 20.0733 44.8665 20.0285C45.0388 19.9838 45.2195 19.9523 45.4084 19.9341C45.6304 19.9109 45.8094 19.8893 45.9453 19.8695C46.0812 19.8479 46.1798 19.8164 46.2411 19.775C46.3024 19.7336 46.3331 19.6722 46.3331 19.591V19.5761C46.3331 19.4187 46.2834 19.2969 46.1839 19.2107C46.0862 19.1245 45.947 19.0815 45.7663 19.0815C45.5758 19.0815 45.4241 19.1237 45.3114 19.2082C45.1987 19.2911 45.1242 19.3955 45.0877 19.5214L44.1083 19.4419C44.158 19.2099 44.2558 19.0094 44.4016 18.8403C44.5475 18.6696 44.7356 18.5387 44.9659 18.4476C45.1979 18.3548 45.4664 18.3084 45.7713 18.3084C45.9834 18.3084 46.1864 18.3332 46.3803 18.3829C46.5759 18.4327 46.7491 18.5097 46.8999 18.6141C47.0523 18.7185 47.1725 18.8528 47.2603 19.0168C47.3481 19.1792 47.392 19.3739 47.392 19.601V22.1763H46.3878V21.6468H46.358C46.2966 21.7661 46.2146 21.8713 46.1119 21.9625C46.0091 22.052 45.8857 22.1224 45.7415 22.1738C45.5973 22.2235 45.4308 22.2484 45.2418 22.2484ZM45.5451 21.5175C45.7009 21.5175 45.8384 21.4869 45.9577 21.4256C46.0771 21.3626 46.1707 21.2781 46.2386 21.172C46.3066 21.0659 46.3406 20.9458 46.3406 20.8116V20.4064C46.3074 20.4279 46.2618 20.4478 46.2038 20.466C46.1475 20.4826 46.0837 20.4984 46.0124 20.5133C45.9412 20.5265 45.8699 20.539 45.7987 20.5506C45.7274 20.5605 45.6628 20.5696 45.6048 20.5779C45.4805 20.5961 45.3719 20.6251 45.2791 20.6649C45.1863 20.7047 45.1142 20.7585 45.0629 20.8265C45.0115 20.8928 44.9858 20.9756 44.9858 21.0751C44.9858 21.2192 45.038 21.3294 45.1424 21.4057C45.2485 21.4802 45.3827 21.5175 45.5451 21.5175ZM48.2335 22.1763V17.0854H49.2924V18.9994H49.3248C49.3712 18.8967 49.4383 18.7923 49.5261 18.6862C49.6156 18.5785 49.7316 18.489 49.8741 18.4177C50.0183 18.3448 50.1973 18.3084 50.411 18.3084C50.6895 18.3084 50.9463 18.3813 51.1816 18.5271C51.417 18.6713 51.6051 18.8892 51.7459 19.1809C51.8868 19.4709 51.9572 19.8347 51.9572 20.2722C51.9572 20.698 51.8884 21.0577 51.7509 21.351C51.615 21.6427 51.4294 21.8639 51.1941 22.0147C50.9604 22.1638 50.6986 22.2384 50.4086 22.2384C50.2031 22.2384 50.0282 22.2044 49.8841 22.1365C49.7415 22.0686 49.6247 21.9832 49.5336 21.8805C49.4424 21.7761 49.3728 21.6708 49.3248 21.5648H49.2775V22.1763H48.2335ZM49.2701 20.2672C49.2701 20.4942 49.3016 20.6922 49.3645 20.8613C49.4275 21.0303 49.5186 21.1621 49.638 21.2565C49.7573 21.3493 49.9023 21.3957 50.073 21.3957C50.2453 21.3957 50.3912 21.3485 50.5105 21.254C50.6298 21.1579 50.7201 21.0253 50.7814 20.8563C50.8444 20.6856 50.8759 20.4892 50.8759 20.2672C50.8759 20.0468 50.8452 19.8529 50.7839 19.6855C50.7226 19.5181 50.6323 19.3872 50.513 19.2927C50.3936 19.1983 50.247 19.1511 50.073 19.1511C49.9006 19.1511 49.7548 19.1966 49.6355 19.2878C49.5178 19.3789 49.4275 19.5082 49.3645 19.6756C49.3016 19.8429 49.2701 20.0401 49.2701 20.2672Z" fill="black"/>
<path d="M23.6719 57.7646V51.7753H26.0349C26.4891 51.7753 26.8761 51.8621 27.1959 52.0356C27.5156 52.2072 27.7593 52.446 27.927 52.7521C28.0966 53.0563 28.1814 53.4072 28.1814 53.8049C28.1814 54.2026 28.0956 54.5536 27.9241 54.8577C27.7525 55.1619 27.5039 55.3988 27.1783 55.5684C26.8547 55.738 26.4628 55.8228 26.0027 55.8228H24.4966V54.808H25.798C26.0417 54.808 26.2425 54.7661 26.4004 54.6823C26.5603 54.5965 26.6792 54.4785 26.7572 54.3284C26.8371 54.1763 26.8771 54.0018 26.8771 53.8049C26.8771 53.6061 26.8371 53.4325 26.7572 53.2844C26.6792 53.1342 26.5603 53.0182 26.4004 52.9364C26.2405 52.8525 26.0378 52.8106 25.7921 52.8106H24.9382V57.7646H23.6719ZM32.7034 51.7753H33.9697V55.6649C33.9697 56.1016 33.8654 56.4837 33.6567 56.8113C33.4501 57.1388 33.1606 57.3942 32.7882 57.5775C32.4158 57.7588 31.982 57.8495 31.4868 57.8495C30.9896 57.8495 30.5549 57.7588 30.1825 57.5775C29.8101 57.3942 29.5206 57.1388 29.3139 56.8113C29.1073 56.4837 29.0039 56.1016 29.0039 55.6649V51.7753H30.2702V55.5567C30.2702 55.7848 30.3199 55.9875 30.4194 56.165C30.5207 56.3424 30.6631 56.4818 30.8463 56.5832C31.0296 56.6845 31.2431 56.7352 31.4868 56.7352C31.7325 56.7352 31.9459 56.6845 32.1273 56.5832C32.3105 56.4818 32.4519 56.3424 32.5513 56.165C32.6527 55.9875 32.7034 55.7848 32.7034 55.5567V51.7753ZM40.0211 51.7753V57.7646H38.9274L36.3217 53.995H36.2778V57.7646H35.0115V51.7753H36.1228L38.708 55.5421H38.7607V51.7753H40.0211ZM43.4654 51.7753H44.7171V55.9515C44.7171 56.3375 44.6303 56.6728 44.4568 56.9575C44.2852 57.2421 44.0464 57.4615 43.7403 57.6155C43.4342 57.7695 43.0784 57.8465 42.6729 57.8465C42.3122 57.8465 41.9847 57.7832 41.6903 57.6564C41.3978 57.5278 41.1658 57.3328 40.9942 57.0716C40.8227 56.8083 40.7379 56.4779 40.7398 56.0802H42.0002C42.0041 56.2381 42.0363 56.3736 42.0968 56.4867C42.1591 56.5978 42.244 56.6836 42.3512 56.744C42.4604 56.8025 42.589 56.8317 42.7372 56.8317C42.8932 56.8317 43.0248 56.7986 43.132 56.7323C43.2412 56.6641 43.3241 56.5646 43.3806 56.434C43.4371 56.3034 43.4654 56.1425 43.4654 55.9515V51.7753ZM46.7964 57.7646H45.4394L47.507 51.7753H49.1389L51.2035 57.7646H49.8466L48.3463 53.144H48.2995L46.7964 57.7646ZM46.7116 55.4105H49.9168V56.3989H46.7116V55.4105ZM51.9244 57.7646V51.7753H54.3225C54.7631 51.7753 55.1306 51.8407 55.425 51.9713C55.7194 52.1019 55.9407 52.2832 56.0889 52.5152C56.237 52.7453 56.3111 53.0104 56.3111 53.3107C56.3111 53.5446 56.2643 53.7503 56.1707 53.9277C56.0772 54.1032 55.9485 54.2475 55.7847 54.3606C55.6229 54.4717 55.4377 54.5507 55.2291 54.5975V54.6559C55.4572 54.6657 55.6707 54.73 55.8695 54.849C56.0703 54.9679 56.2331 55.1346 56.3579 55.349C56.4827 55.5616 56.5451 55.815 56.5451 56.1094C56.5451 56.4272 56.4661 56.7109 56.3082 56.9604C56.1522 57.208 55.9212 57.404 55.6151 57.5482C55.309 57.6925 54.9317 57.7646 54.4833 57.7646H51.9244ZM53.1907 56.7294H54.2231C54.5759 56.7294 54.8333 56.6621 54.9951 56.5276C55.1569 56.3911 55.2378 56.2098 55.2378 55.9836C55.2378 55.8179 55.1979 55.6717 55.1179 55.545C55.038 55.4183 54.924 55.3188 54.7758 55.2467C54.6296 55.1745 54.4551 55.1385 54.2523 55.1385H53.1907V56.7294ZM53.1907 54.2816H54.1295C54.303 54.2816 54.457 54.2514 54.5915 54.191C54.728 54.1286 54.8352 54.0408 54.9132 53.9277C54.9932 53.8147 55.0331 53.6792 55.0331 53.5212C55.0331 53.3048 54.9561 53.1303 54.8021 52.9978C54.65 52.8652 54.4336 52.7989 54.1529 52.7989H53.1907V54.2816Z" fill="white"/>
<defs>
<linearGradient id="paint0_linear_37_1348" x1="16.5293" y1="-9.94118" x2="63.0587" y2="35.7647" gradientUnits="userSpaceOnUse">
<stop offset="0.600473" stop-color="#DD1F2D"/>
<stop offset="1" stop-color="white"/>
</linearGradient>
</defs>
</svg>
