<svg width="70" height="50" viewBox="0 10 80 20" fill="none" xmlns="http://www.w3.org/2000/svg">
<path d="M60.1764 5.29433V17.3948C60.1764 35.8452 44.5664 41.9664 41.4411 43.0062C40.7736 43.2332 40.0498 43.2332 39.3823 43.0062C36.2529 41.9664 20.647 35.8452 20.647 17.3948V5.29433C20.647 4.42062 20.994 3.5827 21.6118 2.96489C22.2296 2.34708 23.0674 2 23.9411 2H56.8823C57.7559 2 58.5938 2.34708 59.2116 2.96489C59.8293 3.5827 60.1764 4.42062 60.1764 5.29433Z" fill="url(#paint0_linear_36_1277)" stroke="white" stroke-width="3.29412"/>
<rect x="16.5293" y="13.5293" width="47.7647" height="11.2941" rx="3.29412" fill="white"/>
<path d="M23.7848 22.1763V17.0854H25.7933C26.1777 17.0854 26.5059 17.1541 26.7777 17.2917C27.0511 17.4276 27.2591 17.6206 27.4016 17.8709C27.5458 18.1195 27.6179 18.4119 27.6179 18.7484C27.6179 19.0864 27.5449 19.3773 27.3991 19.6209C27.2533 19.8628 27.042 20.0484 26.7652 20.1777C26.4901 20.307 26.157 20.3716 25.7659 20.3716H24.4211V19.5065H25.5919C25.7974 19.5065 25.9681 19.4784 26.104 19.422C26.2399 19.3657 26.341 19.2811 26.4073 19.1685C26.4752 19.0558 26.5092 18.9157 26.5092 18.7484C26.5092 18.5793 26.4752 18.4368 26.4073 18.3208C26.341 18.2048 26.2391 18.117 26.1015 18.0573C25.9656 17.996 25.7941 17.9653 25.587 17.9653H24.8611V22.1763H23.7848ZM26.534 19.8595L27.7993 22.1763H26.6111L25.3732 19.8595H26.534ZM29.4474 22.2484C29.2038 22.2484 28.9867 22.2061 28.7961 22.1216C28.6055 22.0354 28.4547 21.9086 28.3437 21.7413C28.2343 21.5722 28.1796 21.3618 28.1796 21.1099C28.1796 20.8977 28.2186 20.7196 28.2965 20.5754C28.3744 20.4312 28.4804 20.3152 28.6147 20.2274C28.7489 20.1396 28.9014 20.0733 29.072 20.0285C29.2444 19.9838 29.425 19.9523 29.6139 19.9341C29.836 19.9109 30.015 19.8893 30.1509 19.8695C30.2868 19.8479 30.3854 19.8164 30.4467 19.775C30.508 19.7336 30.5387 19.6722 30.5387 19.591V19.5761C30.5387 19.4187 30.4889 19.2969 30.3895 19.2107C30.2917 19.1245 30.1525 19.0815 29.9719 19.0815C29.7813 19.0815 29.6297 19.1237 29.517 19.2082C29.4043 19.2911 29.3297 19.3955 29.2933 19.5214L28.3139 19.4419C28.3636 19.2099 28.4614 19.0094 28.6072 18.8403C28.753 18.6696 28.9411 18.5387 29.1715 18.4476C29.4035 18.3548 29.6719 18.3084 29.9769 18.3084C30.189 18.3084 30.392 18.3332 30.5859 18.3829C30.7814 18.4327 30.9546 18.5097 31.1054 18.6141C31.2579 18.7185 31.378 18.8528 31.4659 19.0168C31.5537 19.1792 31.5976 19.3739 31.5976 19.601V22.1763H30.5934V21.6468H30.5635C30.5022 21.7661 30.4202 21.8713 30.3174 21.9625C30.2147 22.052 30.0912 22.1224 29.947 22.1738C29.8029 22.2235 29.6363 22.2484 29.4474 22.2484ZM29.7507 21.5175C29.9064 21.5175 30.044 21.4869 30.1633 21.4256C30.2826 21.3626 30.3763 21.2781 30.4442 21.172C30.5121 21.0659 30.5461 20.9458 30.5461 20.8116V20.4064C30.513 20.4279 30.4674 20.4478 30.4094 20.466C30.3531 20.4826 30.2893 20.4984 30.218 20.5133C30.1467 20.5265 30.0755 20.539 30.0042 20.5506C29.933 20.5605 29.8683 20.5696 29.8103 20.5779C29.686 20.5961 29.5775 20.6251 29.4847 20.6649C29.3919 20.7047 29.3198 20.7585 29.2684 20.8265C29.217 20.8928 29.1914 20.9756 29.1914 21.0751C29.1914 21.2192 29.2436 21.3294 29.348 21.4057C29.454 21.4802 29.5883 21.5175 29.7507 21.5175ZM32.4192 18.3581H33.4781V22.3652C33.4781 22.6602 33.4201 22.8988 33.3041 23.0811C33.1881 23.2634 33.0216 23.3968 32.8045 23.4813C32.589 23.5658 32.3313 23.6081 32.0314 23.6081C31.9949 23.6081 31.9601 23.6073 31.927 23.6056C31.8922 23.6056 31.8557 23.6048 31.8176 23.6031V22.7753C31.8458 22.777 31.8706 22.7778 31.8922 22.7778C31.9121 22.7795 31.9336 22.7803 31.9568 22.7803C32.1275 22.7803 32.2468 22.7439 32.3148 22.6709C32.3844 22.5997 32.4192 22.492 32.4192 22.3478V18.3581ZM32.9462 17.8659C32.7904 17.8659 32.6561 17.8137 32.5435 17.7093C32.4308 17.6032 32.3744 17.4765 32.3744 17.329C32.3744 17.1831 32.4308 17.058 32.5435 16.9536C32.6561 16.8476 32.7904 16.7945 32.9462 16.7945C33.1052 16.7945 33.2403 16.8476 33.3513 16.9536C33.464 17.058 33.5204 17.1831 33.5204 17.329C33.5204 17.4765 33.464 17.6032 33.3513 17.7093C33.2403 17.8137 33.1052 17.8659 32.9462 17.8659ZM35.4152 22.2484C35.1716 22.2484 34.9545 22.2061 34.7639 22.1216C34.5733 22.0354 34.4225 21.9086 34.3115 21.7413C34.2021 21.5722 34.1474 21.3618 34.1474 21.1099C34.1474 20.8977 34.1864 20.7196 34.2642 20.5754C34.3421 20.4312 34.4482 20.3152 34.5824 20.2274C34.7167 20.1396 34.8691 20.0733 35.0398 20.0285C35.2122 19.9838 35.3928 19.9523 35.5817 19.9341C35.8038 19.9109 35.9828 19.8893 36.1187 19.8695C36.2545 19.8479 36.3531 19.8164 36.4145 19.775C36.4758 19.7336 36.5064 19.6722 36.5064 19.591V19.5761C36.5064 19.4187 36.4567 19.2969 36.3573 19.2107C36.2595 19.1245 36.1203 19.0815 35.9397 19.0815C35.7491 19.0815 35.5975 19.1237 35.4848 19.2082C35.3721 19.2911 35.2975 19.3955 35.2611 19.5214L34.2816 19.4419C34.3314 19.2099 34.4291 19.0094 34.575 18.8403C34.7208 18.6696 34.9089 18.5387 35.1392 18.4476C35.3713 18.3548 35.6397 18.3084 35.9446 18.3084C36.1568 18.3084 36.3598 18.3332 36.5537 18.3829C36.7492 18.4327 36.9224 18.5097 37.0732 18.6141C37.2257 18.7185 37.3458 18.8528 37.4336 19.0168C37.5215 19.1792 37.5654 19.3739 37.5654 19.601V22.1763H36.5611V21.6468H36.5313C36.47 21.7661 36.3879 21.8713 36.2852 21.9625C36.1825 22.052 36.059 22.1224 35.9148 22.1738C35.7706 22.2235 35.6041 22.2484 35.4152 22.2484ZM35.7184 21.5175C35.8742 21.5175 36.0118 21.4869 36.1311 21.4256C36.2504 21.3626 36.344 21.2781 36.412 21.172C36.4799 21.0659 36.5139 20.9458 36.5139 20.8116V20.4064C36.4808 20.4279 36.4352 20.4478 36.3772 20.466C36.3208 20.4826 36.257 20.4984 36.1858 20.5133C36.1145 20.5265 36.0432 20.539 35.972 20.5506C35.9007 20.5605 35.8361 20.5696 35.7781 20.5779C35.6538 20.5961 35.5453 20.6251 35.4525 20.6649C35.3597 20.7047 35.2876 20.7585 35.2362 20.8265C35.1848 20.8928 35.1591 20.9756 35.1591 21.0751C35.1591 21.2192 35.2113 21.3294 35.3157 21.4057C35.4218 21.4802 35.556 21.5175 35.7184 21.5175ZM41.5638 19.4469L40.5943 19.5065C40.5778 19.4237 40.5421 19.3491 40.4874 19.2828C40.4328 19.2149 40.3607 19.161 40.2712 19.1212C40.1833 19.0798 40.0781 19.0591 39.9555 19.0591C39.7914 19.0591 39.653 19.0939 39.5403 19.1635C39.4277 19.2314 39.3713 19.3226 39.3713 19.4369C39.3713 19.5281 39.4078 19.6051 39.4807 19.6681C39.5536 19.7311 39.6787 19.7816 39.856 19.8197L40.5471 19.9589C40.9183 20.0352 41.1951 20.1578 41.3774 20.3268C41.5596 20.4959 41.6508 20.7179 41.6508 20.993C41.6508 21.2433 41.577 21.4628 41.4296 21.6518C41.2837 21.8407 41.0832 21.9882 40.828 22.0942C40.5744 22.1986 40.2819 22.2508 39.9505 22.2508C39.4451 22.2508 39.0424 22.1456 38.7424 21.9351C38.4441 21.723 38.2693 21.4347 38.2179 21.0701L39.2595 21.0154C39.2909 21.1695 39.3672 21.2872 39.4881 21.3684C39.6091 21.4479 39.7641 21.4877 39.953 21.4877C40.1386 21.4877 40.2877 21.4521 40.4004 21.3808C40.5148 21.3079 40.5728 21.2143 40.5744 21.0999C40.5728 21.0038 40.5322 20.9251 40.4526 20.8638C40.3731 20.8008 40.2505 20.7527 40.0847 20.7196L39.4235 20.5878C39.0506 20.5133 38.7731 20.384 38.5908 20.2001C38.4101 20.0161 38.3198 19.7816 38.3198 19.4966C38.3198 19.2513 38.3861 19.04 38.5187 18.8627C38.6529 18.6854 38.841 18.5487 39.083 18.4525C39.3266 18.3564 39.6116 18.3084 39.9381 18.3084C40.4203 18.3084 40.7998 18.4103 41.0766 18.6141C41.355 18.818 41.5174 19.0955 41.5638 19.4469ZM44.3485 18.3581V19.1535H42.0491V18.3581H44.3485ZM42.5712 17.4433H43.6301V21.003C43.6301 21.1007 43.645 21.177 43.6748 21.2317C43.7047 21.2847 43.7461 21.322 43.7991 21.3435C43.8538 21.3651 43.9168 21.3758 43.9881 21.3758C44.0378 21.3758 44.0875 21.3717 44.1372 21.3634C44.1869 21.3535 44.225 21.346 44.2516 21.341L44.4181 22.129C44.3651 22.1456 44.2905 22.1647 44.1944 22.1862C44.0983 22.2094 43.9814 22.2235 43.8439 22.2285C43.5887 22.2384 43.365 22.2044 43.1727 22.1266C42.9821 22.0487 42.8338 21.9277 42.7278 21.7636C42.6217 21.5996 42.5695 21.3924 42.5712 21.1422V17.4433ZM46.1793 19.9689V22.1763H45.1203V17.0854H46.1495V19.0317H46.1942C46.2804 18.8064 46.4196 18.6299 46.6118 18.5023C46.8041 18.373 47.0452 18.3084 47.3352 18.3084C47.6003 18.3084 47.8315 18.3664 48.0287 18.4824C48.2276 18.5967 48.3817 18.7616 48.4911 18.9771C48.6021 19.1908 48.6568 19.4469 48.6551 19.7452V22.1763H47.5962V19.9341C47.5978 19.6988 47.5382 19.5156 47.4172 19.3847C47.2979 19.2538 47.1305 19.1883 46.9151 19.1883C46.7709 19.1883 46.6433 19.219 46.5323 19.2803C46.4229 19.3416 46.3367 19.4311 46.2737 19.5488C46.2124 19.6648 46.1809 19.8048 46.1793 19.9689ZM50.5773 22.2484C50.3337 22.2484 50.1166 22.2061 49.926 22.1216C49.7354 22.0354 49.5846 21.9086 49.4736 21.7413C49.3642 21.5722 49.3095 21.3618 49.3095 21.1099C49.3095 20.8977 49.3485 20.7196 49.4264 20.5754C49.5042 20.4312 49.6103 20.3152 49.7445 20.2274C49.8788 20.1396 50.0312 20.0733 50.2019 20.0285C50.3743 19.9838 50.5549 19.9523 50.7438 19.9341C50.9659 19.9109 51.1449 19.8893 51.2808 19.8695C51.4167 19.8479 51.5153 19.8164 51.5766 19.775C51.6379 19.7336 51.6685 19.6722 51.6685 19.591V19.5761C51.6685 19.4187 51.6188 19.2969 51.5194 19.2107C51.4216 19.1245 51.2824 19.0815 51.1018 19.0815C50.9112 19.0815 50.7596 19.1237 50.6469 19.2082C50.5342 19.2911 50.4596 19.3955 50.4232 19.5214L49.4438 19.4419C49.4935 19.2099 49.5912 19.0094 49.7371 18.8403C49.8829 18.6696 50.071 18.5387 50.3014 18.4476C50.5334 18.3548 50.8018 18.3084 51.1068 18.3084C51.3189 18.3084 51.5219 18.3332 51.7158 18.3829C51.9113 18.4327 52.0845 18.5097 52.2353 18.6141C52.3878 18.7185 52.5079 18.8528 52.5957 19.0168C52.6836 19.1792 52.7275 19.3739 52.7275 19.601V22.1763H51.7232V21.6468H51.6934C51.6321 21.7661 51.5501 21.8713 51.4473 21.9625C51.3446 22.052 51.2211 22.1224 51.0769 22.1738C50.9328 22.2235 50.7662 22.2484 50.5773 22.2484ZM50.8805 21.5175C51.0363 21.5175 51.1739 21.4869 51.2932 21.4256C51.4125 21.3626 51.5061 21.2781 51.5741 21.172C51.642 21.0659 51.676 20.9458 51.676 20.8116V20.4064C51.6429 20.4279 51.5973 20.4478 51.5393 20.466C51.4829 20.4826 51.4191 20.4984 51.3479 20.5133C51.2766 20.5265 51.2054 20.539 51.1341 20.5506C51.0628 20.5605 50.9982 20.5696 50.9402 20.5779C50.8159 20.5961 50.7074 20.6251 50.6146 20.6649C50.5218 20.7047 50.4497 20.7585 50.3983 20.8265C50.3469 20.8928 50.3212 20.9756 50.3212 21.0751C50.3212 21.2192 50.3734 21.3294 50.4778 21.4057C50.5839 21.4802 50.7181 21.5175 50.8805 21.5175ZM54.608 19.9689V22.1763H53.5491V18.3581H54.5583V19.0317H54.603C54.6875 18.8097 54.8292 18.634 55.0281 18.5047C55.227 18.3738 55.4681 18.3084 55.7515 18.3084C56.0166 18.3084 56.2478 18.3664 56.445 18.4824C56.6422 18.5984 56.7955 18.7641 56.9049 18.9795C57.0142 19.1933 57.0689 19.4485 57.0689 19.7452V22.1763H56.01V19.9341C56.0116 19.7004 55.952 19.5181 55.831 19.3872C55.71 19.2546 55.5435 19.1883 55.3314 19.1883C55.1888 19.1883 55.0629 19.219 54.9535 19.2803C54.8458 19.3416 54.7613 19.4311 54.7 19.5488C54.6403 19.6648 54.6097 19.8048 54.608 19.9689Z" fill="black"/>
<path d="M14.749 57.7646V51.7753H17.112C17.5643 51.7753 17.9503 51.8563 18.27 52.0181C18.5917 52.1779 18.8364 52.4051 19.0041 52.6995C19.1737 52.9919 19.2585 53.336 19.2585 53.7318C19.2585 54.1295 19.1727 54.4717 19.0012 54.7583C18.8296 55.0429 18.581 55.2613 18.2554 55.4134C17.9318 55.5655 17.5399 55.6415 17.0798 55.6415H15.4976V54.6238H16.8751C17.1168 54.6238 17.3176 54.5906 17.4775 54.5243C17.6374 54.4581 17.7563 54.3586 17.8343 54.226C17.9142 54.0935 17.9542 53.9287 17.9542 53.7318C17.9542 53.5329 17.9142 53.3653 17.8343 53.2288C17.7563 53.0923 17.6364 52.989 17.4746 52.9188C17.3147 52.8467 17.1129 52.8106 16.8692 52.8106H16.0153V57.7646H14.749ZM17.9834 55.039L19.472 57.7646H18.0741L16.6177 55.039H17.9834ZM21.1857 57.7646H19.8288L21.8964 51.7753H23.5282L25.5929 57.7646H24.236L22.7357 53.144H22.6889L21.1857 57.7646ZM21.1009 55.4105H24.3061V56.3989H21.1009V55.4105ZM28.7118 51.7753H29.9635V55.9515C29.9635 56.3375 29.8768 56.6728 29.7032 56.9575C29.5317 57.2421 29.2928 57.4615 28.9867 57.6155C28.6807 57.7695 28.3248 57.8465 27.9193 57.8465C27.5586 57.8465 27.2311 57.7832 26.9367 57.6564C26.6442 57.5278 26.4122 57.3328 26.2407 57.0716C26.0691 56.8083 25.9843 56.4779 25.9862 56.0802H27.2467C27.2506 56.2381 27.2828 56.3736 27.3432 56.4867C27.4056 56.5978 27.4904 56.6836 27.5976 56.744C27.7068 56.8025 27.8355 56.8317 27.9837 56.8317C28.1396 56.8317 28.2712 56.7986 28.3785 56.7323C28.4876 56.6641 28.5705 56.5646 28.627 56.434C28.6836 56.3034 28.7118 56.1425 28.7118 55.9515V51.7753ZM32.0428 57.7646H30.6859L32.7535 51.7753H34.3853L36.45 57.7646H35.093L33.5928 53.144H33.546L32.0428 57.7646ZM31.958 55.4105H35.1632V56.3989H31.958V55.4105ZM40.2832 53.4979C40.2598 53.2619 40.1594 53.0787 39.982 52.9481C39.8046 52.8174 39.5638 52.7521 39.2597 52.7521C39.053 52.7521 38.8785 52.7814 38.7362 52.8398C38.5939 52.8964 38.4847 52.9753 38.4086 53.0767C38.3346 53.1781 38.2975 53.2931 38.2975 53.4218C38.2936 53.529 38.316 53.6226 38.3648 53.7026C38.4155 53.7825 38.4847 53.8517 38.5724 53.9102C38.6601 53.9667 38.7615 54.0165 38.8766 54.0594C38.9916 54.1003 39.1144 54.1354 39.245 54.1646L39.7831 54.2933C40.0444 54.3518 40.2842 54.4298 40.5026 54.5273C40.7209 54.6247 40.91 54.7447 41.0699 54.887C41.2298 55.0293 41.3536 55.197 41.4413 55.39C41.531 55.583 41.5768 55.8043 41.5788 56.0538C41.5768 56.4204 41.4832 56.7382 41.298 57.0072C41.1147 57.2743 40.8496 57.482 40.5026 57.6301C40.1575 57.7763 39.7412 57.8495 39.2538 57.8495C38.7703 57.8495 38.3492 57.7754 37.9904 57.6272C37.6337 57.479 37.3549 57.2597 37.154 56.9692C36.9552 56.6767 36.8509 56.3151 36.8411 55.8842H38.0665C38.0801 56.085 38.1376 56.2527 38.239 56.3872C38.3424 56.5198 38.4798 56.6202 38.6514 56.6884C38.8249 56.7547 39.0208 56.7879 39.2392 56.7879C39.4536 56.7879 39.6398 56.7567 39.7978 56.6943C39.9576 56.6319 40.0814 56.5451 40.1692 56.434C40.2569 56.3229 40.3008 56.1952 40.3008 56.0509C40.3008 55.9164 40.2608 55.8033 40.1809 55.7117C40.1029 55.62 39.9879 55.5421 39.8358 55.4777C39.6857 55.4134 39.5014 55.3549 39.2831 55.3022L38.6309 55.1385C38.1259 55.0157 37.7272 54.8236 37.4348 54.5624C37.1423 54.3011 36.9971 53.9492 36.999 53.5066C36.9971 53.144 37.0936 52.8272 37.2886 52.5562C37.4855 52.2852 37.7555 52.0736 38.0986 51.9216C38.4418 51.7695 38.8317 51.6935 39.2684 51.6935C39.713 51.6935 40.1009 51.7695 40.4324 51.9216C40.7658 52.0736 41.0251 52.2852 41.2103 52.5562C41.3955 52.8272 41.491 53.1411 41.4969 53.4979H40.2832ZM42.2024 52.8194V51.7753H47.1214V52.8194H45.2877V57.7646H44.036V52.8194H42.2024ZM47.9314 57.7646V51.7753H49.1977V54.2465H51.7683V51.7753H53.0317V57.7646H51.7683V55.2906H49.1977V57.7646H47.9314ZM55.1081 57.7646H53.7511L55.8187 51.7753H57.4506L59.5152 57.7646H58.1583L56.658 53.144H56.6112L55.1081 57.7646ZM55.0233 55.4105H58.2285V56.3989H55.0233V55.4105ZM65.2457 51.7753V57.7646H64.152L61.5463 53.995H61.5024V57.7646H60.2361V51.7753H61.3474L63.9326 55.5421H63.9853V51.7753H65.2457Z" fill="white"/>
<defs>
<linearGradient id="paint0_linear_36_1277" x1="67.1764" y1="47.7059" x2="21.8823" y2="2" gradientUnits="userSpaceOnUse">
<stop offset="0.320968" stop-color="#A36FE4"/>
<stop offset="0.590864" stop-color="#E60693"/>
</linearGradient>
</defs>
</svg>
