<svg
      width="70"
      height="50"
      viewBox="0 10 80 25"
      fill="none"
      xmlns="http://www.w3.org/2000/svg"
    >
      <g clipPath="url(#clip0_13_2171)">
        <path
          d="M53.3333 7H48V4H45.3333V7H34.6667V4H32V7H26.6667C25.2 7 24 8.35 24 10V40C24 41.65 25.2 43 26.6667 43H53.3333C54.8 43 56 41.65 56 40V10C56 8.35 54.8 7 53.3333 7ZM53.3333 40H26.6667V19H53.3333V40ZM53.3333 16H26.6667V10H32V13H34.6667V10H45.3333V13H48V10H53.3333V16Z"
          fill="#C5C5C5"
        />
        <path d="M53.3333 40H26.6667V19H53.3333V40Z" fill="#C5C5C5" />
        <path
          d="M40.9082 31.6543H38.418C38.4245 31.0684 38.4701 30.5638 38.5547 30.1406C38.6458 29.7109 38.7988 29.3236 39.0137 28.9785C39.235 28.6335 39.528 28.2917 39.8926 27.9531C40.1986 27.6797 40.4655 27.4193 40.6934 27.1719C40.9212 26.9245 41.1003 26.6706 41.2305 26.4102C41.3607 26.1432 41.4258 25.847 41.4258 25.5215C41.4258 25.1439 41.3672 24.8314 41.25 24.584C41.1393 24.3301 40.9701 24.138 40.7422 24.0078C40.5208 23.8776 40.2409 23.8125 39.9023 23.8125C39.6224 23.8125 39.362 23.8743 39.1211 23.998C38.8802 24.1152 38.6816 24.2975 38.5254 24.5449C38.3757 24.7923 38.2975 25.1178 38.291 25.5215H35.459C35.4785 24.6296 35.6836 23.8939 36.0742 23.3145C36.4714 22.7285 37.002 22.2956 37.666 22.0156C38.3301 21.7292 39.0755 21.5859 39.9023 21.5859C40.8138 21.5859 41.5951 21.7357 42.2461 22.0352C42.8971 22.3281 43.3952 22.7611 43.7402 23.334C44.0853 23.9004 44.2578 24.5905 44.2578 25.4043C44.2578 25.9707 44.1471 26.4753 43.9258 26.918C43.7044 27.3542 43.4147 27.7611 43.0566 28.1387C42.6986 28.5163 42.3047 28.9069 41.875 29.3105C41.5039 29.6426 41.25 29.9909 41.1133 30.3555C40.9831 30.7201 40.9147 31.153 40.9082 31.6543ZM38.125 34.6719C38.125 34.2552 38.2682 33.9102 38.5547 33.6367C38.8411 33.3568 39.2253 33.2168 39.707 33.2168C40.1823 33.2168 40.5632 33.3568 40.8496 33.6367C41.1426 33.9102 41.2891 34.2552 41.2891 34.6719C41.2891 35.0755 41.1426 35.4173 40.8496 35.6973C40.5632 35.9772 40.1823 36.1172 39.707 36.1172C39.2253 36.1172 38.8411 35.9772 38.5547 35.6973C38.2682 35.4173 38.125 35.0755 38.125 34.6719Z"
          fill="#747474"
        />
      </g>
      <defs>
        <clipPath id="clip0_13_2171">
          <rect
            width="32"
            height="39"
            fill="white"
            transform="translate(24 4)"
          />
        </clipPath>
      </defs>
    </svg>