<svg
      width="36"
      height="36"
      viewBox="0 0 36 36"
      fill="none"
      xmlns="http://www.w3.org/2000/svg"
    >
      <path
        d="M32.6464 16.3429L19.6111 2.93512C19.167 2.47837 18.583 2.25 18 2.25C17.417 2.25 16.833 2.47837 16.3889 2.93512L3.35359 16.3429C2.90953 16.7996 2.6875 17.3993 2.6875 18C2.6875 18.6007 2.90953 19.2004 3.35359 19.6571L16.3878 33.0637C16.833 33.5216 17.417 33.75 18 33.75C18.583 33.75 19.167 33.5216 19.6111 33.0649L32.6453 19.6583C33.0905 19.2004 33.3125 18.6007 33.3125 18C33.3125 17.3993 33.0905 16.7996 32.6464 16.3429ZM18 27C17.5649 27 17.1476 26.8222 16.8399 26.5057C16.5322 26.1893 16.3594 25.7601 16.3594 25.3125C16.3594 24.8649 16.5322 24.4357 16.8399 24.1193C17.1476 23.8028 17.5649 23.625 18 23.625C18.4351 23.625 18.8524 23.8028 19.1601 24.1193C19.4678 24.4357 19.6406 24.8649 19.6406 25.3125C19.6406 25.7601 19.4678 26.1893 19.1601 26.5057C18.8524 26.8222 18.4351 27 18 27ZM19.2305 19.404V21.5156H16.7695V16.875H19.0938C20.2247 16.875 21.1445 15.9289 21.1445 14.7656C21.1445 13.6024 20.2247 12.6562 19.0938 12.6562H16.9062C16.3625 12.6568 15.8412 12.8793 15.4568 13.2747C15.0723 13.6702 14.856 14.2064 14.8555 14.7656V15.3281H12.3945V14.7656C12.396 13.5353 12.8718 12.3558 13.7176 11.4859C14.5634 10.6159 15.7101 10.1265 16.9062 10.125H19.0938C20.2899 10.1265 21.4366 10.6159 22.2824 11.4859C23.1282 12.3558 23.604 13.5353 23.6055 14.7656C23.6041 15.9716 23.1468 17.1298 22.3304 17.9953C21.514 18.8609 20.4024 19.366 19.2305 19.404Z"
        fill="#747474"
      />
    </svg>