<svg
      width="48"
      height="48"
      viewBox="0 0 54 55"
      fill="none"
      xmlns="http://www.w3.org/2000/svg"
    >
      <path
        d="M28.1182 19.7164L30.3331 16.8097C30.3331 16.8097 30.776 16.1263 31.1937 16.1727C31.6071 16.2191 32.2821 17.5353 33.9443 17.4045C35.6993 17.2653 37.3531 16.8097 37.3531 16.8097L38.7368 18.7503L38.5006 20.0244C38.5006 20.0244 37.9774 21.5938 38.2727 22.6358C38.5301 23.5513 39.4287 24.125 39.4413 24.5427C39.4624 25.0953 12.8421 51.3824 12.5637 51.568C12.2852 51.7536 9.51775 51.3824 9.23931 51.2431C8.96087 51.1039 4.43837 45.9359 4.43837 45.9359C4.43837 45.9359 4.24853 43.6578 4.48056 43.2444C4.51009 43.1938 4.67884 43.025 4.81384 42.9195C6.73759 41.4219 14.0023 38.5109 19.5795 33.0139C21.9799 30.643 28.1182 19.7164 28.1182 19.7164Z"
        fill="#D06F1D"
      />
      <path
        d="M47.1489 7.47785V5.51191C47.1489 5.51191 48.0222 3.68098 48.2331 3.41098C48.4441 3.14098 50.1611 2.8077 51.3677 4.10285C52.5742 5.39801 52.3549 6.65941 52.241 6.84504C52.1102 7.05598 49.9333 8.39332 49.9333 8.39332L47.1489 7.47785Z"
        fill="#AF570C"
      />
      <path
        d="M30.3371 16.8055C30.5101 16.7211 31.5564 18.3158 32.8178 18.3791C34.0792 18.4424 36.1843 18.3158 36.1843 18.3158L37.2517 19.9653L37.1884 21.0959C37.1884 21.0959 36.931 22.3236 37.1884 23.0999C37.4457 23.8761 37.9014 24.2642 37.9646 24.5553C38.0279 24.8464 12.8251 50.2391 12.6015 50.3066C12.3737 50.3699 9.72432 50.3403 9.53026 50.18C9.3362 50.0197 5.66167 45.8895 5.50135 45.5984C5.34104 45.3074 4.74198 43.2908 4.80948 42.9322C4.86432 42.582 30.1178 16.9152 30.3371 16.8055Z"
        fill="#EB8B34"
      />
      <path
        d="M35.5091 17.1472C35.5091 17.0502 46.9546 5.73126 46.9546 5.73126L49.739 8.6422L38.3652 20.2227C38.3652 20.2227 34.8215 20.8091 34.8552 20.6488C34.889 20.4842 35.5091 17.1472 35.5091 17.1472Z"
        fill="#474C4F"
      />
      <path
        d="M41.7236 10.9161L43.0441 9.59984L45.955 12.4981L44.6008 13.8776L41.7236 10.9161ZM44.2844 8.3764L47.1574 11.2662L50.1021 8.30046C50.1021 8.30046 47.2671 5.34312 47.1869 5.42749C47.1194 5.49499 44.2844 8.3764 44.2844 8.3764Z"
        fill="#E0E0E0"
      />
      <path
        d="M23.7893 31.588C24.0382 31.858 24.7512 31.2631 25.249 30.875C25.4557 30.7147 29.0332 27.8628 32.2563 25.1333C35.4795 22.4037 38.4663 20.3112 38.4874 20.0623C38.5085 19.8134 35.7832 17.164 35.509 17.1472C35.2306 17.1303 32.8596 19.8219 30.3452 22.8931C27.5482 26.3103 24.6541 29.8836 24.5571 30.0059C24.0593 30.6641 23.5952 31.377 23.7893 31.588Z"
        fill="#AF570C"
      />
      <path
        d="M9.09228 24.0257C6.67071 26.1814 6.05478 30.4424 8.83915 33.2985C11.1974 35.72 15.0534 36.0069 17.8588 33.3322C20.4196 30.8853 19.7699 26.5147 18.2427 24.7302C16.0026 22.1146 11.7037 21.6969 9.09228 24.0257Z"
        fill="#A52415"
      />
      <path
        d="M12.4504 23.4096C11.7037 23.321 9.68288 23.7724 8.75054 25.9915C7.90257 28.0123 8.45101 29.4804 8.86444 29.5943C9.54366 29.7841 10.0879 27.0293 11.5898 26.0379C13.0916 25.0465 14.0155 25.6919 14.2223 25.1351C14.3699 24.7469 13.9987 23.5952 12.4504 23.4096Z"
        fill="#D26051"
      />
      <path
        d="M8.11768 32.4167C8.27799 32.3619 11.8766 30.8347 13.8889 29.2864C16.9517 26.9281 17.8714 24.3505 17.8714 24.3505C17.8714 24.3505 18.4452 24.7977 18.8628 25.6372C19.1624 26.2447 19.4155 27.2108 19.3986 27.312C19.3649 27.5272 17.1753 29.9023 14.9605 31.6109C12.7456 33.3195 10.0499 34.3025 10.0499 34.3025C10.0499 34.3025 9.22299 33.6992 8.83064 33.2984C8.41299 32.8639 8.11768 32.4167 8.11768 32.4167Z"
        fill="#8B200B"
      />
      <path
        d="M7.69141 31.7165C7.69141 31.7165 10.7416 31.0119 13.5386 28.7422C16.2597 26.5316 17.5422 24.0383 17.5422 24.0383C17.5422 24.0383 17.8417 24.2577 18.0527 24.4686C18.2636 24.6796 18.4155 24.92 18.4155 24.92C18.4155 24.92 17.6856 27.2277 14.1166 29.9741C10.9652 32.4041 8.32 32.7163 8.32 32.7163C8.32 32.7163 8.09641 32.4716 7.92766 32.1721C7.80953 31.9485 7.69141 31.7165 7.69141 31.7165ZM9.32828 33.7541C9.32828 33.7541 12.2013 33.1044 14.9645 30.8305C18.4323 27.9786 19.1327 26.27 19.1327 26.27C19.1327 26.27 19.3056 26.7341 19.3689 27.0126C19.4491 27.3585 19.4997 27.7719 19.4997 27.7719C19.4997 27.7719 18.5209 29.7758 15.7745 31.8852C13.0492 33.9819 10.7627 34.6611 10.7627 34.6611C10.7627 34.6611 10.2944 34.4502 9.98219 34.2604C9.72484 34.1085 9.32828 33.7541 9.32828 33.7541Z"
        fill="#FDE7C4"
      />
    </svg>