<svg
      width="48"
      height="48"
      viewBox="0 0 54 55"
      fill="none"
      xmlns="http://www.w3.org/2000/svg"
    >
      <path
        d="M28.1182 19.7164L30.3331 16.8097C30.3331 16.8097 30.776 16.1263 31.1937 16.1727C31.6071 16.2191 32.2821 17.5353 33.9443 17.4045C35.6993 17.2653 37.3531 16.8097 37.3531 16.8097L38.7368 18.7503L38.5006 20.0244C38.5006 20.0244 37.9774 21.5938 38.2727 22.6358C38.5301 23.5513 39.4287 24.125 39.4413 24.5427C39.4624 25.0953 12.8421 51.3824 12.5637 51.568C12.2852 51.7536 9.51775 51.3824 9.23931 51.2431C8.96087 51.1039 4.43837 45.9359 4.43837 45.9359C4.43837 45.9359 4.24853 43.6578 4.48056 43.2444C4.51009 43.1938 4.67884 43.025 4.81384 42.9195C6.73759 41.4219 14.0023 38.511 19.5795 33.0139C21.9799 30.643 28.1182 19.7164 28.1182 19.7164Z"
        fill="#D06F1D"
      />
      <path
        d="M47.1489 7.47785V5.51191C47.1489 5.51191 48.0222 3.68098 48.2331 3.41098C48.4441 3.14098 50.1611 2.8077 51.3677 4.10285C52.5742 5.39801 52.3549 6.65941 52.241 6.84504C52.1102 7.05598 49.9333 8.39332 49.9333 8.39332L47.1489 7.47785Z"
        fill="#AF570C"
      />
      <path
        d="M30.3371 16.8055C30.5101 16.7211 31.5564 18.3158 32.8178 18.3791C34.0792 18.4424 36.1843 18.3158 36.1843 18.3158L37.2517 19.9653L37.1884 21.0959C37.1884 21.0959 36.931 22.3236 37.1884 23.0999C37.4457 23.8761 37.9014 24.2642 37.9646 24.5553C38.0279 24.8464 12.8251 50.2391 12.6015 50.3066C12.3737 50.3699 9.72432 50.3403 9.53026 50.18C9.3362 50.0197 5.66167 45.8895 5.50135 45.5984C5.34104 45.3074 4.74198 43.2908 4.80948 42.9322C4.86432 42.582 30.1178 16.9152 30.3371 16.8055Z"
        fill="#EB8B34"
      />
      <path
        d="M35.5091 17.1472C35.5091 17.0502 46.9546 5.73126 46.9546 5.73126L49.739 8.6422L38.3652 20.2227C38.3652 20.2227 34.8215 20.8091 34.8552 20.6488C34.889 20.4842 35.5091 17.1472 35.5091 17.1472Z"
        fill="#474C4F"
      />
                <path
        d="M41.7236 10.9161L43.0441 9.59984L45.955 12.4981L44.6008 13.8776L41.7236 10.9161ZM44.2844 8.3764L47.1574 11.2662L50.1021 8.30046C50.1021 8.30046 47.2671 5.34312 47.1869 5.42749C47.1194 5.49499 44.2844 8.3764 44.2844 8.3764Z"
        fill="#E0E0E0"
      />
      <path
        d="M23.7893 31.588C24.0382 31.858 24.7512 31.2631 25.249 30.875C25.4557 30.7147 29.0332 27.8628 32.2563 25.1333C35.4795 22.4037 38.4663 20.3112 38.4874 20.0623C38.5085 19.8134 35.7832 17.164 35.509 17.1472C35.2306 17.1303 32.8596 19.8219 30.3452 22.8931C27.5482 26.3103 24.6541 29.8836 24.5571 30.0059C24.0593 30.6641 23.5952 31.377 23.7893 31.588Z"
        fill="#AF570C"
      />
    </svg>