<svg
      width="48"
      height="48"
      viewBox="0 0 54 55"
      fill="none"
      xmlns="http://www.w3.org/2000/svg"
    >
      <path
        d="M15.8211 16.976C10.2412 21.8877 8.82196 31.5958 15.2379 38.103C20.672 43.6203 29.5571 44.2739 36.0216 38.1799C41.9223 32.605 40.4252 22.6471 36.9062 18.5812C31.7443 12.6218 21.8385 11.6702 15.8211 16.976Z"
        fill="#A52415"
      />
      <path
        d="M28.0618 21.5216C26.4296 21.336 22.0125 22.2818 19.9745 26.9314C18.121 31.1656 19.3198 34.2418 20.2235 34.4804C21.7082 34.8782 22.8978 29.106 26.1806 27.0287C29.4634 24.9513 31.4829 26.3038 31.9348 25.137C32.2575 24.3237 31.446 21.9105 28.0618 21.5216Z"
        fill="#D26051"
      />
      <path
        d="M13 34.3313C13.3695 34.21 21.6628 30.834 26.3005 27.4114C33.3591 22.1982 35.4786 16.5 35.4786 16.5C35.4786 16.5 36.8009 17.4886 37.7634 19.3444C38.4537 20.6874 39.0371 22.823 38.9982 23.0468C38.9204 23.5225 33.8744 28.773 28.77 32.55C23.6657 36.327 17.4529 38.5 17.4529 38.5C17.4529 38.5 15.5473 37.1664 14.6431 36.2804C13.6806 35.3198 13 34.3313 13 34.3313Z"
        fill="#8B200B"
      />
      <path
        d="M12 33.1243C12 33.1243 19.2326 31.5989 25.865 26.6847C32.3173 21.8983 35.3583 16.5 35.3583 16.5C35.3583 16.5 36.0686 16.975 36.5688 17.4317C37.069 17.8884 37.4291 18.4091 37.4291 18.4091C37.4291 18.4091 35.6985 23.4055 27.2354 29.3519C19.7628 34.6132 13.4905 35.2891 13.4905 35.2891C13.4905 35.2891 12.9603 34.7593 12.5602 34.1108C12.2801 33.6267 12 33.1243 12 33.1243ZM15.8814 37.5361C15.8814 37.5361 22.6938 36.1295 29.2462 31.2061C37.4691 25.0314 39.1297 21.332 39.1297 21.332C39.1297 21.332 39.5398 22.3368 39.6899 22.9396C39.88 23.6886 40 24.5838 40 24.5838C40 24.5838 37.6792 28.9226 31.1668 33.4897C24.7045 38.0294 19.2826 39.5 19.2826 39.5C19.2826 39.5 18.1722 39.0433 17.4319 38.6323C16.8217 38.3034 15.8814 37.5361 15.8814 37.5361Z"
        fill="#FDE7C4"
      />
    </svg>