<svg
      width="48"
      height="48"
      viewBox="0 0 54 55"
      fill="none"
      xmlns="http://www.w3.org/2000/svg"
    >
      <path
        d="M28.6727 12.095C28.6322 11.3675 31.4649 9.09724 33.0272 11.4365C33.3234 11.7065 34.6217 10.394 36.1757 10.5942C37.2257 10.7292 37.6584 12.5802 38.7084 13.0917C39.7288 13.4744 40.6627 14.0565 41.4557 14.804C41.7279 15.1602 41.5419 15.9875 41.8127 17.087C42.0609 18.0987 44.6754 18.002 44.0957 19.2275C42.4631 22.8505 40.5555 26.3432 38.3897 29.675C36.5935 32.2059 35.2159 35.0092 34.3097 37.9775C34.3097 37.9775 25.0997 22.16 28.6727 12.095Z"
        fill="#5C9E31"
      />
      <path
        d="M10.0277 14.7949C10.0277 14.7949 10.4597 13.2004 13.3487 12.6027C14.0102 11.7762 13.9472 9.56893 15.5372 10.0129C18.4127 10.2034 19.1109 8.99893 21.6399 9.48118C22.6929 10.6294 26.1227 10.4869 26.4684 10.4764C29.4122 14.5099 33.2319 33.0289 32.3597 34.6639C31.4874 36.2989 20.0972 39.6934 20.0972 39.6934C20.0972 39.6934 8.93716 15.1159 10.0322 14.7934L10.0277 14.7949Z"
        fill="#B1CC33"
      />
      <path
        d="M20.1826 40.0925L32.6626 35.3068L34.6149 40.3978C34.6651 40.5288 34.6891 40.6684 34.6854 40.8086C34.6817 40.9489 34.6504 41.087 34.5933 41.2152C34.5362 41.3433 34.4544 41.459 34.3526 41.5555C34.2507 41.652 34.1309 41.7276 33.9999 41.7778L23.7849 45.6935C23.4477 45.8227 23.073 45.8127 22.7433 45.6657C22.4135 45.5187 22.1555 45.2468 22.0261 44.9098L20.1826 40.0925Z"
        fill="white"
      />
      <path
        d="M16.8 20.5775C15.9735 18.0928 15.2707 14.552 13.5757 13.2163C13.2905 12.9841 12.956 12.8201 12.5978 12.7369C12.2396 12.6537 11.8671 12.6535 11.5087 12.7363C8.24472 14.4238 11.6302 19.6033 12.423 21.9538C13.095 23.9488 13.9552 26.5775 14.595 28.4158C15.5632 31.1983 20.106 40.1233 20.106 40.1233M20.1075 40.13L32.4075 35.3803L34.6267 40.4383C34.866 40.9828 34.5622 41.6158 34.008 41.8288L23.733 45.7753C23.565 45.8398 23.3859 45.8705 23.206 45.8657C23.0261 45.8609 22.8489 45.8207 22.6846 45.7473C22.5202 45.674 22.372 45.5689 22.2483 45.4382C22.1246 45.3075 22.0279 45.1537 21.9637 44.9855L20.1075 40.13Z"
        stroke="black"
        strokeWidth="2"
        strokeLinecap="round"
        strokeLinejoin="round"
      />
      <path
        d="M13.5751 13.2201C13.4004 9.76105 16.6509 8.4778 18.1149 10.5688C19.3494 12.4378 21.2431 18.8188 21.2431 18.8188M18.2551 10.5726C18.8364 9.91405 19.1431 9.27205 19.9854 9.0253C21.3924 8.6563 22.2459 8.92405 23.0161 11.1471C23.7864 13.3701 25.3584 18.6178 25.3584 18.6178M23.0176 11.1501C23.0176 11.1501 24.8229 9.0733 26.6784 10.6963C27.3489 11.9571 30.8296 25.4938 30.8296 25.4938C30.8296 25.4938 32.7924 33.3388 32.4076 35.3788M14.0926 26.6226C14.0926 26.6226 15.6691 28.6183 16.4896 28.5208C18.5881 28.2703 18.7974 25.6033 18.8521 24.1176C18.9069 22.6318 19.2946 21.0351 21.2439 21.1453C23.1924 21.2556 24.2364 21.5856 23.9619 24.2826C23.6874 26.9796 21.7096 34.4076 21.7096 34.4076L25.6569 37.8291M27.7426 13.4526C27.7426 13.4526 29.3401 10.7856 30.0091 10.4683C30.7276 10.1278 33.1314 10.5553 33.0931 12.4468C33.0549 14.3383 30.3789 18.7056 30.3789 18.7056"
        stroke="black"
        strokeWidth="2"
        strokeLinecap="round"
        strokeLinejoin="round"
      />
      <path
        d="M33.0898 12.4476C33.0898 12.4476 34.3521 10.3326 35.5333 10.2268C37.0843 10.0018 38.4156 11.3346 38.1906 12.8886C38.1328 13.2103 38.0451 13.5261 37.9288 13.8306C36.8414 16.3507 35.5799 18.7921 34.1533 21.1371M38.0923 13.7151C38.0923 13.7151 39.8571 12.7851 40.8748 13.6266C41.1199 13.7812 41.33 13.9856 41.4916 14.2265C41.6532 14.4673 41.7627 14.7394 41.813 15.0252C41.8634 15.311 41.8535 15.6041 41.784 15.8859C41.7145 16.1676 41.587 16.4316 41.4096 16.6611C40.6708 17.9871 37.5681 23.9083 37.5681 23.9083M41.2723 17.1426C41.2798 17.1156 44.4553 16.4976 44.0841 19.2366C43.8846 20.7096 33.7041 38.2041 33.7041 38.2041"
        stroke="black"
        strokeWidth="2"
        strokeLinecap="round"
        strokeLinejoin="round"
      />
    </svg>