<svg width="70" height="40" viewBox="0 20 80 10" fill="none" xmlns="http://www.w3.org/2000/svg">
                <g clipPath="url(#clip0_20_12606)">
                <path d="M53.9219 6.96094H40V9.94402L37.0802 11.3906H40V15.8203H37.0802L40 17.3359V20.25H39.8785L31.7734 16.2323V20.25H27.9766V16.2323L19.8981 20.25H19.75V27.8438C19.75 31.6881 21.8845 34.8047 26.0781 34.8047H53.9219C58.1155 34.8047 60.25 31.6881 60.25 27.8438V13.9219C60.25 10.0775 58.1155 6.96094 53.9219 6.96094Z" fill="#2B3990"/>
                <path d="M39.9999 8.44419V8.42773L34.197 11.3906L39.9999 8.44419Z" fill="#4189DD"/>
                <path d="M19.75 15.8203V17.3593L22.7154 15.8203H19.75ZM20.517 10.3022C20.3486 10.653 20.2094 11.017 20.1006 11.3906H22.7154L20.517 10.3022ZM40 6.96727V6.96094H31.7734V11.2001L40 6.96727ZM27.9766 11.2001V6.96094H26.0781C24.4202 6.96094 23.0894 7.45327 22.08 8.28035L27.9766 11.2001Z" fill="#2B3990"/>
                <path d="M40 12.0234V11.3906H37.0802L40 9.94402V8.44425L34.1971 11.3906H32.2746L40 7.4463V6.96727L31.7734 11.2001V6.96094H31.1406V12.0234H40ZM31.1406 20.25H31.7734V16.2323L39.8785 20.25H40V18.8072L34.1971 15.8203H36.1202L40 17.8263V17.3359L37.0802 15.8203H40V15.1875H31.1406V20.25ZM27.9766 16.2323V20.25H28.6094V15.1875H19.75V15.8203H22.7154L19.75 17.3593V18.8135L25.5985 15.8203H27.5222L19.75 19.7944V20.25H19.8981L27.9766 16.2323ZM22.08 8.28352C21.7472 8.55626 21.4504 8.8657 21.1884 9.20679L25.5985 11.3938H23.6753L20.7043 9.93705C20.6382 10.0579 20.5757 10.1807 20.517 10.3054L22.7154 11.3938H20.1006C20.0398 11.6001 19.9873 11.8108 19.943 12.0266H28.6094V6.9641H27.9766V11.2033L22.08 8.28352Z" fill="white"/>
                <path d="M28.6094 20.25H31.1406V15.1875H40V12.2342L31.1406 12.6562V6.96094H28.6094V12.6562L19.8943 12.2823C19.7987 12.8236 19.7504 13.3722 19.75 13.9219V15.1875H28.6094V20.25Z" fill="#FF0000"/>
                <path d="M31.1406 12.6562L40 12.2341V12.0234H31.1406V12.6562ZM19.8943 12.2822L28.6094 12.6562V12.0234H19.943C19.9247 12.1089 19.9095 12.1949 19.8943 12.2822ZM25.5985 11.3906L21.184 9.20867C21.007 9.43882 20.8465 9.68116 20.7037 9.93388L23.6753 11.3906H25.5985ZM21.1878 9.20361L21.184 9.20867L25.5985 11.3906L21.1878 9.20361ZM34.1971 11.3906L40 8.42778V7.44629L32.2746 11.3906H34.1971ZM34.1971 15.8203L40 18.7831V17.8263L36.1202 15.8203H34.1971Z" fill="#FF0000"/>
                <path d="M40 18.8072V18.7831L34.1971 15.8203L40 18.8072ZM25.5985 15.8203L19.75 18.8281V19.7944L27.5222 15.8203H25.5985Z" fill="#FF0000"/>
                <path d="M19.75 18.8135V18.8281L25.5985 15.8203L19.75 18.8135Z" fill="#FF0000"/>
                <path d="M29.0796 26.1733L29.8751 23.7439L30.6528 26.1733L33.0157 25.262L31.6191 27.3756L33.8175 28.6729L31.2736 28.8944L31.6198 31.4225L29.8757 29.5778L28.1209 31.4225L28.4601 28.8944L25.9346 28.6856L28.114 27.382L26.7098 25.262L29.0796 26.1733ZM49.4651 27.0257L49.7771 26.0657L50.0859 27.0257L51.0174 26.6669L50.4681 27.5022L51.3363 28.0148L50.3339 28.1034L50.4681 29.1L49.7771 28.3717L49.0873 29.1L49.2195 28.1034L48.2216 28.0148L49.081 27.5022L48.5304 26.6669L49.4651 27.0257ZM44.1115 18.5776L44.4254 17.6183L44.7329 18.5776L45.6663 18.2182L45.1132 19.0541L45.9827 19.5667L44.9778 19.6553L45.1132 20.6526L44.4254 19.9236L43.7318 20.6526L43.8666 19.6553L42.868 19.5693L43.7299 19.0541L43.1768 18.2182L44.1115 18.5776ZM54.2257 17.162L54.5383 16.2021L54.8459 17.162L55.7793 16.802L55.2256 17.6379L56.0988 18.1505L55.0908 18.2372L55.2256 19.2358L54.5383 18.5099L53.8448 19.2358L53.9789 18.2372L52.9791 18.153L53.8422 17.6404L53.2873 16.802L54.2257 17.162ZM52.0742 21.2652L52.226 20.7862L52.3817 21.2652L52.8462 21.0855L52.5728 21.5031L53.0044 21.7594L52.5051 21.8025L52.5728 22.3005L52.226 21.9379L51.8824 22.3005L51.9495 21.8025L51.4477 21.7607L51.8812 21.5044L51.6059 21.0855L52.0742 21.2652ZM49.4651 12.7513L49.7771 11.792L50.0859 12.7513L51.0174 12.3919L50.4681 13.2278L51.3363 13.7404L50.3339 13.8271L50.4681 14.8263L49.7771 14.0973L49.0873 14.8263L49.2195 13.8271L48.2216 13.743L49.081 13.2304L48.5304 12.3919L49.4651 12.7513Z" fill="white"/>
                </g>
                <defs>
                <clipPath id="clip0_20_12606">
                <rect width="40.5" height="40.5" fill="white" transform="translate(19.75)"/>
                </clipPath>
                </defs>
                </svg>