<svg width="70" height="40" viewBox="0 20 80 10" fill="none" xmlns="http://www.w3.org/2000/svg">
            <g clipPath="url(#clip0_20_12607)">
            <path d="M60.25 30.375C60.25 31.5685 59.7759 32.7131 58.932 33.557C58.0881 34.4009 56.9435 34.875 55.75 34.875H24.25C23.0565 34.875 21.9119 34.4009 21.068 33.557C20.2241 32.7131 19.75 31.5685 19.75 30.375V10.125C19.75 8.93153 20.2241 7.78693 21.068 6.94302C21.9119 6.09911 23.0565 5.625 24.25 5.625H55.75C56.9435 5.625 58.0881 6.09911 58.932 6.94302C59.7759 7.78693 60.25 8.93153 60.25 10.125V30.375Z" fill="#006A4D"/>
            <path d="M37.75 27.5625C42.0992 27.5625 45.625 24.0367 45.625 19.6875C45.625 15.3383 42.0992 11.8125 37.75 11.8125C33.4008 11.8125 29.875 15.3383 29.875 19.6875C29.875 24.0367 33.4008 27.5625 37.75 27.5625Z" fill="#F42A41"/>
            </g>
            <defs>
            <clipPath id="clip0_20_12607">
            <rect width="40.5" height="40.5" fill="white" transform="translate(19.75)"/>
            </clipPath>
            </defs>
            </svg>