<svg width="70" height="40" viewBox="0 20 80 10" fill="none" xmlns="http://www.w3.org/2000/svg">
                <rect x="20.5" y="6.75" width="39" height="28.5" rx="6.75" stroke="#C5C5C5" strokeWidth="1.5"/>
                <rect x="22.75" y="9" width="34.5" height="23.25" rx="6.38889" fill="#C5C5C5"/>
                <path d="M40.6812 22.7407H38.8135C38.8184 22.3013 38.8525 21.9229 38.916 21.6055C38.9844 21.2832 39.0991 20.9927 39.2603 20.7339C39.4263 20.4751 39.646 20.2188 39.9194 19.9648C40.1489 19.7598 40.3491 19.5645 40.52 19.3789C40.6909 19.1934 40.8252 19.0029 40.9229 18.8076C41.0205 18.6074 41.0693 18.3853 41.0693 18.1411C41.0693 17.8579 41.0254 17.6235 40.9375 17.438C40.8545 17.2476 40.7275 17.1035 40.5566 17.0059C40.3906 16.9082 40.1807 16.8594 39.9268 16.8594C39.7168 16.8594 39.5215 16.9058 39.3408 16.9985C39.1602 17.0864 39.0112 17.2231 38.894 17.4087C38.7817 17.5942 38.7231 17.8384 38.7183 18.1411H36.5942C36.6089 17.4722 36.7627 16.9204 37.0557 16.4858C37.3535 16.0464 37.7515 15.7217 38.2495 15.5117C38.7476 15.2969 39.3066 15.1895 39.9268 15.1895C40.6104 15.1895 41.1963 15.3018 41.6846 15.5264C42.1729 15.7461 42.5464 16.0708 42.8052 16.5005C43.064 16.9253 43.1934 17.4429 43.1934 18.0532C43.1934 18.478 43.1104 18.8564 42.9443 19.1885C42.7783 19.5156 42.561 19.8208 42.2925 20.104C42.0239 20.3872 41.7285 20.6802 41.4062 20.9829C41.1279 21.2319 40.9375 21.4932 40.835 21.7666C40.7373 22.04 40.686 22.3647 40.6812 22.7407ZM38.5938 25.0039C38.5938 24.6914 38.7012 24.4326 38.916 24.2275C39.1309 24.0176 39.4189 23.9126 39.7803 23.9126C40.1367 23.9126 40.4224 24.0176 40.6372 24.2275C40.8569 24.4326 40.9668 24.6914 40.9668 25.0039C40.9668 25.3066 40.8569 25.563 40.6372 25.7729C40.4224 25.9829 40.1367 26.0879 39.7803 26.0879C39.4189 26.0879 39.1309 25.9829 38.916 25.7729C38.7012 25.563 38.5938 25.3066 38.5938 25.0039Z" fill="#747474"/>
                </svg>