<svg width="70" height="40" viewBox="0 20 80 10" fill="none" xmlns="http://www.w3.org/2000/svg">
                <g clipPath="url(#clip0_20_12604)">
                <path d="M55.75 5.625H24.25C23.0565 5.625 21.9119 6.09911 21.068 6.94302C20.2241 7.78693 19.75 8.93153 19.75 10.125V30.375C19.75 31.5685 20.2241 32.7131 21.068 33.557C21.9119 34.4009 23.0565 34.875 24.25 34.875H55.75C56.9435 34.875 58.0881 34.4009 58.932 33.557C59.7759 32.7131 60.25 31.5685 60.25 30.375V10.125C60.25 8.93153 59.7759 7.78693 58.932 6.94302C58.0881 6.09911 56.9435 5.625 55.75 5.625Z" fill="#EEEEEE"/>
                <path d="M43.375 5.625H36.625V16.875H19.75V23.625H36.625V34.875H43.375V23.625H60.25V16.875H43.375V5.625Z" fill="#CE1124"/>
                </g>
                <defs>
                <clipPath id="clip0_20_12604">
                <rect width="40.5" height="40.5" fill="white" transform="translate(19.75)"/>
                </clipPath>
                </defs>
                </svg>