<svg width="70" height="40" viewBox="0 20 80 10" fill="none" xmlns="http://www.w3.org/2000/svg">
                <g clipPath="url(#clip0_20_12605)">
                <path d="M19.75 30.375C19.75 31.5685 20.2241 32.7131 21.068 33.557C21.9119 34.4009 23.0565 34.875 24.25 34.875H55.75C56.9435 34.875 58.0881 34.4009 58.932 33.557C59.7759 32.7131 60.25 31.5685 60.25 30.375V24.75H19.75V30.375Z" fill="#138808"/>
                <path d="M60.25 15.75V10.125C60.25 8.93153 59.7759 7.78693 58.932 6.94302C58.0881 6.09911 56.9435 5.625 55.75 5.625H24.25C23.0565 5.625 21.9119 6.09911 21.068 6.94302C20.2241 7.78693 19.75 8.93153 19.75 10.125V15.75H60.25Z" fill="#FF9933"/>
                <path d="M19.75 15.3755H60.25V25.1259H19.75V15.3755Z" fill="#F7F7F7"/>
                <path d="M40 24.75C42.4853 24.75 44.5 22.7353 44.5 20.25C44.5 17.7647 42.4853 15.75 40 15.75C37.5147 15.75 35.5 17.7647 35.5 20.25C35.5 22.7353 37.5147 24.75 40 24.75Z" fill="#000080"/>
                <path d="M40 24.0469C42.097 24.0469 43.7969 22.347 43.7969 20.25C43.7969 18.153 42.097 16.4531 40 16.4531C37.903 16.4531 36.2031 18.153 36.2031 20.25C36.2031 22.347 37.903 24.0469 40 24.0469Z" fill="#F7F7F7"/>
                <path d="M40.1126 18.8437L40.0001 19.5749L39.8876 18.8437L40.0001 16.6499L40.1126 18.8437ZM39.0686 16.7725L39.5276 18.9202L39.8258 19.5974L39.7448 18.8628L39.0686 16.7725ZM38.2001 17.1325L39.1991 19.0878L39.6626 19.6649L39.3949 18.9753L38.2001 17.1325ZM37.4543 17.704L38.9258 19.3353L39.5231 19.7729L39.0855 19.1755L37.4543 17.704ZM36.8828 18.4499L38.7255 19.6447L39.4151 19.9124L38.838 19.4489L36.8828 18.4499ZM36.5228 19.3184L38.613 19.9945L39.3476 20.0755L38.6704 19.7774L36.5228 19.3184ZM36.4001 20.2499L38.5939 20.3624L39.3251 20.2499L38.5939 20.1374L36.4001 20.2499ZM36.5228 21.1814L38.6704 20.7224L39.3476 20.4243L38.613 20.5053L36.5228 21.1814ZM36.8828 22.0499L38.838 21.0509L39.4151 20.5874L38.7255 20.8552L36.8828 22.0499ZM37.4543 22.7958L39.0855 21.3243L39.5231 20.7269L38.9258 21.1645L37.4543 22.7958ZM38.2001 23.3673L39.3949 21.5245L39.6626 20.8349L39.1991 21.412L38.2001 23.3673ZM39.0686 23.7273L39.7448 21.637L39.8258 20.9024L39.5276 21.5797L39.0686 23.7273ZM40.0001 23.8499L40.1126 21.6562L40.0001 20.9249L39.8876 21.6562L40.0001 23.8499ZM40.9316 23.7273L40.4726 21.5797L40.1745 20.9024L40.2555 21.637L40.9316 23.7273ZM41.8001 23.3673L40.8011 21.412L40.3376 20.8349L40.6054 21.5245L41.8001 23.3673ZM42.546 22.7958L41.0745 21.1645L40.4771 20.7269L40.9148 21.3243L42.546 22.7958ZM43.1175 22.0499L41.2748 20.8552L40.5851 20.5874L41.1623 21.0509L43.1175 22.0499ZM43.4775 21.1814L41.3873 20.5053L40.6526 20.4243L41.3299 20.7224L43.4775 21.1814ZM43.6001 20.2499L41.4064 20.1374L40.6751 20.2499L41.4064 20.3624L43.6001 20.2499ZM43.4775 19.3184L41.3299 19.7774L40.6526 20.0755L41.3873 19.9945L43.4775 19.3184ZM43.1175 18.4499L41.1623 19.4489L40.5851 19.9124L41.2748 19.6447L43.1175 18.4499ZM42.546 17.704L40.9148 19.1755L40.4771 19.7729L41.0745 19.3353L42.546 17.704ZM41.8001 17.1325L40.6054 18.9753L40.3376 19.6649L40.8011 19.0878L41.8001 17.1325ZM40.9316 16.7725L40.2555 18.8628L40.1745 19.5974L40.4726 18.9202L40.9316 16.7725Z" fill="#6666B3"/>
                <path d="M39.5048 16.7161C39.629 16.7161 39.7298 16.6154 39.7298 16.4911C39.7298 16.3669 39.629 16.2661 39.5048 16.2661C39.3805 16.2661 39.2798 16.3669 39.2798 16.4911C39.2798 16.6154 39.3805 16.7161 39.5048 16.7161Z" fill="#000080"/>
                <path d="M38.5487 16.9729C38.673 16.9729 38.7737 16.8722 38.7737 16.7479C38.7737 16.6237 38.673 16.5229 38.5487 16.5229C38.4245 16.5229 38.3237 16.6237 38.3237 16.7479C38.3237 16.8722 38.4245 16.9729 38.5487 16.9729Z" fill="#000080"/>
                <path d="M37.6916 17.4666C37.8158 17.4666 37.9166 17.3659 37.9166 17.2416C37.9166 17.1173 37.8158 17.0166 37.6916 17.0166C37.5673 17.0166 37.4666 17.1173 37.4666 17.2416C37.4666 17.3659 37.5673 17.4666 37.6916 17.4666Z" fill="#000080"/>
                <path d="M36.9916 18.1663C37.1159 18.1663 37.2166 18.0656 37.2166 17.9413C37.2166 17.817 37.1159 17.7163 36.9916 17.7163C36.8673 17.7163 36.7666 17.817 36.7666 17.9413C36.7666 18.0656 36.8673 18.1663 36.9916 18.1663Z" fill="#000080"/>
                <path d="M36.4977 19.0237C36.622 19.0237 36.7227 18.923 36.7227 18.7987C36.7227 18.6745 36.622 18.5737 36.4977 18.5737C36.3734 18.5737 36.2727 18.6745 36.2727 18.7987C36.2727 18.923 36.3734 19.0237 36.4977 19.0237Z" fill="#000080"/>
                <path d="M36.2414 19.9798C36.3656 19.9798 36.4664 19.879 36.4664 19.7548C36.4664 19.6305 36.3656 19.5298 36.2414 19.5298C36.1171 19.5298 36.0164 19.6305 36.0164 19.7548C36.0164 19.879 36.1171 19.9798 36.2414 19.9798Z" fill="#000080"/>
                <path d="M36.2414 20.97C36.3656 20.97 36.4664 20.8693 36.4664 20.745C36.4664 20.6208 36.3656 20.52 36.2414 20.52C36.1171 20.52 36.0164 20.6208 36.0164 20.745C36.0164 20.8693 36.1171 20.97 36.2414 20.97Z" fill="#000080"/>
                <path d="M36.4977 21.9261C36.622 21.9261 36.7227 21.8253 36.7227 21.7011C36.7227 21.5768 36.622 21.4761 36.4977 21.4761C36.3734 21.4761 36.2727 21.5768 36.2727 21.7011C36.2727 21.8253 36.3734 21.9261 36.4977 21.9261Z" fill="#000080"/>
                <path d="M36.9916 22.7835C37.1159 22.7835 37.2166 22.6828 37.2166 22.5585C37.2166 22.4342 37.1159 22.3335 36.9916 22.3335C36.8673 22.3335 36.7666 22.4342 36.7666 22.5585C36.7666 22.6828 36.8673 22.7835 36.9916 22.7835Z" fill="#000080"/>
                <path d="M37.6916 23.4832C37.8158 23.4832 37.9166 23.3825 37.9166 23.2582C37.9166 23.1339 37.8158 23.0332 37.6916 23.0332C37.5673 23.0332 37.4666 23.1339 37.4666 23.2582C37.4666 23.3825 37.5673 23.4832 37.6916 23.4832Z" fill="#000080"/>
                <path d="M38.5487 23.9769C38.673 23.9769 38.7737 23.8761 38.7737 23.7519C38.7737 23.6276 38.673 23.5269 38.5487 23.5269C38.4245 23.5269 38.3237 23.6276 38.3237 23.7519C38.3237 23.8761 38.4245 23.9769 38.5487 23.9769Z" fill="#000080"/>
                <path d="M39.5048 24.2337C39.629 24.2337 39.7298 24.133 39.7298 24.0087C39.7298 23.8844 39.629 23.7837 39.5048 23.7837C39.3805 23.7837 39.2798 23.8844 39.2798 24.0087C39.2798 24.133 39.3805 24.2337 39.5048 24.2337Z" fill="#000080"/>
                <path d="M40.495 24.2337C40.6193 24.2337 40.72 24.133 40.72 24.0087C40.72 23.8844 40.6193 23.7837 40.495 23.7837C40.3708 23.7837 40.27 23.8844 40.27 24.0087C40.27 24.133 40.3708 24.2337 40.495 24.2337Z" fill="#000080"/>
                <path d="M41.4513 23.9769C41.5756 23.9769 41.6763 23.8761 41.6763 23.7519C41.6763 23.6276 41.5756 23.5269 41.4513 23.5269C41.3271 23.5269 41.2263 23.6276 41.2263 23.7519C41.2263 23.8761 41.3271 23.9769 41.4513 23.9769Z" fill="#000080"/>
                <path d="M42.3085 23.4832C42.4328 23.4832 42.5335 23.3825 42.5335 23.2582C42.5335 23.1339 42.4328 23.0332 42.3085 23.0332C42.1842 23.0332 42.0835 23.1339 42.0835 23.2582C42.0835 23.3825 42.1842 23.4832 42.3085 23.4832Z" fill="#000080"/>
                <path d="M43.0082 22.7835C43.1325 22.7835 43.2332 22.6828 43.2332 22.5585C43.2332 22.4342 43.1325 22.3335 43.0082 22.3335C42.8839 22.3335 42.7832 22.4342 42.7832 22.5585C42.7832 22.6828 42.8839 22.7835 43.0082 22.7835Z" fill="#000080"/>
                <path d="M43.5021 21.9261C43.6264 21.9261 43.7271 21.8253 43.7271 21.7011C43.7271 21.5768 43.6264 21.4761 43.5021 21.4761C43.3778 21.4761 43.2771 21.5768 43.2771 21.7011C43.2771 21.8253 43.3778 21.9261 43.5021 21.9261Z" fill="#000080"/>
                <path d="M43.7584 20.97C43.8827 20.97 43.9834 20.8693 43.9834 20.745C43.9834 20.6208 43.8827 20.52 43.7584 20.52C43.6342 20.52 43.5334 20.6208 43.5334 20.745C43.5334 20.8693 43.6342 20.97 43.7584 20.97Z" fill="#000080"/>
                <path d="M43.7584 19.9798C43.8827 19.9798 43.9834 19.879 43.9834 19.7548C43.9834 19.6305 43.8827 19.5298 43.7584 19.5298C43.6342 19.5298 43.5334 19.6305 43.5334 19.7548C43.5334 19.879 43.6342 19.9798 43.7584 19.9798Z" fill="#000080"/>
                <path d="M43.5021 19.0237C43.6264 19.0237 43.7271 18.923 43.7271 18.7987C43.7271 18.6745 43.6264 18.5737 43.5021 18.5737C43.3778 18.5737 43.2771 18.6745 43.2771 18.7987C43.2771 18.923 43.3778 19.0237 43.5021 19.0237Z" fill="#000080"/>
                <path d="M43.0082 18.1663C43.1325 18.1663 43.2332 18.0656 43.2332 17.9413C43.2332 17.817 43.1325 17.7163 43.0082 17.7163C42.8839 17.7163 42.7832 17.817 42.7832 17.9413C42.7832 18.0656 42.8839 18.1663 43.0082 18.1663Z" fill="#000080"/>
                <path d="M42.3085 17.4666C42.4328 17.4666 42.5335 17.3659 42.5335 17.2416C42.5335 17.1173 42.4328 17.0166 42.3085 17.0166C42.1842 17.0166 42.0835 17.1173 42.0835 17.2416C42.0835 17.3659 42.1842 17.4666 42.3085 17.4666Z" fill="#000080"/>
                <path d="M41.4513 16.9729C41.5756 16.9729 41.6763 16.8722 41.6763 16.7479C41.6763 16.6237 41.5756 16.5229 41.4513 16.5229C41.3271 16.5229 41.2263 16.6237 41.2263 16.7479C41.2263 16.8722 41.3271 16.9729 41.4513 16.9729Z" fill="#000080"/>
                <path d="M40.495 16.7161C40.6193 16.7161 40.72 16.6154 40.72 16.4911C40.72 16.3669 40.6193 16.2661 40.495 16.2661C40.3708 16.2661 40.27 16.3669 40.27 16.4911C40.27 16.6154 40.3708 16.7161 40.495 16.7161Z" fill="#000080"/>
                <path d="M39.9998 21.2623C40.559 21.2623 41.0123 20.809 41.0123 20.2498C41.0123 19.6906 40.559 19.2373 39.9998 19.2373C39.4406 19.2373 38.9873 19.6906 38.9873 20.2498C38.9873 20.809 39.4406 21.2623 39.9998 21.2623Z" fill="#000080"/>
                </g>
                <defs>
                <clipPath id="clip0_20_12605">
                <rect width="40.5" height="40.5" fill="white" transform="translate(19.75)"/>
                </clipPath>
                </defs>
                </svg>