<svg width="70" height="40" viewBox="0 20 80 10" fill="none" xmlns="http://www.w3.org/2000/svg">
            <g clipPath="url(#clip0_41_3829)">
            <path d="M39.9999 7.81138V7.79492L34.197 10.7578L39.9999 7.81138Z" fill="#4189DD"/>
            <path d="M19.75 15.1875V16.7265L22.7154 15.1875H19.75ZM53.9219 6.32812H40V9.3112L37.0802 10.7578H40V15.1875H37.0802L40 16.7031V19.6172H39.8785L31.7734 15.5995V19.6172H27.9766V15.5995L19.8981 19.6172H19.75V27.2109C19.75 31.0553 21.8845 34.1719 26.0781 34.1719H53.9219C58.1155 34.1719 60.25 31.0553 60.25 27.2109V13.2891C60.25 9.44473 58.1155 6.32812 53.9219 6.32812ZM20.517 9.66938C20.3486 10.0202 20.2094 10.3842 20.1006 10.7578H22.7154L20.517 9.66938Z" fill="#2B3990"/>
            <path d="M40.0001 6.33445V6.32812H31.7735V10.5673L40.0001 6.33445ZM27.9766 10.5673V6.32812H26.0782C24.4202 6.32812 23.0894 6.82045 22.0801 7.64754L27.9766 10.5673Z" fill="#2B3990"/>
            <path d="M40 11.3906V10.7578H37.0802L40 9.3112V7.81144L34.1971 10.7578H32.2746L40 6.81349V6.33445L31.7734 10.5673V6.32812H31.1406V11.3906H40ZM31.1406 19.6172H31.7734V15.5995L39.8785 19.6172H40V18.1744L34.1971 15.1875H36.1202L40 17.1935V16.7031L37.0802 15.1875H40V14.5547H31.1406V19.6172ZM27.9766 15.5995V19.6172H28.6094V14.5547H19.75V15.1875H22.7154L19.75 16.7265V18.1807L25.5985 15.1875H27.5222L19.75 19.1616V19.6172H19.8981L27.9766 15.5995ZM22.08 7.6507C21.7472 7.92345 21.4504 8.23289 21.1884 8.57398L25.5985 10.761H23.6753L20.7043 9.30424C20.6382 9.42512 20.5757 9.54794 20.517 9.67254L22.7154 10.761H20.1006C20.0398 10.9673 19.9873 11.178 19.943 11.3938H28.6094V6.33129H27.9766V10.5705L22.08 7.6507Z" fill="white"/>
            <path d="M28.6094 19.6172H31.1406V14.5547H40V11.6014L31.1406 12.0234V6.32812H28.6094V12.0234L19.8943 11.6494C19.7987 12.1908 19.7504 12.7394 19.75 13.2891V14.5547H28.6094V19.6172Z" fill="#FF0000"/>
            <path d="M31.1406 12.0234L40 11.6013V11.3906H31.1406V12.0234ZM19.8943 11.6494L28.6094 12.0234V11.3906H19.943C19.9247 11.476 19.9095 11.5621 19.8943 11.6494ZM25.5985 10.7578L21.184 8.57586C21.007 8.80601 20.8465 9.04834 20.7037 9.30106L23.6753 10.7578H25.5985ZM21.1878 8.5708L21.184 8.57586L25.5985 10.7578L21.1878 8.5708ZM34.1971 10.7578L40 7.79497V6.81348L32.2746 10.7578H34.1971ZM34.1971 15.1875L40 18.1503V17.1935L36.1202 15.1875H34.1971Z" fill="#FF0000"/>
            <path d="M40 18.1744V18.1503L34.1971 15.1875L40 18.1744ZM25.5985 15.1875L19.75 18.1953V19.1616L27.5222 15.1875H25.5985Z" fill="#FF0000"/>
            <path d="M19.75 18.1807V18.1953L25.5985 15.1875L19.75 18.1807ZM51.0552 13.5929L50.1187 13.5941L49.8364 12.6689L49.5555 13.5941L48.617 13.5929L49.3777 14.1693L49.0872 15.0951L49.8377 14.5199L50.5863 15.0951L50.2959 14.1693L51.0552 13.5929Z" fill="#FF0000"/>
            <path d="M51.5488 13.4283L50.242 13.4302L49.8357 12.1089L49.4333 13.4302L48.1252 13.4283L49.1852 14.2345L48.7751 15.5476L49.8389 14.7325L50.9033 15.5476L50.4926 14.2345L51.5488 13.4283ZM49.8383 14.5224L49.0884 15.097L49.3782 14.1712L48.6176 13.5954L49.5548 13.5966L49.8364 12.6746L50.1186 13.5966L51.0552 13.5954L50.2983 14.1712L50.5863 15.097L49.8383 14.5224Z" fill="white"/>
            <path d="M51.2267 26.6604H50.1566L49.8364 25.6118L49.5111 26.6604H48.448L49.3131 27.3185L48.9859 28.3759L49.8377 27.7197L50.692 28.3759L50.3654 27.3185L51.2267 26.6604Z" fill="#FF0000"/>
            <path d="M51.7899 26.4703L50.299 26.4735L49.8358 24.9648L49.3757 26.4735L47.8835 26.4703L49.0928 27.3898L48.6258 28.8889L49.8383 27.9574L51.0527 28.8889L50.5844 27.3898L51.7899 26.4703ZM49.8377 27.7195L48.9827 28.3757L49.3124 27.3183L48.4455 26.662L49.5137 26.6633L49.8358 25.6116L50.1579 26.6633L51.2261 26.662L50.3629 27.3183L50.692 28.3757L49.8377 27.7195Z" fill="white"/>
            <path d="M55.9026 18.034L54.9667 18.0352L54.6876 17.1113L54.4035 18.0352L53.4663 18.034L54.2257 18.6092L53.9346 19.5356L54.6876 18.961L55.4344 19.5356L55.1477 18.6092L55.9026 18.034Z" fill="#FF0000"/>
            <path d="M56.3968 17.8642L55.09 17.8674L54.6838 16.5454L54.2813 17.8674L52.9727 17.8642L54.0326 18.671L53.6232 19.9841L54.6863 19.1691L55.7507 19.9841L55.3406 18.671L56.3968 17.8642ZM54.6857 18.9596L53.9364 19.5342L54.2256 18.6077L53.4656 18.0325L54.4028 18.0338L54.6844 17.1118L54.966 18.0338L55.9026 18.0325L55.1464 18.6077L55.4343 19.5342L54.6857 18.9596Z" fill="white"/>
            <path d="M46.3104 18.0925L45.3732 18.0938L45.0941 17.1743L44.81 18.0938L43.8728 18.0925L44.6322 18.6671L44.3436 19.5948L45.0941 19.0221L45.8408 19.5948L45.5536 18.6671L46.3104 18.0925Z" fill="#FF0000"/>
            <path d="M46.8033 17.9243L45.4965 17.9274L45.0896 16.6055L44.6878 17.9274L43.3792 17.9243L44.4391 18.7311L44.0297 20.0442L45.0934 19.2291L46.1572 20.0442L45.7471 18.7311L46.8033 17.9243ZM45.0928 19.0203L44.3436 19.5949L44.6328 18.6672L43.8721 18.0926L44.8093 18.0938L45.0909 17.1725L45.3725 18.0938L46.3091 18.0926L45.5529 18.6672L45.8408 19.5949L45.0928 19.0203Z" fill="white"/>
            </g>
            <defs>
            <clipPath id="clip0_41_3829">
            <rect width="40.5" height="40.5" fill="white" transform="translate(19.75)"/>
            </clipPath>
            </defs>
            </svg>