<svg width="70" height="40" viewBox="0 20 80 10" fill="none" xmlns="http://www.w3.org/2000/svg">
                <g clipPath="url(#clip0_20_12603)">
                <path d="M55.75 5.625H27.0625L41.125 15.1875H60.25V10.125C60.25 8.93153 59.7759 7.78693 58.932 6.94302C58.0881 6.09911 56.9435 5.625 55.75 5.625Z" fill="#DE3830"/>
                <path d="M27.0625 34.875H55.75C56.9435 34.875 58.0881 34.4009 58.932 33.557C59.7759 32.7131 60.25 31.5685 60.25 30.375V25.3125H41.125L27.0625 34.875Z" fill="#002395"/>
                <path d="M19.75 12.375V28.125L31.5625 20.25L19.75 12.375Z" fill="#141414"/>
                <path d="M19.75 10.125V12.375L31.5625 20.25L19.75 28.125V30.375L34.9375 20.25L19.75 10.125Z" fill="#FFB611"/>
                <path d="M23.7336 5.65674C22.6372 5.78339 21.6255 6.30861 20.891 7.1325C20.1565 7.95639 19.7504 9.02149 19.75 10.1252L34.9375 20.2502L19.75 30.3752C19.7504 31.479 20.1565 32.5441 20.891 33.368C21.6255 34.1919 22.6372 34.7171 23.7336 34.8437L40.5625 23.0627H60.25V17.4377H40.5625L23.7336 5.65674Z" fill="#007A4D"/>
                <path d="M27.0625 5.625H24.25C24.0745 5.625 23.9035 5.63737 23.7336 5.6565L40.5625 17.4375H60.25V15.1875H41.125L27.0625 5.625ZM23.7336 34.8435C23.9035 34.8626 24.0745 34.875 24.25 34.875H27.0625L41.125 25.3125H60.25V23.0625H40.5625L23.7336 34.8435Z" fill="#EEEEEE"/>
                </g>
                <defs>
                <clipPath id="clip0_20_12603">
                <rect width="40.5" height="40.5" fill="white" transform="translate(19.75)"/>
                </clipPath>
                </defs>
                </svg>