<svg width="70" height="40" viewBox="0 20 80 10" fill="none" xmlns="http://www.w3.org/2000/svg">
            <g clipPath="url(#clip0_20_12608)">
            <path d="M60.25 30.375C60.25 31.5685 59.7759 32.7131 58.932 33.557C58.0881 34.4009 56.9435 34.875 55.75 34.875H24.25C23.0565 34.875 21.9119 34.4009 21.068 33.557C20.2241 32.7131 19.75 31.5685 19.75 30.375V10.125C19.75 8.93153 20.2241 7.78693 21.068 6.94302C21.9119 6.09911 23.0565 5.625 24.25 5.625H55.75C56.9435 5.625 58.0881 6.09911 58.932 6.94302C59.7759 7.78693 60.25 8.93153 60.25 10.125V30.375Z" fill="#FFB700"/>
            <path d="M55.75 6.75H31V33.75H55.75C57.6108 33.75 59.125 32.2358 59.125 30.375V10.125C59.125 8.26425 57.6108 6.75 55.75 6.75Z" fill="#8D2129"/>
            <path d="M24.25 6.75C22.3893 6.75 20.875 8.26425 20.875 10.125V30.375C20.875 32.2358 22.3893 33.75 24.25 33.75H25.375V6.75H24.25Z" fill="#005641"/>
            <path d="M25.375 6.75H29.875V33.75H25.375V6.75Z" fill="#FF5B00"/>
            <path d="M34.5989 11.3198C34.5989 11.3198 34.5235 10.2409 34.5595 9.33755C34.5831 8.73905 34.2479 8.01568 33.6145 8.1203C32.9811 8.22493 32.278 8.09668 32.278 8.09668C32.278 8.09668 32.4186 8.50618 32.278 8.89318C32.1374 9.28018 32.1374 10.0879 33.0869 10.1937C34.0364 10.3006 34.4234 10.7922 34.5989 11.3198ZM55.6184 11.3198C55.6184 11.3198 55.6937 10.2409 55.6577 9.33755C55.6341 8.73905 55.9694 8.01568 56.6027 8.1203C57.2361 8.22493 57.9392 8.09668 57.9392 8.09668C57.9392 8.09668 57.7986 8.50618 57.9392 8.89318C58.0799 9.28018 58.0799 10.0879 57.1304 10.1937C56.1809 10.3006 55.7939 10.7922 55.6184 11.3198ZM34.5989 29.1803C34.5989 29.1803 34.5235 30.2603 34.5595 31.1637C34.5831 31.7622 34.2479 32.4856 33.6145 32.3798C32.9822 32.2741 32.278 32.4034 32.278 32.4034C32.278 32.4034 32.4186 31.9928 32.278 31.6058C32.1374 31.2188 32.1374 30.4111 33.0869 30.3053C34.0364 30.1996 34.4234 29.7068 34.5989 29.1803ZM55.6184 29.1803C55.6184 29.1803 55.6937 30.2603 55.6577 31.1637C55.6341 31.7622 55.9694 32.4856 56.6027 32.3798C57.235 32.2741 57.9392 32.4034 57.9392 32.4034C57.9392 32.4034 57.7986 31.9928 57.9392 31.6058C58.0799 31.2188 58.0799 30.4111 57.1304 30.3053C56.1809 30.1996 55.7939 29.7068 55.6184 29.1803ZM40.4567 15.0469C40.4567 15.0469 41.125 15.0121 41.7932 14.8354C42.4615 14.6599 42.25 14.0277 42.25 14.0277C42.25 14.0277 42.8474 13.7116 43.1995 14.0277C43.5505 14.3438 43.9735 14.3089 43.762 13.8871C44.3942 13.5709 44.6755 14.2741 44.6755 14.2741C44.6755 14.2741 44.9916 14.0749 45.0625 13.8049C45.625 13.7464 45.7307 14.3089 46.0817 14.2381C46.4327 14.1672 46.6791 13.8004 46.6791 13.8004C46.6791 13.8004 46.7489 14.8006 46.1515 15.0469C46.6442 15.6792 46.5025 16.9099 46.5025 17.2272L46.1515 17.0157C46.1515 17.0157 46.363 18.0001 46.4676 18.1407C46.5734 18.2813 46.1166 18.1407 46.1166 18.1407C46.1166 18.1407 46.363 18.8089 46.5385 18.9147C46.714 19.0204 50.0192 18.7032 50.9687 18.7032C51.9182 18.7032 53.2187 18.5626 53.2187 17.7188C53.2187 16.8751 52.1286 16.9448 50.899 17.1214C49.6682 17.2969 48.8605 17.2621 48.3677 16.9459C47.875 16.6298 47.3136 16.5477 47.3597 17.3442C46.6094 16.9932 47.1482 16.2428 47.1482 16.2428C47.1482 16.2428 46.2921 15.3057 46.8377 14.3674C47.3822 13.4303 49.4916 13.1479 50.9687 13.9692C52.4459 14.7904 53.0309 15.4688 53.6406 15.5869C53.617 15.1414 54.3674 14.8141 54.4607 15.6342C54.5541 16.4543 53.5225 16.2901 53.0781 16.0324C52.6337 15.7748 51.8361 15.0008 51.8361 15.0008C51.8361 15.0008 51.8125 15.4699 52.1174 15.7748C51.2736 15.6814 51.0869 15.0481 51.0869 15.0481C51.0869 15.0481 51.0385 15.7264 50.2656 15.7501C50.8281 15.0942 50.6402 14.5553 49.8674 14.2741C50.3129 14.9536 49.891 15.5397 49.2351 15.6331C49.6806 15.0008 49.306 14.2741 48.4859 14.1334C48.6029 14.6487 48.2046 14.7893 48.2046 14.7893C48.2046 14.7893 48.0179 14.3202 47.6421 14.5778C47.2664 14.8354 47.1719 15.3991 47.6635 15.7501C47.9684 15.1403 48.577 15.1876 48.7885 15.4452C48.1562 15.5149 48.1799 16.1022 48.4139 16.4059C48.6479 16.0077 48.883 15.8907 49.117 16.3126C49.351 16.7344 50.0541 16.7108 51.3197 16.5241C52.5854 16.3373 53.7509 16.4746 53.9444 17.6018C54.1086 18.5626 53.1479 19.0317 53.1479 19.0317C53.1479 19.0317 54.3899 19.9688 53.5934 22.0084C52.7969 24.0481 53.1254 24.8907 53.4291 25.1022C53.7329 25.3137 54.2031 25.3362 53.5697 25.8987C52.9364 26.4612 53.1006 26.8606 53.3582 27.1879C53.6159 27.5153 53.5461 27.8438 52.7957 27.4219C52.4672 27.7504 52.1399 27.6559 51.952 27.3747C51.7641 27.6323 51.4131 27.7032 51.178 27.4219C50.944 27.6098 50.6391 27.6098 50.8034 27.2104C50.9676 26.8111 51.7641 26.6479 51.9981 26.5782C52.2321 26.5084 52.2096 26.0854 52.1387 25.6174C52.0679 25.1494 51.6696 24.6567 50.8259 24.2112C50.4512 24.4924 50.4974 24.8198 50.638 24.9852C50.7786 25.1506 51.2241 25.1967 51.2477 25.3362C51.2714 25.4757 51.0137 25.7817 50.7325 25.9932C50.4512 26.2047 50.4985 26.5793 50.5919 26.7672C50.6852 26.9551 50.8022 27.4163 50.4974 27.6312C50.1925 27.8449 49.8887 27.3533 49.8887 27.3533C49.8887 27.3533 49.6997 27.9394 49.162 27.3769C48.8571 27.7527 48.5534 27.6121 48.4127 27.4006C48.1079 27.7054 47.6387 27.6818 47.8739 27.2599C48.109 26.8381 48.3891 26.8369 48.7176 26.8144C49.0461 26.7919 49.4905 26.7222 49.4444 26.0652C49.3982 25.4082 49.2689 24.7411 48.8121 24.3304C48.109 23.6982 48.226 22.9478 48.226 22.9478C48.226 22.9478 47.0537 22.8308 46.1402 23.4642C45.2267 24.0976 44.5225 24.0964 44.5225 24.0964C44.5225 24.0964 44.0061 24.6589 43.96 25.0099C43.9139 25.3609 44.1242 25.4791 44.4055 25.5724C44.6867 25.6658 44.8982 25.6422 44.4752 26.0179C44.0522 26.3937 43.7012 26.3689 43.7012 26.3689C43.7012 26.3689 43.6799 26.7661 43.726 27.0001C43.7721 27.2341 43.6315 27.6402 43.3975 27.6829C43.1635 27.7257 42.8114 27.4219 42.8114 27.4219C42.8114 27.4219 42.3659 27.8911 42.0149 27.3983C41.6166 27.7729 41.2645 27.6334 41.1239 27.3983C40.8899 27.7729 40.5141 27.6098 40.7492 27.1868C40.9844 26.7638 41.3117 26.7166 41.8742 26.7413C42.4367 26.7661 42.9047 26.3194 42.6944 25.7333C42.484 25.1472 42.2961 24.3507 42.2961 24.3507C42.2961 24.3507 41.8506 24.3034 41.1947 23.9288C40.3746 24.9132 40.0934 24.5622 39.8582 24.3743C39.6231 24.1864 39.0617 23.6712 39.0617 23.6712C39.0617 23.6712 38.7569 23.6476 38.8041 23.9288C38.4756 23.9052 38.5926 23.3899 38.5926 23.1323C38.5926 22.8747 38.4992 22.5698 38.3114 22.5698C38.1235 22.5698 37.8422 22.6171 37.8422 22.6171C37.8422 22.6171 37.8422 22.7093 38.1235 22.8038C38.4047 22.8983 38.3811 23.0862 38.0999 23.1087C37.8186 23.1312 37.6307 23.2009 37.8422 23.3663C38.0537 23.5317 38.0762 23.6239 37.912 23.7882C37.7477 23.9524 37.7714 24.3968 38.0526 24.5622C38.2405 24.1167 38.5915 24.3754 38.5217 24.6792C38.452 24.9829 37.9356 24.9368 37.9356 24.9368L38.2866 25.3351L37.7511 25.4521C37.7511 25.4521 37.7241 25.7806 37.5137 25.8503C37.3034 25.9201 37.2561 25.3576 37.2561 25.3576L36.7634 25.3339L37.0919 24.9357C37.0919 24.9357 36.6227 24.7714 36.5991 24.4902C36.5755 24.2089 36.9501 24.3496 37.021 24.4902C37.3956 24.3259 37.2786 23.9513 37.138 23.8107C36.9974 23.6701 37.0907 23.5531 37.2314 23.3888C37.372 23.2246 37.3484 23.1312 37.138 23.1773C36.9276 23.2234 36.5755 22.8016 36.9265 22.8016C37.2775 22.8016 37.3484 22.7779 37.3011 22.5203C36.8792 22.4742 37.1369 22.1457 37.1369 22.1457C37.1369 22.1457 36.8084 21.9106 37.0435 21.7474C36.832 21.5607 36.7859 21.2547 37.0199 21.2086C36.8792 21.0916 37.0671 20.8801 37.0671 20.8801C37.0671 20.8801 36.391 20.7653 36.391 20.2501C36.391 19.7348 36.9771 19.8282 36.9771 19.8282C36.9771 19.8282 36.9074 18.1879 37.0705 15.8907C37.2336 13.5934 38.1955 12.7969 38.7816 12.5629C38.1719 13.8522 38.2427 16.0313 38.2427 17.3678C38.2427 18.7043 38.2191 19.7584 38.2191 19.7584C38.2191 19.7584 38.875 19.8046 38.8277 20.2501C38.7805 20.6956 38.4767 20.7889 38.4767 20.7889L40 22.3122C40 22.3122 39.9302 20.7496 40.4455 20.1252C40.9607 19.5008 41.7572 18.9147 41.9924 18.7268C42.2275 18.5389 41.8472 18.0417 41.665 18.5862C41.3995 18.5536 41.1722 18.1171 41.1722 18.1171C41.1722 18.1171 41.1959 18.2813 41.0316 18.3983C40.8674 18.5153 40.9146 18.0001 40.8201 18.0473C40.7256 18.0946 40.4691 18.2352 40.1406 18.3286C40.1642 18.1407 40.3049 17.9067 40.3049 17.9067C40.3049 17.9067 39.883 17.9528 39.5072 18.0001C39.5072 17.6716 39.7176 17.1327 39.9055 17.0866C39.4364 16.8526 39.5545 16.4071 39.7649 16.4768C39.9752 16.5466 40.9596 17.1327 42.0621 17.2036C41.7111 16.8053 41.4299 16.2901 41.4299 16.2901L41.3129 16.6883L40.891 16.2901L40.8437 16.6883C40.8437 16.6883 39.8121 15.9379 39.6254 15.3293C39.4386 14.7207 39.649 14.2729 40 14.3213C40.6795 14.4136 40.4567 15.0469 40.4567 15.0469Z" fill="#FFB700"/>
            </g>
            <defs>
            <clipPath id="clip0_20_12608">
            <rect width="40.5" height="40.5" fill="white" transform="translate(19.75)"/>
            </clipPath>
            </defs>
            </svg>