<svg width="70" height="40" viewBox="0 20 80 10" fill="none" xmlns="http://www.w3.org/2000/svg">
                <g clipPath="url(#clip0_20_12601)">
                <path d="M55.2083 6H24.7917C22.0072 6 19.75 8.25724 19.75 11.0417V28.8058C19.75 31.5903 22.0072 33.8475 24.7917 33.8475H55.2083C57.9928 33.8475 60.25 31.5903 60.25 28.8058V11.0417C60.25 8.25723 57.9928 6 55.2083 6Z" fill="#880E4F"/>
                <path d="M34.3156 27.1467C37.2922 28.4727 42.7071 28.4732 45.6834 27.1467C47.6493 26.2711 48.6796 25.8452 49.2035 24.1138C49.4423 23.3258 48.8331 20.8785 48.4635 19.5672C48.0197 17.993 47.7455 15.7759 47.8425 15.0691C47.8541 14.9848 47.8877 14.8694 47.9357 14.7356C48.3411 13.6045 48.2279 12.3264 47.3995 11.4561C46.5618 10.5761 45.2611 10.4397 44.0553 10.5884C43.5354 10.6526 43.0606 10.6227 42.6149 10.5278C40.8733 10.1573 39.1264 10.1572 37.3847 10.5275C36.9388 10.6223 36.4637 10.6522 35.9434 10.588C34.7377 10.4391 33.4374 10.5759 32.5997 11.4558C31.7711 12.3263 31.658 13.6046 32.0634 14.7359C32.1113 14.8696 32.1448 14.9849 32.1564 15.0691C32.2534 15.7759 31.9792 17.993 31.5354 19.5672C31.1658 20.8777 30.5566 23.3258 30.7954 24.1138C31.3202 25.8452 32.3496 26.2711 34.3156 27.1467Z" fill="#90CAF9"/>
                <path d="M49.2037 24.1141C48.6789 25.8455 47.6486 26.2714 45.6835 27.147C42.7064 28.4731 37.2937 28.4731 34.3165 27.147C32.3514 26.2714 31.3212 25.8455 30.7964 24.1141C30.2402 22.2787 32.5408 20.8911 34.4586 20.8911H45.5414C47.4595 20.8911 49.76 22.2784 49.2037 24.1141Z" fill="#283593"/>
                <path d="M39.9999 30.5674C39.9484 30.5674 39.9003 30.5429 39.8708 30.5027C39.0414 29.3552 36.5928 28.2995 34.9728 27.6008C34.7104 27.4878 34.4674 27.383 34.2506 27.2863L34.1266 27.2306C32.2256 26.3846 31.1793 25.9185 30.6453 24.1568C30.3812 23.2837 31.0739 20.6283 31.3844 19.5275C31.8282 17.9525 32.0948 15.7706 32.0012 15.0899C31.9472 14.6935 31.3127 13.4355 31.073 12.9842C31.0427 12.9268 31.0528 12.858 31.0975 12.8105L33.8912 9.87591C33.9384 9.82595 34.0143 9.81284 34.0768 9.84315C36.7194 11.1258 38.2668 10.1871 39.9054 9.19282L39.9172 9.18545C39.9678 9.15433 40.0328 9.15433 40.0843 9.18545L40.0961 9.19282C41.7347 10.1871 43.2821 11.1258 45.9247 9.84315C45.988 9.81284 46.0631 9.82595 46.1103 9.87591L48.904 12.8105C48.9487 12.858 48.9588 12.9268 48.9285 12.9842C48.6888 13.4355 48.0552 14.6943 48.0003 15.0899C47.9067 15.7714 48.1733 17.9525 48.6171 19.5275C48.9276 20.6283 49.6203 23.2837 49.3563 24.1568C48.8222 25.9177 47.7759 26.3846 45.8749 27.2306L45.7509 27.2863C45.5349 27.383 45.2911 27.4878 45.0287 27.6008C43.4087 28.2995 40.9601 29.3552 40.1307 30.5027C40.0995 30.5437 40.0514 30.5674 39.9999 30.5674ZM32.7172 11.5585C31.9311 12.3843 31.8157 13.5958 32.2054 14.6673C32.2609 14.8199 32.3001 14.9524 32.3133 15.049C32.4104 15.7575 32.1412 18.0008 31.6881 19.6078C31.2004 21.3376 30.7499 23.4188 30.9473 24.0708C31.4401 25.6982 32.3817 26.1176 34.2573 26.953L34.3822 27.0087C34.5974 27.1045 34.8404 27.2093 35.1011 27.3216C37.8398 28.5025 42.1602 28.503 44.8987 27.3216C45.1594 27.2093 45.4024 27.1045 45.6176 27.0087L45.7425 26.953C47.6181 26.1176 48.5598 25.699 49.0525 24.0708C49.2499 23.4188 48.7994 21.3376 48.3117 19.6078C47.8586 18.0008 47.5894 15.7575 47.6865 15.049C47.6997 14.9527 47.7386 14.8208 47.7937 14.669C48.1829 13.5966 48.0679 12.3835 47.2813 11.5572C46.4908 10.7267 45.2676 10.5803 44.1318 10.7366C43.5844 10.812 43.0864 10.7861 42.62 10.6904C40.877 10.333 39.1227 10.3326 37.3797 10.6902C36.9138 10.7858 36.4164 10.8118 35.8699 10.7368C34.7328 10.5808 33.5085 10.7272 32.7172 11.5585Z" fill="#FFB300"/>
                <path d="M44.5395 17.5329C45.7562 17.5329 46.7425 16.5755 46.7425 15.3944C46.7425 14.2133 45.7562 13.2559 44.5395 13.2559C43.3228 13.2559 42.3364 14.2133 42.3364 15.3944C42.3364 16.5755 43.3228 17.5329 44.5395 17.5329Z" fill="#FFB300"/>
                <path d="M45.2726 26.2893C45.2726 26.3941 45.1855 26.476 45.0807 26.476H36.3359C36.2311 26.476 36.144 26.3941 36.144 26.2893C36.144 24.0672 38.1876 22.2661 40.7079 22.2661C43.2282 22.2661 45.2726 24.0672 45.2726 26.2893Z" fill="#81C784"/>
                <path d="M41.7045 19.9727C41.0661 19.9727 40.5486 20.4902 40.5486 21.1286V25.4623C40.5486 25.5788 40.643 25.6732 40.7595 25.6732C40.876 25.6732 40.9705 25.5788 40.9705 25.4623V20.6437C40.9705 20.4993 41.0876 20.3822 41.232 20.3822C41.3765 20.3822 41.4936 20.4993 41.4936 20.6437V25.4623C41.4936 25.5788 41.588 25.6732 41.7045 25.6732C41.821 25.6732 41.9155 25.5788 41.9155 25.4623V20.6437C41.9155 20.4993 42.0326 20.3822 42.177 20.3822C42.3215 20.3822 42.4386 20.4993 42.4386 20.6437V25.4623C42.4386 25.5788 42.533 25.6732 42.6495 25.6732C42.766 25.6732 42.8605 25.5788 42.8605 25.4623V21.1286C42.8605 20.4902 42.3429 19.9727 41.7045 19.9727Z" fill="#FFB300"/>
                <path d="M37.0683 17.8405C37.0788 17.5535 37.315 17.3267 37.6023 17.3267C37.8981 17.3267 38.1371 17.5666 38.119 17.8618C38.1045 18.0992 38.0788 18.3847 38.0332 18.6511C37.9286 19.2621 37.8231 20.281 37.8231 20.5865C37.8231 20.721 37.8434 21.0331 37.8661 21.3404C37.904 21.8533 38.0267 22.3561 38.2269 22.8299C38.4194 23.2855 38.6542 23.8297 38.7673 24.0494C38.9119 24.3296 39.454 25.2375 39.7778 25.776C39.8866 25.957 39.7563 26.1879 39.5451 26.1879C39.4527 26.1879 39.3669 26.1412 39.3175 26.0631C39.0345 25.6156 38.0593 24.0589 37.4698 22.93C37.1949 22.4035 37.0255 21.8131 37.0146 21.2193C37.0002 20.439 37.0181 19.2198 37.0683 17.8405Z" fill="#6D4C41"/>
                <path d="M40.3915 17.3897C40.432 17.4258 40.3966 17.4897 40.3434 17.4766C40.0008 17.3889 39.341 17.2251 39.1866 17.2251C39.0645 17.2251 38.73 17.294 38.471 17.3517C38.2494 17.4011 38.0216 17.4179 37.7955 17.396L37.2225 17.3406C37.135 17.3321 37.053 17.2942 36.99 17.233C36.9177 17.1628 36.8209 17.1236 36.7202 17.1236H36.4581C36.388 17.1236 36.3183 17.1335 36.251 17.1531L35.5835 17.3474C35.4431 17.3882 35.3028 17.2829 35.3028 17.1368C35.3028 17.0649 35.3381 16.9975 35.3971 16.9566L35.96 16.5659C36.0101 16.5312 36.0696 16.5125 36.1306 16.5125H36.2574C36.5117 16.5125 36.6143 16.1848 36.4054 16.0398C36.3706 16.0157 36.3305 16.0004 36.2886 15.9954L35.9451 15.9538C35.6618 15.9196 35.3732 15.9565 35.1165 16.0813C34.9075 16.1829 34.6733 16.3095 34.5688 16.411C34.5305 16.4481 34.4783 16.4954 34.4186 16.5478C34.2236 16.719 33.9367 16.5195 34.0209 16.2742C34.036 16.2302 34.0625 16.1913 34.0981 16.1614C34.2871 16.0025 34.9158 15.4787 35.0936 15.3921C35.2619 15.3107 35.7663 15.1637 35.9604 15.1084C36.0119 15.0937 36.0649 15.0866 36.1184 15.0866H36.7835C36.9223 15.0866 37.0161 14.8826 36.8773 14.8826C36.8275 14.8826 36.5206 14.86 36.2104 14.8361C35.7537 14.8009 35.2959 14.8872 34.8835 15.0866C34.7358 15.1578 34.3308 15.4298 34.1022 15.5862C34.0651 15.6116 34.0187 15.5698 34.0423 15.5321L34.2555 15.1874C34.462 14.8536 34.7446 14.5734 35.0802 14.3697C35.2982 14.2374 35.535 14.1385 35.784 14.0836C36.0362 14.028 36.343 13.9661 36.4588 13.9661C36.5448 13.9661 36.7009 13.9661 36.8555 13.9661C36.9637 13.9661 36.9974 13.8198 36.9001 13.7725C36.8862 13.7657 36.8709 13.7622 36.8555 13.7622H36.0929C36.0577 13.7622 36.023 13.7702 35.9913 13.7855L35.8145 13.8712C35.6475 13.9522 35.4814 13.7591 35.5864 13.6061C35.6078 13.575 35.6383 13.5513 35.6737 13.5384L36.3041 13.309C36.4062 13.2719 36.5146 13.2549 36.6233 13.2591L37.1939 13.2812C37.3895 13.2887 37.5738 13.0691 37.3987 12.9816C37.3845 12.9745 37.366 12.9657 37.3441 12.9556C37.1385 12.8605 37.1761 12.4922 37.3945 12.5525C37.4375 12.5643 37.5417 12.5976 37.6712 12.6595C37.9809 12.8077 38.4383 12.7633 38.6925 12.5326C38.8267 12.4107 38.9208 12.4184 39.102 12.4219L39.6916 12.4331C39.7115 12.4334 39.7289 12.4466 39.7346 12.4656C39.7416 12.4883 39.7302 12.5126 39.7082 12.5217C39.6388 12.5508 39.4844 12.617 39.3143 12.7004C38.9941 12.8575 39.1018 13.1452 39.4585 13.1449C39.4967 13.1449 39.5301 13.1449 39.5573 13.1448C39.6084 13.1447 39.6575 13.1633 39.6959 13.197C39.858 13.3396 39.7242 13.6045 39.5132 13.5586L39.3829 13.5302C39.3535 13.5238 39.3233 13.5229 39.2936 13.5275L38.7613 13.6101C38.6991 13.6198 38.6451 13.6579 38.6151 13.7132C38.5422 13.8481 38.6408 14.0117 38.7942 14.0102L39.655 14.0015C39.721 14.0009 39.7867 14.0093 39.8501 14.0279C40.0224 14.0782 40.3787 14.1878 40.5029 14.2667C40.6185 14.3404 41.2049 14.9539 41.5517 15.3208C41.6065 15.379 41.5382 15.4674 41.4647 15.433L40.4776 14.967C40.436 14.9474 40.3939 14.9285 40.3505 14.9131C40.2001 14.8598 39.791 14.7336 39.1626 14.6816C39.139 14.6797 39.1153 14.6861 39.0959 14.6996C39.0189 14.7534 39.0486 14.8742 39.1416 14.8867C39.4344 14.9258 39.8767 14.9885 39.9654 15.0219C40.1012 15.0727 40.7391 15.3192 40.7957 15.3446C40.848 15.3683 41.6554 16.0883 42.0866 16.7673C42.1153 16.8123 42.063 16.8639 42.0157 16.8385C41.6402 16.6338 40.826 16.1808 40.6547 16.1423C40.4489 16.0957 39.7933 15.9425 39.7013 15.9474C39.6358 15.9503 39.2069 15.9557 38.9655 15.9586C38.8573 15.9599 38.7512 15.9872 38.6559 16.0382L38.3163 16.2201C38.2739 16.2428 38.25 16.2894 38.2563 16.337C38.2631 16.3881 38.3025 16.4284 38.3534 16.4361C38.6292 16.4777 39.4793 16.608 39.5267 16.6395C39.5697 16.6673 40.1147 17.1457 40.3915 17.3897Z" fill="#43A047"/>
                </g>
                <defs>
                <clipPath id="clip0_20_12601">
                <rect width="40.5" height="40.5" fill="white" transform="translate(19.75)"/>
                </clipPath>
                </defs>
                </svg>