<svg width="70" height="40" viewBox="0 20 80 10" fill="none" xmlns="http://www.w3.org/2000/svg">
            <g clipPath="url(#clip0_41_3830)">
            <path d="M31.1733 13.5002L21.8121 6.3418C21.614 6.47014 21.4259 6.61343 21.2496 6.77042C20.7774 7.19213 20.3997 7.71004 20.1412 8.28801C19.8828 8.86598 19.7495 9.49205 19.75 10.1252V30.3752C19.7491 31.1282 19.9377 31.8694 20.2982 32.5305C20.6587 33.1916 21.1797 33.7515 21.8133 34.1586L40 20.2502L31.1733 13.5002Z" fill="#EEEEEE"/>
            <path d="M27.2672 13.0464L29.2731 17.111L33.7607 17.7635L30.5128 20.9281L31.2801 25.3966L27.2672 23.2861L23.2543 25.3966L24.0204 20.9281L20.7737 17.7635L25.2602 17.111L27.2672 13.0464Z" fill="#DE200F"/>
            <path d="M28.1875 17.3904C27.1559 16.5467 26.734 15.9369 25.9847 14.7658C25.2355 13.5947 24.25 13.7342 23.8281 14.7658C23.1723 14.9064 22.9844 15.6096 22.9844 15.6096C24.0621 15.2811 24.7652 15.9842 24.8597 17.4849C24.9542 18.9857 24.5785 19.4064 23.9226 20.7193C23.2668 22.0322 24.016 22.3596 24.016 22.3596L24.448 24.6388H31.1508L32.0789 20.6248H32.6414C32.6402 20.6248 29.2191 18.2342 28.1875 17.3904Z" fill="#FFD200"/>
            <path d="M26.2886 18.5972L25.9016 18.8627C25.9016 18.8627 26.6047 20.4028 27.6239 20.6244C28.6432 20.846 31.9406 21.2128 31.9406 21.2128L32.0767 20.6244C32.0767 20.6244 28.6668 20.2138 27.8107 20.0732C26.9546 19.9325 26.2886 18.5972 26.2886 18.5972ZM25.4448 22.3952C25.4448 22.3952 26.8859 22.2759 27.6251 22.3952C28.3147 22.5065 31.2172 22.6674 31.6008 22.6888L31.7279 22.1375C31.3353 22.0745 28.2686 21.5852 27.4136 21.5345C26.5001 21.4805 25.5866 21.9238 25.4448 22.3952ZM26.1839 23.4842L26.3594 24.6384H31.1497L31.3544 23.7553C29.0223 23.294 26.1839 23.4842 26.1839 23.4842Z" fill="#FFAC33"/>
            <path d="M31.1947 24.6949H24.4008L24.3918 24.6499L23.9654 22.3965C23.8183 22.3085 23.7074 22.1709 23.6527 22.0084C23.53 21.6709 23.6043 21.2288 23.8709 20.6933C23.9699 20.4953 24.0633 20.3175 24.1488 20.1522C24.6213 19.2454 24.8812 18.7459 24.8035 17.487C24.7507 16.6478 24.5065 16.0549 24.0982 15.7714C23.8023 15.5667 23.4333 15.5307 23.0013 15.6623L22.9045 15.6915L22.9304 15.5937C22.9383 15.5644 23.1284 14.8759 23.7877 14.7162C23.9969 14.2234 24.3434 13.9208 24.7405 13.8848C25.1984 13.8454 25.6563 14.1447 26.032 14.7342C26.7554 15.8637 27.1807 16.4937 28.2235 17.3464C29.2417 18.1789 32.6392 20.5549 32.674 20.5785L32.8203 20.6809H32.1239L31.1947 24.6949ZM24.4942 24.5835H31.1047L32.0328 20.5695H32.4625C31.7977 20.1027 29.0515 18.171 28.1515 17.4342C27.0963 16.5702 26.6665 15.9357 25.9375 14.796C25.5854 14.2437 25.1568 13.959 24.7507 13.9984C24.3884 14.031 24.0712 14.319 23.8799 14.787L23.8687 14.814L23.8394 14.8197C23.3692 14.9209 23.1509 15.3349 23.0733 15.525C23.4963 15.4193 23.8619 15.471 24.1623 15.6792C24.601 15.9829 24.862 16.6062 24.916 17.4803C24.997 18.7707 24.7315 19.2803 24.25 20.205C24.1565 20.384 24.0642 20.5636 23.9733 20.7439C23.7247 21.2412 23.6504 21.663 23.7584 21.9668C23.8495 22.2199 24.0318 22.3043 24.0397 22.3077L24.0667 22.32L24.0723 22.3482L24.4942 24.5835Z" fill="#F15A29"/>
            <path d="M60.107 9C59.8576 8.03404 59.2943 7.17835 58.5056 6.56743C57.7169 5.95651 56.7475 5.625 55.7499 5.625H24.2499C23.3521 5.625 22.5151 5.88825 21.8131 6.3405L21.812 6.34163L25.2883 9H60.107ZM60.107 31.5C59.8574 32.4659 59.2941 33.3214 58.5054 33.9323C57.7167 34.5432 56.7475 34.8748 55.7499 34.875H24.2499C23.3857 34.8762 22.5395 34.6277 21.8131 34.1595L21.812 34.1584L25.2883 31.5H60.107Z" fill="#319209"/>
            <path d="M25.2883 9.00002L40 20.25L25.2883 31.5H60.1071C60.2005 31.1389 60.25 30.7654 60.25 30.375V10.125C60.25 9.73915 60.1982 9.35777 60.1071 9.00002C60.1071 8.99777 25.2883 9.00002 25.2883 9.00002Z" fill="#FFD200"/>
            <path d="M31.1733 13.5L37.0582 18H60.2501V13.5H31.1733ZM31.1733 27H60.2501V22.5H37.0582L31.1733 27Z" fill="#DE200F"/>
            <path d="M37.058 18.0002L21.812 6.3418C21.6139 6.47014 21.4258 6.61343 21.2495 6.77042L38.8749 20.2502L21.2495 33.7288C21.425 33.8863 21.614 34.0292 21.8131 34.1586L37.058 22.5002H60.2499V18.0002H37.058Z" fill="#141414"/>
            </g>
            <defs>
            <clipPath id="clip0_41_3830">
            <rect width="40.5" height="40.5" fill="white" transform="translate(19.75)"/>
            </clipPath>
            </defs>
            </svg>